M48
;Layer_Color=9474304
;FILE_FORMAT=4:4
METRIC,LZ
;TYPE=PLATED
T01F00S00C0.5000
T02F00S00C0.7000
T03F00S00C0.7100
T04F00S00C0.7112
T05F00S00C0.8500
T06F00S00C0.9000
T07F00S00C1.0000
T08F00S00C1.0200
T09F00S00C1.3000
T10F00S00C1.5500
T11F00S00C1.6000
T12F00S00C3.0000
T13F00S00C3.5000
%
T01
X00795Y0062
Y00645
Y0067
X0082
X00845
X0087
Y00645
X00845
X0082
Y0062
X00845
X0087
X00795Y00695
Y0072
Y00745
X0077
Y0072
Y00695
Y0067
Y00645
Y0062
X00805Y0109
Y01115
Y0114
Y01165
Y0119
X0083
X00855
X0088
X00905
Y01165
X0088
X00855
Y0114
X0088
X00905
Y01115
Y0109
X0088
X00855
X0083
Y01115
Y0114
Y01165
X00855Y01115
X0088
X00965Y011175
X0099
X01015
X0104
X01065
Y010925
X0104
X01015
X0099
X00965
Y011425
X0099
Y011675
X00965
X01015
Y011425
X0104
X01065
Y011675
X0104
Y011925
X01065
X01015
X0099
X00965
T02
X0093Y00725
Y00775
X010875Y00775
Y00725
X0112475Y00677
X0117475
X005435Y0060825
X004975Y006075
Y005575
X005435Y0055825
X0032525Y00558
X002775Y00558
Y00608
X0032525Y00608
X000825Y006075
Y005575
X000275Y005575
Y006075
T03
X00704065Y00349815
Y00375215
X00740407
Y00349815
X00777
Y00375215
T04
X0065Y003325
X00665Y003225
X00672306Y00372695
X0067Y003925
X009375Y003275
X010575Y007225
X007925Y00505
X00665Y0058
X00657018Y00600482
X00465Y006075
Y0058976
X004425Y0059
Y006075
X00415Y0055
X00455Y0053476
X003725Y0053
X0034193Y0053226
X00285Y0052976
X002575Y00545
X0019Y005825
Y006
X00095Y00525
X00075Y0073
X00045
X005775Y00805
T05
X0091875Y0048575
X0100875
X0076825Y0048625
X00738457
X00709207
Y0057625
X00738457
X0076825
X0054475Y0077025
X0030475
X0006875Y007665
Y008565
X000675Y00943
X00037
Y01033
X000675
X00286707
X0031575
Y00943
X00286707
X0030475Y0086025
X0054475
X005325Y0094325
X00563Y00943
Y01033
X005325Y0103325
T06
X0081225Y00418
X0083725
X00892792Y00418
X00917792
X00942792
X00967792
X0102933
X0105433
X0107933
X0078725Y00418
X0076225
X0073725
X0071225
T07
X0013375Y00350637
X0015915
X0018455
X0020995
X0023535
X0026075
X0028615
X0031155
X0033695
X0036235
X0038775
X0041315
X0043855
X0046395
X0048935
X0051475
X0054015
X0056555
X0059095
X0061635
X01054Y004825
X01079
X00616496Y00502783
X00590842
X00565442
X00540042
X00514642
X00489242
X00463842
X00438442
X00413042
X00387642
X00362242
X00336842
X00311442
X00286042
X00260642
X00235242
X00209842
X00184442
X00159042
X00133642
X009445Y00926193
Y01001192
X01134Y01001
Y00926
T08
X008991Y00538
X009245
X011373Y006375
X011627
T09
X01175Y00745
X0038227Y008311
X0035687
Y0089956
X0038227
X0017907Y0089956
X0015367
X0012827
X00127807Y00831101
X00153207
X00178607
X0040767Y008311
Y0089956
X00616439
X00641839
X00667239
Y008311
X00641839
X00616439
X01175Y00795
T10
X004725Y0064102
Y0077592
X0073727Y0077392
Y0063902
X0024325Y0064005
Y0077495
Y008738
Y010087
X004725Y0100945
Y0087455
X0073727Y008738
Y010087
T11
X0082325Y0073215
X0085725
Y0083135
X0082325
T12
X000475Y003765
X01155
X000475Y0115347
X0114477Y0115347
T13
X0015367Y0106612
X0038354
X0064184
M30
