G04*
G04 #@! TF.GenerationSoftware,Altium Limited,Altium Designer,24.8.2 (39)*
G04*
G04 Layer_Physical_Order=1*
G04 Layer_Color=255*
%FSLAX44Y44*%
%MOMM*%
G71*
G04*
G04 #@! TF.SameCoordinates,2ADF9C04-DE7E-4385-BC50-A77D5B0DFB63*
G04*
G04*
G04 #@! TF.FilePolarity,Positive*
G04*
G01*
G75*
%ADD12C,0.2540*%
%ADD13R,2.5400X6.0960*%
%ADD14R,2.0320X1.5240*%
%ADD17C,1.2000*%
%ADD18R,1.2000X1.2000*%
%ADD21C,2.0000*%
%ADD22R,2.0000X2.0000*%
%ADD23C,2.4500*%
%ADD24R,2.4500X2.4500*%
%ADD26C,1.5700*%
%ADD27R,1.5700X1.5700*%
%ADD28C,1.4000*%
%ADD29R,1.4000X1.4000*%
%ADD33R,1.2000X1.2000*%
%ADD36C,1.5500*%
%ADD37R,1.5500X1.5500*%
%ADD41R,12.0000X12.0000*%
%ADD42C,1.0000*%
%ADD43C,1.2540*%
%ADD44C,0.5000*%
%ADD45C,3.0000*%
%ADD46O,2.0000X2.0000*%
%ADD47R,1.3500X1.3500*%
%ADD48C,1.3500*%
%ADD49R,1.3500X1.3500*%
%ADD50C,1.2100*%
G04:AMPARAMS|DCode=51|XSize=1.95mm|YSize=1.95mm|CornerRadius=0.4875mm|HoleSize=0mm|Usage=FLASHONLY|Rotation=90.000|XOffset=0mm|YOffset=0mm|HoleType=Round|Shape=RoundedRectangle|*
%AMROUNDEDRECTD51*
21,1,1.9500,0.9750,0,0,90.0*
21,1,0.9750,1.9500,0,0,90.0*
1,1,0.9750,0.4875,0.4875*
1,1,0.9750,0.4875,-0.4875*
1,1,0.9750,-0.4875,-0.4875*
1,1,0.9750,-0.4875,0.4875*
%
%ADD51ROUNDEDRECTD51*%
%ADD52C,1.9500*%
%ADD53O,2.4000X1.6000*%
%ADD54C,4.0000*%
%ADD55C,6.0000*%
%ADD56C,1.2700*%
%ADD57C,0.7500*%
G36*
X701000Y900415D02*
X763190D01*
Y759385D01*
X656231D01*
Y818560D01*
X679779D01*
Y843640D01*
X656231D01*
Y846750D01*
X656033Y847741D01*
X655472Y848581D01*
X654632Y849143D01*
X653641Y849340D01*
X630141D01*
X629150Y849143D01*
X628310Y848581D01*
X627748Y847741D01*
X627551Y846750D01*
Y759385D01*
X569420D01*
Y933710D01*
X572290D01*
Y952290D01*
X569420D01*
Y1026282D01*
X570434Y1027296D01*
X571657Y1029414D01*
X572290Y1031777D01*
Y1034223D01*
X571657Y1036586D01*
X570434Y1038704D01*
X569420Y1039718D01*
Y1202000D01*
X701000D01*
Y900415D01*
D02*
G37*
G36*
X456000Y1015450D02*
X455634Y1014567D01*
X454960Y1011178D01*
Y1007723D01*
X455634Y1004334D01*
X456000Y1003451D01*
Y900415D01*
X518190D01*
Y759385D01*
X397481D01*
X397481Y818560D01*
X420210D01*
Y843640D01*
X396634D01*
X395882Y844143D01*
X394891Y844340D01*
X370141D01*
X369150Y844143D01*
X368310Y843581D01*
X367748Y842741D01*
X367551Y841750D01*
Y759385D01*
X324420D01*
Y933710D01*
X325040D01*
Y952290D01*
X324420D01*
Y1029464D01*
X325040Y1031777D01*
Y1034223D01*
X324420Y1036537D01*
Y1202000D01*
X456000D01*
Y1015450D01*
D02*
G37*
G36*
X223000Y900415D02*
X285190D01*
Y759385D01*
X167731D01*
Y818561D01*
X191147D01*
Y843641D01*
X167731D01*
Y846750D01*
X167533Y847741D01*
X166972Y848581D01*
X166132Y849143D01*
X165141Y849340D01*
X140141D01*
X139150Y849143D01*
X138310Y848581D01*
X137748Y847741D01*
X137551Y846750D01*
Y833487D01*
X137584Y833320D01*
X137573Y833149D01*
X137843Y831101D01*
X137573Y829052D01*
X137584Y828881D01*
X137551Y828714D01*
Y759385D01*
X91420D01*
Y1202000D01*
X223000D01*
Y900415D01*
D02*
G37*
G36*
X653641Y752149D02*
X898641Y749644D01*
Y611750D01*
X551294D01*
X550960Y612557D01*
X549591Y614341D01*
X547807Y615710D01*
X545729Y616570D01*
X543500Y616864D01*
X541271Y616570D01*
X539193Y615710D01*
X537409Y614341D01*
X536040Y612557D01*
X535706Y611750D01*
X504983D01*
X504959Y611807D01*
X503591Y613591D01*
X501807Y614959D01*
X499729Y615820D01*
X497500Y616114D01*
X495271Y615820D01*
X493193Y614959D01*
X491409Y613591D01*
X490040Y611807D01*
X490017Y611750D01*
X472862D01*
X472765Y611983D01*
X471340Y613840D01*
X469483Y615265D01*
X467321Y616161D01*
X465000Y616467D01*
X462679Y616161D01*
X460517Y615265D01*
X458660Y613840D01*
X457235Y611983D01*
X457138Y611750D01*
X450362D01*
X450265Y611983D01*
X448840Y613840D01*
X446983Y615265D01*
X444821Y616161D01*
X442500Y616467D01*
X440179Y616161D01*
X438017Y615265D01*
X436160Y613840D01*
X434735Y611983D01*
X434638Y611750D01*
X332940D01*
X332710Y612307D01*
X331341Y614091D01*
X329557Y615459D01*
X327479Y616320D01*
X325250Y616614D01*
X323021Y616320D01*
X320943Y615459D01*
X319159Y614091D01*
X317790Y612307D01*
X317560Y611750D01*
X285191D01*
X284960Y612307D01*
X283591Y614091D01*
X281807Y615460D01*
X279729Y616320D01*
X277500Y616614D01*
X275271Y616320D01*
X273193Y615460D01*
X271409Y614091D01*
X270040Y612307D01*
X269810Y611750D01*
X92891D01*
Y754486D01*
X140141D01*
Y828714D01*
X140455Y831101D01*
X140141Y833487D01*
Y846750D01*
X165141D01*
Y754486D01*
X370141Y752390D01*
Y841750D01*
X394891D01*
X394891Y752137D01*
X630141Y752390D01*
Y846750D01*
X653641D01*
Y752149D01*
D02*
G37*
G36*
X1117466Y578187D02*
X1112343Y303301D01*
X100000D01*
Y517621D01*
X100459Y517886D01*
X102114Y519541D01*
X103022Y521115D01*
X180000D01*
X181487Y521411D01*
X182747Y522253D01*
X192747Y532253D01*
X193589Y533513D01*
X193885Y535000D01*
Y574478D01*
X195459Y575386D01*
X197114Y577041D01*
X198284Y579069D01*
X198534Y580000D01*
X201115D01*
Y562500D01*
X201411Y561013D01*
X202253Y559753D01*
X232253Y529753D01*
X233513Y528911D01*
X235000Y528615D01*
X267500D01*
X268987Y528911D01*
X270247Y529753D01*
X274233Y533739D01*
X276510Y532425D01*
X276110Y530930D01*
Y528590D01*
X276716Y526329D01*
X277886Y524301D01*
X279541Y522646D01*
X281569Y521476D01*
X283830Y520870D01*
X286170D01*
X288431Y521476D01*
X290459Y522646D01*
X292114Y524301D01*
X293161Y526115D01*
X315800D01*
X327383Y514533D01*
X327763Y512461D01*
X327481Y511184D01*
X325888Y509108D01*
X325516Y508210D01*
X322767D01*
X322395Y509108D01*
X320385Y511727D01*
X317766Y513737D01*
X314715Y515001D01*
X311442Y515432D01*
X308168Y515001D01*
X305117Y513737D01*
X302498Y511727D01*
X300488Y509108D01*
X300116Y508210D01*
X297367D01*
X296995Y509108D01*
X294985Y511727D01*
X292366Y513737D01*
X289315Y515001D01*
X286042Y515432D01*
X282768Y515001D01*
X279718Y513737D01*
X277098Y511727D01*
X275088Y509108D01*
X274716Y508210D01*
X271967D01*
X271595Y509108D01*
X269585Y511727D01*
X266966Y513737D01*
X263915Y515001D01*
X260642Y515432D01*
X257368Y515001D01*
X254317Y513737D01*
X251698Y511727D01*
X249688Y509108D01*
X249316Y508210D01*
X246567D01*
X246195Y509108D01*
X244185Y511727D01*
X241566Y513737D01*
X238515Y515001D01*
X235242Y515432D01*
X231968Y515001D01*
X228918Y513737D01*
X226298Y511727D01*
X224288Y509108D01*
X223916Y508210D01*
X221167D01*
X220795Y509108D01*
X218785Y511727D01*
X216166Y513737D01*
X213115Y515001D01*
X209842Y515432D01*
X206568Y515001D01*
X203517Y513737D01*
X200898Y511727D01*
X198888Y509108D01*
X198516Y508210D01*
X195767D01*
X195395Y509108D01*
X193385Y511727D01*
X190766Y513737D01*
X187715Y515001D01*
X184442Y515432D01*
X181168Y515001D01*
X178118Y513737D01*
X175498Y511727D01*
X173488Y509108D01*
X173116Y508210D01*
X170367D01*
X169995Y509108D01*
X167985Y511727D01*
X165366Y513737D01*
X162315Y515001D01*
X159042Y515432D01*
X155768Y515001D01*
X152718Y513737D01*
X150098Y511727D01*
X148088Y509108D01*
X146824Y506057D01*
X146393Y502783D01*
X146824Y499510D01*
X148088Y496459D01*
X150098Y493840D01*
X152718Y491830D01*
X155768Y490566D01*
X159042Y490135D01*
X162315Y490566D01*
X165366Y491830D01*
X167985Y493840D01*
X169995Y496459D01*
X170367Y497357D01*
X173116D01*
X173488Y496459D01*
X175498Y493840D01*
X178118Y491830D01*
X181168Y490566D01*
X184442Y490135D01*
X187715Y490566D01*
X190766Y491830D01*
X193385Y493840D01*
X195395Y496459D01*
X195767Y497357D01*
X198516D01*
X198888Y496459D01*
X200898Y493840D01*
X203517Y491830D01*
X206568Y490566D01*
X209842Y490135D01*
X213115Y490566D01*
X216166Y491830D01*
X218785Y493840D01*
X220795Y496459D01*
X221167Y497357D01*
X223916D01*
X224288Y496459D01*
X226298Y493840D01*
X228918Y491830D01*
X231968Y490566D01*
X235242Y490135D01*
X238515Y490566D01*
X241566Y491830D01*
X244185Y493840D01*
X246195Y496459D01*
X246567Y497357D01*
X249316D01*
X249688Y496459D01*
X251698Y493840D01*
X254317Y491830D01*
X257368Y490566D01*
X260642Y490135D01*
X263915Y490566D01*
X266966Y491830D01*
X269585Y493840D01*
X271595Y496459D01*
X271967Y497357D01*
X274716D01*
X275088Y496459D01*
X277098Y493840D01*
X279718Y491830D01*
X282768Y490566D01*
X286042Y490135D01*
X289315Y490566D01*
X292366Y491830D01*
X294985Y493840D01*
X296995Y496459D01*
X297367Y497357D01*
X300116D01*
X300488Y496459D01*
X302498Y493840D01*
X305117Y491830D01*
X308168Y490566D01*
X311442Y490135D01*
X314715Y490566D01*
X317766Y491830D01*
X320385Y493840D01*
X322395Y496459D01*
X322767Y497357D01*
X325516D01*
X325888Y496459D01*
X327898Y493840D01*
X330518Y491830D01*
X333568Y490566D01*
X336842Y490135D01*
X340115Y490566D01*
X343166Y491830D01*
X345785Y493840D01*
X347795Y496459D01*
X348167Y497357D01*
X350916D01*
X351288Y496459D01*
X353298Y493840D01*
X355918Y491830D01*
X358968Y490566D01*
X362242Y490135D01*
X365515Y490566D01*
X368566Y491830D01*
X371185Y493840D01*
X373195Y496459D01*
X373567Y497357D01*
X376316D01*
X376688Y496459D01*
X378698Y493840D01*
X381317Y491830D01*
X384368Y490566D01*
X387642Y490135D01*
X390915Y490566D01*
X393966Y491830D01*
X396585Y493840D01*
X398595Y496459D01*
X398967Y497357D01*
X401716D01*
X402088Y496459D01*
X404098Y493840D01*
X406717Y491830D01*
X409768Y490566D01*
X413042Y490135D01*
X416315Y490566D01*
X419366Y491830D01*
X421985Y493840D01*
X423995Y496459D01*
X424367Y497357D01*
X427116D01*
X427488Y496459D01*
X429498Y493840D01*
X432118Y491830D01*
X435168Y490566D01*
X438442Y490135D01*
X441715Y490566D01*
X444766Y491830D01*
X447385Y493840D01*
X449395Y496459D01*
X449767Y497357D01*
X452516D01*
X452888Y496459D01*
X454898Y493840D01*
X457518Y491830D01*
X460568Y490566D01*
X463842Y490135D01*
X467115Y490566D01*
X470166Y491830D01*
X472785Y493840D01*
X474795Y496459D01*
X475167Y497357D01*
X477916D01*
X478288Y496459D01*
X480298Y493840D01*
X482918Y491830D01*
X485357Y490819D01*
Y458258D01*
X485653Y456772D01*
X486495Y455512D01*
X497253Y444753D01*
X498513Y443911D01*
X500000Y443615D01*
X853391D01*
X861115Y435891D01*
Y405537D01*
X861411Y404051D01*
X862253Y402790D01*
X867791Y397253D01*
X869051Y396411D01*
X870537Y396115D01*
X941304D01*
X942791Y396411D01*
X944051Y397253D01*
X945539Y398741D01*
X946381Y400001D01*
X946677Y401488D01*
Y409227D01*
X948650Y410366D01*
X950426Y412142D01*
X951682Y414318D01*
X952332Y416744D01*
Y419256D01*
X951682Y421683D01*
X950426Y423858D01*
X948650Y425634D01*
X946474Y426890D01*
X944048Y427540D01*
X941536D01*
X939110Y426890D01*
X936934Y425634D01*
X935158Y423858D01*
X933902Y421683D01*
X933252Y419256D01*
Y416744D01*
X933902Y414318D01*
X935158Y412142D01*
X936934Y410366D01*
X938907Y409227D01*
Y403885D01*
X872147D01*
X868885Y407146D01*
Y437500D01*
X868589Y438987D01*
X867747Y440247D01*
X857747Y450247D01*
X856487Y451089D01*
X855000Y451385D01*
X501609D01*
X493126Y459868D01*
Y490819D01*
X495566Y491830D01*
X498185Y493840D01*
X500195Y496459D01*
X500567Y497357D01*
X503316D01*
X503688Y496459D01*
X505698Y493840D01*
X508317Y491830D01*
X511368Y490566D01*
X514642Y490135D01*
X517915Y490566D01*
X520966Y491830D01*
X523585Y493840D01*
X525595Y496459D01*
X525967Y497357D01*
X528716D01*
X529088Y496459D01*
X531098Y493840D01*
X533717Y491830D01*
X536768Y490566D01*
X540042Y490135D01*
X543315Y490566D01*
X546366Y491830D01*
X548985Y493840D01*
X550995Y496459D01*
X551367Y497357D01*
X554116D01*
X554488Y496459D01*
X556498Y493840D01*
X559118Y491830D01*
X562168Y490566D01*
X565442Y490135D01*
X568715Y490566D01*
X571766Y491830D01*
X574385Y493840D01*
X576395Y496459D01*
X576767Y497357D01*
X579516D01*
X579888Y496459D01*
X581898Y493840D01*
X584518Y491830D01*
X587568Y490566D01*
X590842Y490135D01*
X594115Y490566D01*
X597166Y491830D01*
X599785Y493840D01*
X601795Y496459D01*
X602294Y497663D01*
X605043D01*
X605542Y496459D01*
X607552Y493840D01*
X610172Y491830D01*
X613222Y490566D01*
X616496Y490135D01*
X619769Y490566D01*
X622820Y491830D01*
X625439Y493840D01*
X627449Y496459D01*
X628713Y499510D01*
X629144Y502783D01*
X628713Y506057D01*
X627449Y509108D01*
X625439Y511727D01*
X623552Y513175D01*
X624414Y515715D01*
X629600D01*
X631087Y516011D01*
X632347Y516853D01*
X685247Y569753D01*
X686089Y571013D01*
X686385Y572500D01*
Y580000D01*
X964664D01*
Y559731D01*
X951215Y546281D01*
X930912D01*
X930880Y546314D01*
X928510Y547682D01*
X925868Y548390D01*
X923132D01*
X920490Y547682D01*
X918120Y546314D01*
X916186Y544380D01*
X914818Y542010D01*
X914110Y539368D01*
Y536632D01*
X914818Y533990D01*
X916186Y531620D01*
X918120Y529686D01*
X920490Y528318D01*
X923132Y527610D01*
X925868D01*
X928510Y528318D01*
X928842Y528509D01*
X954895D01*
X956045Y528661D01*
X957195Y528812D01*
X959338Y529700D01*
X961179Y531112D01*
X979833Y549767D01*
X981245Y551607D01*
X982133Y553750D01*
X982436Y556050D01*
Y580000D01*
X1115687D01*
X1117466Y578187D01*
D02*
G37*
%LPC*%
G36*
X644060Y1088660D02*
X639620D01*
X635266Y1087794D01*
X631163Y1086095D01*
X627472Y1083628D01*
X624332Y1080488D01*
X621866Y1076796D01*
X620166Y1072694D01*
X619300Y1068340D01*
Y1063900D01*
X620166Y1059545D01*
X621866Y1055443D01*
X624332Y1051751D01*
X627472Y1048612D01*
X631163Y1046145D01*
X635266Y1044446D01*
X639620Y1043580D01*
X644060D01*
X648415Y1044446D01*
X652517Y1046145D01*
X656209Y1048612D01*
X659348Y1051751D01*
X661815Y1055443D01*
X663514Y1059545D01*
X664380Y1063900D01*
Y1068340D01*
X663514Y1072694D01*
X661815Y1076796D01*
X659348Y1080488D01*
X656209Y1083628D01*
X652517Y1086095D01*
X648415Y1087794D01*
X644060Y1088660D01*
D02*
G37*
G36*
X668890Y912100D02*
X665588D01*
X662399Y911245D01*
X659539Y909594D01*
X657205Y907260D01*
X655554Y904400D01*
X654699Y901211D01*
Y897909D01*
X655554Y894719D01*
X657205Y891860D01*
X659539Y889525D01*
X662399Y887874D01*
X665588Y887020D01*
X668890D01*
X672079Y887874D01*
X674939Y889525D01*
X677274Y891860D01*
X678925Y894719D01*
X679779Y897909D01*
Y901211D01*
X678925Y904400D01*
X677274Y907260D01*
X674939Y909594D01*
X672079Y911245D01*
X668890Y912100D01*
D02*
G37*
G36*
X628979D02*
X603899D01*
Y887020D01*
X628979D01*
Y912100D01*
D02*
G37*
G36*
X385760Y1088660D02*
X381320D01*
X376965Y1087794D01*
X372863Y1086095D01*
X369172Y1083628D01*
X366032Y1080488D01*
X363565Y1076796D01*
X361866Y1072694D01*
X361000Y1068340D01*
Y1063900D01*
X361866Y1059545D01*
X363565Y1055443D01*
X366032Y1051751D01*
X369172Y1048612D01*
X372863Y1046145D01*
X376965Y1044446D01*
X381320Y1043580D01*
X385760D01*
X390115Y1044446D01*
X394217Y1046145D01*
X397908Y1048612D01*
X401048Y1051751D01*
X403515Y1055443D01*
X405214Y1059545D01*
X406080Y1063900D01*
Y1068340D01*
X405214Y1072694D01*
X403515Y1076796D01*
X401048Y1080488D01*
X397908Y1083628D01*
X394217Y1086095D01*
X390115Y1087794D01*
X385760Y1088660D01*
D02*
G37*
G36*
X409321Y912100D02*
X406019D01*
X402830Y911245D01*
X399970Y909594D01*
X397635Y907260D01*
X395985Y904400D01*
X395130Y901211D01*
Y897909D01*
X395985Y894719D01*
X397635Y891860D01*
X399970Y889525D01*
X402830Y887874D01*
X406019Y887020D01*
X409321D01*
X412510Y887874D01*
X415370Y889525D01*
X417705Y891860D01*
X419355Y894719D01*
X420210Y897909D01*
Y901211D01*
X419355Y904400D01*
X417705Y907260D01*
X415370Y909594D01*
X412510Y911245D01*
X409321Y912100D01*
D02*
G37*
G36*
X369410D02*
X344330D01*
Y887020D01*
X369410D01*
Y912100D01*
D02*
G37*
G36*
X155890Y1088660D02*
X151450D01*
X147095Y1087794D01*
X142993Y1086095D01*
X139302Y1083628D01*
X136162Y1080488D01*
X133695Y1076796D01*
X131996Y1072694D01*
X131130Y1068340D01*
Y1063900D01*
X131996Y1059545D01*
X133695Y1055443D01*
X136162Y1051751D01*
X139302Y1048612D01*
X142993Y1046145D01*
X147095Y1044446D01*
X151450Y1043580D01*
X155890D01*
X160245Y1044446D01*
X164347Y1046145D01*
X168038Y1048612D01*
X171178Y1051751D01*
X173645Y1055443D01*
X175344Y1059545D01*
X176210Y1063900D01*
Y1068340D01*
X175344Y1072694D01*
X173645Y1076796D01*
X171178Y1080488D01*
X168038Y1083628D01*
X164347Y1086095D01*
X160245Y1087794D01*
X155890Y1088660D01*
D02*
G37*
G36*
X180721Y912100D02*
X177419D01*
X174230Y911246D01*
X171370Y909595D01*
X169035Y907260D01*
X167385Y904401D01*
X166530Y901211D01*
Y897909D01*
X167385Y894720D01*
X169035Y891861D01*
X171370Y889526D01*
X174230Y887875D01*
X177419Y887020D01*
X180721D01*
X183910Y887875D01*
X186770Y889526D01*
X189104Y891861D01*
X190755Y894720D01*
X191610Y897909D01*
Y901211D01*
X190755Y904401D01*
X189104Y907260D01*
X186770Y909595D01*
X183910Y911246D01*
X180721Y912100D01*
D02*
G37*
G36*
X140810D02*
X115730D01*
Y887020D01*
X140810D01*
Y912100D01*
D02*
G37*
G36*
X777540Y495540D02*
X758960D01*
Y476960D01*
X777540D01*
Y495540D01*
D02*
G37*
G36*
X747747D02*
X729167D01*
Y476960D01*
X747747D01*
Y495540D01*
D02*
G37*
G36*
X718497D02*
X699917D01*
Y476960D01*
X718497D01*
Y495540D01*
D02*
G37*
G36*
X1009973Y495040D02*
X1007527D01*
X1005164Y494407D01*
X1003046Y493184D01*
X1001317Y491454D01*
X1000093Y489336D01*
X999460Y486973D01*
Y484527D01*
X1000004Y482498D01*
X994753Y477247D01*
X993911Y475986D01*
X993615Y474500D01*
Y346609D01*
X965891Y318885D01*
X945049D01*
X943997Y321425D01*
X944614Y322041D01*
X945784Y324069D01*
X946390Y326330D01*
Y328670D01*
X945784Y330931D01*
X944614Y332959D01*
X942959Y334614D01*
X940931Y335784D01*
X938670Y336390D01*
X936330D01*
X934069Y335784D01*
X932041Y334614D01*
X930386Y332959D01*
X929477Y331385D01*
X866609D01*
X805247Y392747D01*
X803987Y393589D01*
X802500Y393885D01*
X796293D01*
X794851Y395327D01*
X793591Y396169D01*
X792104Y396465D01*
X677976D01*
X677114Y397959D01*
X675459Y399614D01*
X673431Y400784D01*
X671170Y401390D01*
X668830D01*
X666569Y400784D01*
X664541Y399614D01*
X662886Y397959D01*
X661716Y395931D01*
X661110Y393670D01*
Y391330D01*
X661716Y389069D01*
X662886Y387041D01*
X664541Y385386D01*
X666569Y384216D01*
X668830Y383610D01*
X668881D01*
X669215Y381070D01*
X668874Y380979D01*
X666847Y379808D01*
X665192Y378153D01*
X664021Y376126D01*
X663416Y373865D01*
Y371524D01*
X664021Y369263D01*
X665192Y367236D01*
X666847Y365581D01*
X668874Y364410D01*
X671135Y363805D01*
X673476D01*
X675737Y364410D01*
X677764Y365581D01*
X679419Y367236D01*
X680590Y369263D01*
X681196Y371524D01*
Y373865D01*
X680590Y376126D01*
X680008Y377133D01*
X686490Y383615D01*
X696725D01*
X697777Y381075D01*
X697191Y380489D01*
X696060Y378531D01*
X695475Y376346D01*
Y374084D01*
X696060Y371899D01*
X697191Y369940D01*
X698791Y368341D01*
X700750Y367210D01*
X702934Y366625D01*
X705196D01*
X707381Y367210D01*
X709340Y368341D01*
X710939Y369940D01*
X712070Y371899D01*
X712655Y374084D01*
Y376346D01*
X712070Y378531D01*
X710939Y380489D01*
X710353Y381075D01*
X711405Y383615D01*
X733068D01*
X734120Y381075D01*
X733534Y380489D01*
X732403Y378531D01*
X731817Y376346D01*
Y374084D01*
X732233Y372534D01*
X719753Y360054D01*
X718911Y358794D01*
X718615Y357307D01*
Y336609D01*
X708391Y326385D01*
X673023D01*
X672114Y327959D01*
X670459Y329614D01*
X668431Y330784D01*
X666170Y331390D01*
X663830D01*
X661569Y330784D01*
X661338Y330651D01*
X660646Y330843D01*
X658890Y332171D01*
Y333670D01*
X658284Y335931D01*
X657114Y337959D01*
X655459Y339614D01*
X653431Y340784D01*
X651170Y341390D01*
X648830D01*
X646569Y340784D01*
X644541Y339614D01*
X642886Y337959D01*
X641716Y335931D01*
X641110Y333670D01*
Y331330D01*
X641716Y329069D01*
X642886Y327041D01*
X644541Y325386D01*
X646115Y324478D01*
Y317500D01*
X646411Y316013D01*
X647253Y314753D01*
X652413Y309593D01*
X653673Y308751D01*
X655160Y308455D01*
X757340D01*
X758827Y308751D01*
X760087Y309593D01*
X765247Y314753D01*
X766089Y316013D01*
X766385Y317500D01*
Y346430D01*
X768925Y346764D01*
X768996Y346499D01*
X770126Y344540D01*
X771726Y342941D01*
X773685Y341810D01*
X775869Y341225D01*
X778131D01*
X780316Y341810D01*
X782275Y342941D01*
X783874Y344540D01*
X785005Y346499D01*
X785590Y348684D01*
Y350946D01*
X785005Y353130D01*
X783874Y355089D01*
X782275Y356689D01*
X780316Y357820D01*
X778131Y358405D01*
X775869D01*
X773685Y357820D01*
X771726Y356689D01*
X770126Y355089D01*
X768996Y353130D01*
X768925Y352866D01*
X766385Y353200D01*
Y368391D01*
X767465Y369471D01*
X770126Y369940D01*
X771726Y368341D01*
X773685Y367210D01*
X775869Y366625D01*
X778131D01*
X780316Y367210D01*
X782275Y368341D01*
X783874Y369940D01*
X785005Y371899D01*
X785590Y374084D01*
Y376346D01*
X785005Y378531D01*
X783874Y380489D01*
X783288Y381075D01*
X784340Y383615D01*
X788391D01*
X793615Y378391D01*
Y325000D01*
X793911Y323513D01*
X794753Y322253D01*
X804753Y312253D01*
X806013Y311411D01*
X807500Y311115D01*
X967500D01*
X968987Y311411D01*
X970247Y312253D01*
X1000247Y342253D01*
X1001089Y343513D01*
X1001385Y345000D01*
Y472891D01*
X1005498Y477004D01*
X1007527Y476460D01*
X1009973D01*
X1012336Y477093D01*
X1014454Y478316D01*
X1016184Y480046D01*
X1017407Y482164D01*
X1018040Y484527D01*
Y486973D01*
X1017407Y489336D01*
X1016184Y491454D01*
X1014454Y493184D01*
X1012336Y494407D01*
X1009973Y495040D01*
D02*
G37*
G36*
X928040D02*
X909460D01*
Y476460D01*
X928040D01*
Y495040D01*
D02*
G37*
G36*
X1055355Y492790D02*
X1052646D01*
X1050029Y492089D01*
X1047682Y490734D01*
X1045766Y488818D01*
X1044412Y486472D01*
X1043710Y483855D01*
Y481145D01*
X1044412Y478528D01*
X1045766Y476182D01*
X1047682Y474266D01*
X1050029Y472911D01*
X1052646Y472210D01*
X1055355D01*
X1057972Y472911D01*
X1060319Y474266D01*
X1062234Y476182D01*
X1063589Y478528D01*
X1064290Y481145D01*
Y483855D01*
X1063589Y486472D01*
X1062234Y488818D01*
X1060319Y490734D01*
X1057972Y492089D01*
X1055355Y492790D01*
D02*
G37*
G36*
X1088870Y427540D02*
X1069790D01*
Y408460D01*
X1088870D01*
Y427540D01*
D02*
G37*
G36*
X1055586D02*
X1053074D01*
X1050648Y426890D01*
X1048472Y425634D01*
X1046696Y423858D01*
X1045440Y421683D01*
X1044790Y419256D01*
Y416744D01*
X1045440Y414318D01*
X1046696Y412142D01*
X1048472Y410366D01*
X1050648Y409110D01*
X1053074Y408460D01*
X1055586D01*
X1058012Y409110D01*
X1060188Y410366D01*
X1061964Y412142D01*
X1063220Y414318D01*
X1063870Y416744D01*
Y419256D01*
X1063220Y421683D01*
X1061964Y423858D01*
X1060188Y425634D01*
X1058012Y426890D01*
X1055586Y427540D01*
D02*
G37*
G36*
X793670Y513890D02*
X791330D01*
X789069Y513284D01*
X787041Y512114D01*
X785386Y510459D01*
X784216Y508431D01*
X783610Y506170D01*
Y503830D01*
X784216Y501569D01*
X785386Y499541D01*
X787041Y497886D01*
X789069Y496716D01*
X791330Y496110D01*
X793670D01*
X795931Y496716D01*
X797959Y497886D01*
X799614Y499541D01*
X800523Y501115D01*
X858391D01*
X913907Y445599D01*
Y426773D01*
X911934Y425634D01*
X910158Y423858D01*
X908902Y421683D01*
X908252Y419256D01*
Y416744D01*
X908902Y414318D01*
X910158Y412142D01*
X911934Y410366D01*
X914110Y409110D01*
X916536Y408460D01*
X919048D01*
X921474Y409110D01*
X923650Y410366D01*
X925426Y412142D01*
X926682Y414318D01*
X927332Y416744D01*
Y419256D01*
X926682Y421683D01*
X925426Y423858D01*
X923650Y425634D01*
X921677Y426773D01*
Y447208D01*
X921381Y448695D01*
X920539Y449955D01*
X862747Y507747D01*
X861487Y508589D01*
X860000Y508885D01*
X800523D01*
X799614Y510459D01*
X797959Y512114D01*
X795931Y513284D01*
X793670Y513890D01*
D02*
G37*
G36*
X894048Y427540D02*
X891536D01*
X889110Y426890D01*
X886935Y425634D01*
X885158Y423858D01*
X883902Y421683D01*
X883252Y419256D01*
Y416744D01*
X883902Y414318D01*
X885158Y412142D01*
X886935Y410366D01*
X889110Y409110D01*
X891536Y408460D01*
X894048D01*
X896475Y409110D01*
X898650Y410366D01*
X900426Y412142D01*
X901682Y414318D01*
X902332Y416744D01*
Y419256D01*
X901682Y421683D01*
X900426Y423858D01*
X898650Y425634D01*
X896475Y426890D01*
X894048Y427540D01*
D02*
G37*
G36*
X838506Y427540D02*
X835994D01*
X833568Y426889D01*
X831392Y425634D01*
X829616Y423857D01*
X828360Y421682D01*
X827710Y419256D01*
Y416744D01*
X828360Y414317D01*
X829616Y412142D01*
X831392Y410366D01*
X833568Y409110D01*
X835994Y408460D01*
X838506D01*
X840932Y409110D01*
X843108Y410366D01*
X844884Y412142D01*
X846140Y414317D01*
X846790Y416744D01*
Y419256D01*
X846140Y421682D01*
X844884Y423857D01*
X843108Y425634D01*
X840932Y426889D01*
X838506Y427540D01*
D02*
G37*
G36*
X813506D02*
X810994D01*
X808568Y426889D01*
X806392Y425634D01*
X804616Y423857D01*
X803360Y421682D01*
X802710Y419256D01*
Y416744D01*
X803360Y414317D01*
X804616Y412142D01*
X806392Y410366D01*
X808568Y409110D01*
X810994Y408460D01*
X813506D01*
X815932Y409110D01*
X818108Y410366D01*
X819884Y412142D01*
X821140Y414317D01*
X821790Y416744D01*
Y419256D01*
X821140Y421682D01*
X819884Y423857D01*
X818108Y425634D01*
X815932Y426889D01*
X813506Y427540D01*
D02*
G37*
G36*
X763506D02*
X760994D01*
X758568Y426889D01*
X756392Y425634D01*
X754616Y423857D01*
X753360Y421682D01*
X752710Y419256D01*
Y416744D01*
X753360Y414317D01*
X754616Y412142D01*
X756392Y410366D01*
X758568Y409110D01*
X760994Y408460D01*
X763506D01*
X765932Y409110D01*
X768108Y410366D01*
X769884Y412142D01*
X771140Y414317D01*
X771790Y416744D01*
Y419256D01*
X771140Y421682D01*
X769884Y423857D01*
X768108Y425634D01*
X765932Y426889D01*
X763506Y427540D01*
D02*
G37*
G36*
X738506D02*
X735994D01*
X733567Y426889D01*
X731392Y425634D01*
X729616Y423857D01*
X728360Y421682D01*
X727710Y419256D01*
Y416744D01*
X728360Y414317D01*
X729616Y412142D01*
X731392Y410366D01*
X733567Y409110D01*
X735994Y408460D01*
X738506D01*
X740932Y409110D01*
X743107Y410366D01*
X744884Y412142D01*
X746140Y414317D01*
X746790Y416744D01*
Y419256D01*
X746140Y421682D01*
X744884Y423857D01*
X743107Y425634D01*
X740932Y426889D01*
X738506Y427540D01*
D02*
G37*
G36*
X721790D02*
X702710D01*
Y408460D01*
X721790D01*
Y427540D01*
D02*
G37*
G36*
X616350Y363286D02*
X613076Y362855D01*
X610026Y361591D01*
X607406Y359581D01*
X605396Y356962D01*
X605024Y356064D01*
X602275D01*
X601903Y356962D01*
X599893Y359581D01*
X597274Y361591D01*
X594223Y362855D01*
X590950Y363286D01*
X587676Y362855D01*
X584626Y361591D01*
X582006Y359581D01*
X579996Y356962D01*
X578733Y353911D01*
X578302Y350637D01*
X578733Y347364D01*
X579996Y344313D01*
X582006Y341694D01*
X584626Y339684D01*
X587676Y338420D01*
X590950Y337989D01*
X594223Y338420D01*
X597274Y339684D01*
X599893Y341694D01*
X601903Y344313D01*
X602275Y345211D01*
X605024D01*
X605396Y344313D01*
X607406Y341694D01*
X610026Y339684D01*
X613076Y338420D01*
X616350Y337989D01*
X619623Y338420D01*
X622674Y339684D01*
X625293Y341694D01*
X627303Y344313D01*
X628567Y347364D01*
X628998Y350637D01*
X628567Y353911D01*
X627303Y356962D01*
X625293Y359581D01*
X622674Y361591D01*
X619623Y362855D01*
X616350Y363286D01*
D02*
G37*
G36*
X540150D02*
X536876Y362855D01*
X533826Y361591D01*
X531206Y359581D01*
X529196Y356962D01*
X528824Y356064D01*
X526075D01*
X525703Y356962D01*
X523693Y359581D01*
X521074Y361591D01*
X518023Y362855D01*
X514750Y363286D01*
X511476Y362855D01*
X508426Y361591D01*
X505806Y359581D01*
X503796Y356962D01*
X503424Y356064D01*
X500675D01*
X500303Y356962D01*
X498293Y359581D01*
X495674Y361591D01*
X492623Y362855D01*
X489350Y363286D01*
X486076Y362855D01*
X483026Y361591D01*
X480406Y359581D01*
X478396Y356962D01*
X478024Y356064D01*
X475275D01*
X474903Y356962D01*
X472893Y359581D01*
X470274Y361591D01*
X467223Y362855D01*
X463950Y363286D01*
X460676Y362855D01*
X457626Y361591D01*
X455006Y359581D01*
X452996Y356962D01*
X452624Y356064D01*
X449875D01*
X449503Y356962D01*
X447493Y359581D01*
X444874Y361591D01*
X441823Y362855D01*
X438550Y363286D01*
X435276Y362855D01*
X432226Y361591D01*
X429606Y359581D01*
X427596Y356962D01*
X427224Y356064D01*
X424475D01*
X424103Y356962D01*
X422093Y359581D01*
X419474Y361591D01*
X416423Y362855D01*
X413150Y363286D01*
X409876Y362855D01*
X406826Y361591D01*
X404206Y359581D01*
X402196Y356962D01*
X401824Y356064D01*
X399075D01*
X398703Y356962D01*
X396693Y359581D01*
X394074Y361591D01*
X391023Y362855D01*
X387750Y363286D01*
X384476Y362855D01*
X381426Y361591D01*
X378806Y359581D01*
X376796Y356962D01*
X376424Y356064D01*
X373675D01*
X373303Y356962D01*
X371293Y359581D01*
X368674Y361591D01*
X365623Y362855D01*
X362350Y363286D01*
X359076Y362855D01*
X356026Y361591D01*
X353406Y359581D01*
X351396Y356962D01*
X351024Y356064D01*
X348275D01*
X347903Y356962D01*
X345893Y359581D01*
X343274Y361591D01*
X340223Y362855D01*
X336950Y363286D01*
X333676Y362855D01*
X330626Y361591D01*
X328006Y359581D01*
X325996Y356962D01*
X325624Y356064D01*
X322875D01*
X322503Y356962D01*
X320493Y359581D01*
X317874Y361591D01*
X314823Y362855D01*
X311550Y363286D01*
X308276Y362855D01*
X305226Y361591D01*
X302606Y359581D01*
X300596Y356962D01*
X300224Y356064D01*
X297475D01*
X297103Y356962D01*
X295093Y359581D01*
X292474Y361591D01*
X289423Y362855D01*
X286150Y363286D01*
X282876Y362855D01*
X279826Y361591D01*
X277206Y359581D01*
X275196Y356962D01*
X274824Y356064D01*
X272075D01*
X271703Y356962D01*
X269693Y359581D01*
X267074Y361591D01*
X264023Y362855D01*
X260750Y363286D01*
X257476Y362855D01*
X254426Y361591D01*
X251806Y359581D01*
X249796Y356962D01*
X249424Y356064D01*
X246675D01*
X246303Y356962D01*
X244293Y359581D01*
X241674Y361591D01*
X238623Y362855D01*
X235350Y363286D01*
X232076Y362855D01*
X229026Y361591D01*
X226406Y359581D01*
X224396Y356962D01*
X224024Y356064D01*
X221275D01*
X220903Y356962D01*
X218893Y359581D01*
X216274Y361591D01*
X213223Y362855D01*
X209950Y363286D01*
X206676Y362855D01*
X203626Y361591D01*
X201006Y359581D01*
X198996Y356962D01*
X198624Y356064D01*
X195875D01*
X195503Y356962D01*
X193493Y359581D01*
X190874Y361591D01*
X187823Y362855D01*
X184550Y363286D01*
X181276Y362855D01*
X178226Y361591D01*
X175606Y359581D01*
X173596Y356962D01*
X173224Y356064D01*
X170475D01*
X170103Y356962D01*
X168093Y359581D01*
X165474Y361591D01*
X162423Y362855D01*
X159150Y363286D01*
X155876Y362855D01*
X152826Y361591D01*
X150206Y359581D01*
X148196Y356962D01*
X147824Y356064D01*
X145075D01*
X144703Y356962D01*
X142693Y359581D01*
X140074Y361591D01*
X137023Y362855D01*
X133750Y363286D01*
X130476Y362855D01*
X127426Y361591D01*
X124806Y359581D01*
X122796Y356962D01*
X121533Y353911D01*
X121102Y350637D01*
X121533Y347364D01*
X122796Y344313D01*
X124806Y341694D01*
X127426Y339684D01*
X130476Y338420D01*
X133750Y337989D01*
X137023Y338420D01*
X140074Y339684D01*
X142693Y341694D01*
X144703Y344313D01*
X145075Y345211D01*
X147824D01*
X148196Y344313D01*
X150206Y341694D01*
X152826Y339684D01*
X155876Y338420D01*
X159150Y337989D01*
X162423Y338420D01*
X165474Y339684D01*
X168093Y341694D01*
X170103Y344313D01*
X170475Y345211D01*
X173224D01*
X173596Y344313D01*
X175606Y341694D01*
X178226Y339684D01*
X181276Y338420D01*
X184550Y337989D01*
X187823Y338420D01*
X190874Y339684D01*
X193493Y341694D01*
X195503Y344313D01*
X195875Y345211D01*
X198624D01*
X198996Y344313D01*
X201006Y341694D01*
X203626Y339684D01*
X206676Y338420D01*
X209950Y337989D01*
X213223Y338420D01*
X216274Y339684D01*
X218893Y341694D01*
X220903Y344313D01*
X221275Y345211D01*
X224024D01*
X224396Y344313D01*
X226406Y341694D01*
X229026Y339684D01*
X232076Y338420D01*
X235350Y337989D01*
X238623Y338420D01*
X241674Y339684D01*
X244293Y341694D01*
X246303Y344313D01*
X246675Y345211D01*
X249424D01*
X249796Y344313D01*
X251806Y341694D01*
X254426Y339684D01*
X257476Y338420D01*
X260750Y337989D01*
X264023Y338420D01*
X267074Y339684D01*
X269693Y341694D01*
X271703Y344313D01*
X272075Y345211D01*
X274824D01*
X275196Y344313D01*
X277206Y341694D01*
X279826Y339684D01*
X282876Y338420D01*
X286150Y337989D01*
X289423Y338420D01*
X292474Y339684D01*
X295093Y341694D01*
X297103Y344313D01*
X297475Y345211D01*
X300224D01*
X300596Y344313D01*
X302606Y341694D01*
X305226Y339684D01*
X308276Y338420D01*
X311550Y337989D01*
X314823Y338420D01*
X317874Y339684D01*
X320493Y341694D01*
X322503Y344313D01*
X322875Y345211D01*
X325624D01*
X325996Y344313D01*
X328006Y341694D01*
X330626Y339684D01*
X333676Y338420D01*
X336950Y337989D01*
X340223Y338420D01*
X343274Y339684D01*
X345893Y341694D01*
X347903Y344313D01*
X348275Y345211D01*
X351024D01*
X351396Y344313D01*
X353406Y341694D01*
X356026Y339684D01*
X359076Y338420D01*
X362350Y337989D01*
X365623Y338420D01*
X368674Y339684D01*
X371293Y341694D01*
X373303Y344313D01*
X373675Y345211D01*
X376424D01*
X376796Y344313D01*
X378806Y341694D01*
X381426Y339684D01*
X384476Y338420D01*
X387750Y337989D01*
X391023Y338420D01*
X394074Y339684D01*
X396693Y341694D01*
X398703Y344313D01*
X399075Y345211D01*
X401824D01*
X402196Y344313D01*
X404206Y341694D01*
X406826Y339684D01*
X409876Y338420D01*
X413150Y337989D01*
X416423Y338420D01*
X419474Y339684D01*
X422093Y341694D01*
X424103Y344313D01*
X424475Y345211D01*
X427224D01*
X427596Y344313D01*
X429606Y341694D01*
X432226Y339684D01*
X435276Y338420D01*
X438550Y337989D01*
X441823Y338420D01*
X444874Y339684D01*
X447493Y341694D01*
X449503Y344313D01*
X449875Y345211D01*
X452624D01*
X452996Y344313D01*
X455006Y341694D01*
X457626Y339684D01*
X460676Y338420D01*
X463950Y337989D01*
X467223Y338420D01*
X470274Y339684D01*
X472893Y341694D01*
X474903Y344313D01*
X475275Y345211D01*
X478024D01*
X478396Y344313D01*
X480406Y341694D01*
X483026Y339684D01*
X486076Y338420D01*
X489350Y337989D01*
X492623Y338420D01*
X495674Y339684D01*
X498293Y341694D01*
X500303Y344313D01*
X500675Y345211D01*
X503424D01*
X503796Y344313D01*
X505806Y341694D01*
X508426Y339684D01*
X511476Y338420D01*
X514750Y337989D01*
X518023Y338420D01*
X521074Y339684D01*
X523693Y341694D01*
X525703Y344313D01*
X526075Y345211D01*
X528824D01*
X529196Y344313D01*
X531206Y341694D01*
X533826Y339684D01*
X536876Y338420D01*
X540150Y337989D01*
X543423Y338420D01*
X546474Y339684D01*
X549093Y341694D01*
X551103Y344313D01*
X552367Y347364D01*
X552798Y350637D01*
X552367Y353911D01*
X551103Y356962D01*
X549093Y359581D01*
X546474Y361591D01*
X543423Y362855D01*
X540150Y363286D01*
D02*
G37*
G36*
X705196Y358405D02*
X702934D01*
X700750Y357820D01*
X698791Y356689D01*
X697191Y355089D01*
X696060Y353130D01*
X695475Y350946D01*
Y348684D01*
X696060Y346499D01*
X697191Y344540D01*
X698791Y342941D01*
X700750Y341810D01*
X702934Y341225D01*
X705196D01*
X707381Y341810D01*
X709340Y342941D01*
X710939Y344540D01*
X712070Y346499D01*
X712655Y348684D01*
Y350946D01*
X712070Y353130D01*
X710939Y355089D01*
X709340Y356689D01*
X707381Y357820D01*
X705196Y358405D01*
D02*
G37*
%LPD*%
D12*
X235000Y532500D02*
X267500D01*
X205000Y562500D02*
X235000Y532500D01*
X267500D02*
X274920Y539920D01*
X257500Y545000D02*
X365947D01*
X710000Y322500D02*
X722500Y335000D01*
X655160Y312340D02*
X757340D01*
X762500Y317500D01*
X665000Y322500D02*
X710000D01*
X650000Y317500D02*
X655160Y312340D01*
X443610Y606390D02*
X463890D01*
X465000Y607500D01*
X442500D02*
X443610Y606390D01*
X442500Y590000D02*
X442620Y589880D01*
X464880D01*
X1057150Y722850D02*
X1057500Y722500D01*
X1040450Y722850D02*
X1057150D01*
X45000Y730000D02*
X75000D01*
X285240Y530000D02*
X317409D01*
X285000Y529760D02*
X285240Y530000D01*
X343856Y534186D02*
X362317D01*
X350822Y519600D02*
X629600D01*
X330816Y516593D02*
X347816D01*
X349038Y525000D02*
X360000D01*
X332920Y521673D02*
X345712D01*
X341930Y532260D02*
X343856Y534186D01*
X347816Y516593D02*
X350822Y519600D01*
X345712Y521673D02*
X349038Y525000D01*
X362317Y534186D02*
X368292Y540160D01*
X629600Y519600D02*
X682500Y572500D01*
X360000Y525000D02*
X364106Y529106D01*
X647420Y544920D02*
X665000Y562500D01*
X408687Y534760D02*
X455000D01*
X445712Y539840D02*
X450792Y544920D01*
X647420D01*
X403287Y540160D02*
X408687Y534760D01*
X368292Y540160D02*
X403287D01*
X410792Y539840D02*
X445712D01*
X366187Y545240D02*
X405392D01*
X410792Y539840D01*
X665000Y562500D02*
Y580000D01*
X865000Y405537D02*
Y437500D01*
X855000Y447500D02*
X865000Y437500D01*
X500000Y447500D02*
X855000D01*
X865000Y405537D02*
X870537Y400000D01*
X941304D01*
X792500Y505000D02*
X860000D01*
X917792Y447208D01*
Y418000D02*
Y447208D01*
X941304Y400000D02*
X942792Y401488D01*
Y418000D01*
X489242Y458258D02*
Y502783D01*
Y458258D02*
X500000Y447500D01*
X95000Y525000D02*
X180000D01*
X190000Y535000D01*
Y582500D01*
Y600000D02*
X201012D01*
X314673Y539920D02*
X332920Y521673D01*
X364106Y529106D02*
X371606D01*
X372500Y530000D01*
X317409D02*
X330816Y516593D01*
X365947Y545000D02*
X366187Y545240D01*
X274920Y539920D02*
X314673D01*
X201012Y600000D02*
X205000Y596012D01*
Y562500D02*
Y596012D01*
X464880Y589880D02*
X465000Y589760D01*
X677018Y600482D02*
X682500Y595000D01*
X657018Y600482D02*
X677018D01*
X682500Y572500D02*
Y595000D01*
X684881Y387500D02*
X790000D01*
X672306Y374924D02*
X684881Y387500D01*
X672306Y372695D02*
Y374924D01*
X670000Y392500D02*
X670080Y392580D01*
X792104D01*
X794684Y390000D01*
X802500D01*
X790000Y387500D02*
X797500Y380000D01*
X802500Y390000D02*
X865000Y327500D01*
X937500D01*
X797500Y325000D02*
Y380000D01*
Y325000D02*
X807500Y315000D01*
X762500Y317500D02*
Y370000D01*
X807500Y315000D02*
X967500D01*
X767715Y375215D02*
X777000D01*
X762500Y370000D02*
X767715Y375215D01*
X967500Y315000D02*
X997500Y345000D01*
Y474500D01*
X1008750Y485750D01*
X650000Y317500D02*
Y332500D01*
X722500Y335000D02*
Y357307D01*
X740407Y375215D01*
D13*
X973550Y745750D02*
D03*
D14*
X1040450Y768650D02*
D03*
Y745750D02*
D03*
Y722850D02*
D03*
D17*
X1087500Y725000D02*
D03*
X930000Y725000D02*
D03*
X27500Y607500D02*
D03*
X325250Y608000D02*
D03*
X497500Y607500D02*
D03*
X277500Y608000D02*
D03*
X543500Y608250D02*
D03*
X82500Y607500D02*
D03*
X1124750Y677000D02*
D03*
D18*
X1087500Y775000D02*
D03*
X930000Y775000D02*
D03*
X27500Y557500D02*
D03*
X325250Y558000D02*
D03*
X497500Y557500D02*
D03*
X277500Y558000D02*
D03*
X543500Y558250D02*
D03*
X82500Y557500D02*
D03*
D21*
X382270Y831100D02*
D03*
X356870D02*
D03*
X382270Y899560D02*
D03*
X407670D02*
D03*
X641839D02*
D03*
X667239D02*
D03*
X641839Y831100D02*
D03*
X616439D02*
D03*
X179070Y899560D02*
D03*
X153670D02*
D03*
X127807Y831101D02*
D03*
X153207D02*
D03*
D22*
X407670Y831100D02*
D03*
X356870Y899560D02*
D03*
X616439D02*
D03*
X667239Y831100D02*
D03*
X128270Y899560D02*
D03*
X178607Y831101D02*
D03*
D23*
X823250Y732150D02*
D03*
Y831350D02*
D03*
X857250Y732150D02*
D03*
D24*
Y831350D02*
D03*
D26*
X924500Y538000D02*
D03*
X1162700Y637500D02*
D03*
D27*
X899100Y538000D02*
D03*
X1137300Y637500D02*
D03*
D28*
X1029330Y418000D02*
D03*
X1054330D02*
D03*
X917792D02*
D03*
X892792D02*
D03*
X942792D02*
D03*
X737250Y418000D02*
D03*
X762250D02*
D03*
X787250D02*
D03*
X812250D02*
D03*
X837250D02*
D03*
D29*
X1079330Y418000D02*
D03*
X967792D02*
D03*
X712250Y418000D02*
D03*
D33*
X1174750Y677000D02*
D03*
D36*
X1054000Y482500D02*
D03*
D37*
X1079000D02*
D03*
D41*
X155000Y1155000D02*
D03*
X377500Y687500D02*
D03*
X640458Y686476D02*
D03*
X147500Y687500D02*
D03*
X385000Y1155000D02*
D03*
X640000Y1150000D02*
D03*
X1018001Y1140216D02*
D03*
X855000Y1140000D02*
D03*
D42*
X415000Y550000D02*
X442500D01*
X450000Y557500D01*
X497500D01*
X1087500Y775000D02*
X1105000D01*
X1072500D02*
X1087500D01*
X1066150Y768650D02*
X1072500Y775000D01*
X1040450Y768650D02*
X1066150D01*
X1105000Y775000D02*
X1135000Y745000D01*
X1175000D01*
X1174750Y677000D02*
X1174875Y677125D01*
D43*
X954895Y537395D02*
X973550Y556050D01*
X925105Y537395D02*
X954895D01*
X937346Y746666D02*
X973550D01*
X924500Y538000D02*
X925105Y537395D01*
X973550Y556050D02*
Y745750D01*
X930000Y754012D02*
Y775000D01*
Y754012D02*
X937346Y746666D01*
X973550Y745750D02*
X1040450D01*
D44*
X27512Y449990D02*
X20015Y442493D01*
Y427498D01*
X27512Y420000D01*
X35010D01*
X42507Y427498D01*
Y442493D01*
X50005Y449990D01*
X57502D01*
X65000Y442493D01*
Y427498D01*
X57502Y420000D01*
X20015Y494976D02*
Y464986D01*
X65000D01*
Y494976D01*
X42507Y464986D02*
Y479981D01*
X65000Y509971D02*
X20015D01*
X35010Y524966D01*
X20015Y539961D01*
X65000D01*
D45*
X472500Y874550D02*
D03*
Y1009450D02*
D03*
X737270Y773920D02*
D03*
Y639020D02*
D03*
X243250Y774950D02*
D03*
Y640050D02*
D03*
Y1008700D02*
D03*
Y873800D02*
D03*
X737270Y1008700D02*
D03*
Y873800D02*
D03*
X472500Y775920D02*
D03*
Y641020D02*
D03*
D46*
X209842Y502783D02*
D03*
X184442D02*
D03*
X133642D02*
D03*
X235242D02*
D03*
X159042D02*
D03*
X260642D02*
D03*
X514750Y350637D02*
D03*
X616350D02*
D03*
X540150D02*
D03*
X565550D02*
D03*
X590950D02*
D03*
X489350D02*
D03*
X463950D02*
D03*
X413150D02*
D03*
X387750D02*
D03*
X362350D02*
D03*
X438550D02*
D03*
X336950D02*
D03*
X286150D02*
D03*
X133750D02*
D03*
X159150D02*
D03*
X184550D02*
D03*
X209950D02*
D03*
X311550D02*
D03*
X235350D02*
D03*
X260750D02*
D03*
X514642Y502783D02*
D03*
X616496D02*
D03*
X540042D02*
D03*
X565442D02*
D03*
X590842D02*
D03*
X489242D02*
D03*
X362242D02*
D03*
X286042D02*
D03*
X311442D02*
D03*
X336842D02*
D03*
X387642D02*
D03*
X413042D02*
D03*
X438442D02*
D03*
X463842D02*
D03*
D47*
X304750Y770250D02*
D03*
X768250Y486250D02*
D03*
X738457D02*
D03*
X709207D02*
D03*
X563000Y943000D02*
D03*
X532500Y943250D02*
D03*
X315750Y943000D02*
D03*
X286707D02*
D03*
X68750Y766500D02*
D03*
X37000Y943000D02*
D03*
X67500D02*
D03*
X544750Y770250D02*
D03*
D48*
X304750Y860250D02*
D03*
X1008750Y485750D02*
D03*
X768250Y576250D02*
D03*
X738457D02*
D03*
X709207D02*
D03*
X563000Y1033000D02*
D03*
X532500Y1033250D02*
D03*
X315750Y1033000D02*
D03*
X286707D02*
D03*
X68750Y856500D02*
D03*
X37000Y1033000D02*
D03*
X67500D02*
D03*
X544750Y860250D02*
D03*
D49*
X918750Y485750D02*
D03*
D50*
X777000Y349815D02*
D03*
Y375215D02*
D03*
X704065Y349815D02*
D03*
Y375215D02*
D03*
X740407D02*
D03*
Y349815D02*
D03*
D51*
X1175000Y745000D02*
D03*
D52*
Y795000D02*
D03*
D53*
X944500Y1001192D02*
D03*
Y926193D02*
D03*
X1134000Y926000D02*
D03*
Y1001000D02*
D03*
D54*
X153670Y1066120D02*
D03*
X383540D02*
D03*
X641840D02*
D03*
D55*
X47500Y1153470D02*
D03*
Y376500D02*
D03*
X1155000D02*
D03*
X1144770Y1153470D02*
D03*
D56*
X257500Y545000D02*
D03*
X577500Y805000D02*
D03*
X665000Y322500D02*
D03*
X465000Y607500D02*
D03*
X442500D02*
D03*
Y590000D02*
D03*
X1057500Y722500D02*
D03*
X75000Y730000D02*
D03*
X285000Y529760D02*
D03*
X341930Y532260D02*
D03*
X455000Y534760D02*
D03*
X415000Y550000D02*
D03*
X665000Y580000D02*
D03*
X792500Y505000D02*
D03*
X95000Y525000D02*
D03*
X190000Y582500D02*
D03*
Y600000D02*
D03*
X372500Y530000D02*
D03*
X465000Y589760D02*
D03*
X657018Y600482D02*
D03*
X670000Y392500D02*
D03*
X672306Y372695D02*
D03*
X937500Y327500D02*
D03*
X650000Y332500D02*
D03*
X45000Y730000D02*
D03*
D57*
X990000Y1117500D02*
D03*
X1015000D02*
D03*
X1040000D02*
D03*
X1065000D02*
D03*
Y1092500D02*
D03*
X1040000D02*
D03*
X1015000D02*
D03*
X990000D02*
D03*
X965000Y1117500D02*
D03*
Y1092500D02*
D03*
Y1142500D02*
D03*
X990000D02*
D03*
Y1167500D02*
D03*
X965000D02*
D03*
X990000Y1192500D02*
D03*
X965000D02*
D03*
X1065000Y1142500D02*
D03*
X1040000D02*
D03*
X1015000D02*
D03*
Y1167500D02*
D03*
X1040000D02*
D03*
X1065000D02*
D03*
Y1192500D02*
D03*
X1040000D02*
D03*
X1015000D02*
D03*
X855000Y1190000D02*
D03*
X880000D02*
D03*
X905000D02*
D03*
Y1165000D02*
D03*
X880000D02*
D03*
X855000D02*
D03*
Y1140000D02*
D03*
X880000D02*
D03*
X905000D02*
D03*
X805000Y1190000D02*
D03*
X830000D02*
D03*
X805000Y1165000D02*
D03*
X830000D02*
D03*
Y1140000D02*
D03*
X805000D02*
D03*
Y1090000D02*
D03*
Y1115000D02*
D03*
X830000Y1090000D02*
D03*
X855000D02*
D03*
X880000D02*
D03*
X905000D02*
D03*
Y1115000D02*
D03*
X880000D02*
D03*
X855000D02*
D03*
X830000D02*
D03*
X795000Y670000D02*
D03*
X820000D02*
D03*
X845000D02*
D03*
X870000D02*
D03*
Y645000D02*
D03*
X845000D02*
D03*
X820000D02*
D03*
X795000D02*
D03*
Y620000D02*
D03*
X820000D02*
D03*
X845000D02*
D03*
X870000D02*
D03*
X770000Y670000D02*
D03*
Y645000D02*
D03*
Y620000D02*
D03*
Y695000D02*
D03*
X795000D02*
D03*
Y720000D02*
D03*
X770000D02*
D03*
X795000Y745000D02*
D03*
X770000D02*
D03*
M02*
