G04*
G04 #@! TF.GenerationSoftware,Altium Limited,Altium Designer,24.8.2 (39)*
G04*
G04 Layer_Color=0*
%FSLAX44Y44*%
%MOMM*%
G71*
G04*
G04 #@! TF.SameCoordinates,2ADF9C04-DE7E-4385-BC50-A77D5B0DFB63*
G04*
G04*
G04 #@! TF.FilePolarity,Positive*
G04*
G01*
G75*
%ADD62C,0.1000*%
%ADD63C,0.0500*%
D62*
X1007000Y740750D02*
Y750750D01*
X1002000Y745750D02*
X1012000D01*
X1082500Y750000D02*
X1092500D01*
X1087500Y745000D02*
Y755000D01*
X930000Y745000D02*
Y755000D01*
X925000Y750000D02*
X935000D01*
X377270Y825000D02*
X387270D01*
X382270Y820000D02*
Y830000D01*
X835250Y781750D02*
X845250D01*
X840250Y776750D02*
Y786750D01*
X22500Y582500D02*
X32500D01*
X27500Y577500D02*
Y587500D01*
X325250Y578000D02*
Y588000D01*
X320250Y583000D02*
X330250D01*
X492500Y582500D02*
X502500D01*
X497500Y577500D02*
Y587500D01*
X277500Y578000D02*
Y588000D01*
X272500Y583000D02*
X282500D01*
X543500Y578250D02*
Y588250D01*
X538500Y583250D02*
X548500D01*
X82500Y577500D02*
Y587500D01*
X77500Y582500D02*
X87500D01*
X911800Y533000D02*
Y543000D01*
X906800Y538000D02*
X916800D01*
X1054330Y418251D02*
Y428251D01*
X1049330Y423250D02*
X1059330D01*
X930292Y418250D02*
Y428250D01*
X925292Y423250D02*
X935292D01*
X769750Y423250D02*
X779750D01*
X774750Y418250D02*
Y428250D01*
X377270Y905660D02*
X387270D01*
X382270Y900660D02*
Y910660D01*
X641839Y900660D02*
Y910660D01*
X636839Y905660D02*
X646839D01*
X641839Y820000D02*
Y830000D01*
X636839Y825000D02*
X646839D01*
X148670Y905660D02*
X158670D01*
X153670Y900661D02*
Y910661D01*
X148207Y825001D02*
X158207D01*
X153207Y820001D02*
Y830001D01*
X1144750Y677000D02*
X1154750D01*
X1149750Y672000D02*
Y682000D01*
X1150000Y632500D02*
Y642500D01*
X1145000Y637500D02*
X1155000D01*
X1066500Y482750D02*
Y492750D01*
X1061500Y487750D02*
X1071500D01*
D63*
X1170500Y765000D02*
Y775000D01*
X1165500Y770000D02*
X1175500D01*
M02*
