G04*
G04 #@! TF.GenerationSoftware,Altium Limited,Altium Designer,24.8.2 (39)*
G04*
G04 Layer_Color=8421504*
%FSLAX44Y44*%
%MOMM*%
G71*
G04*
G04 #@! TF.SameCoordinates,2ADF9C04-DE7E-4385-BC50-A77D5B0DFB63*
G04*
G04*
G04 #@! TF.FilePolarity,Positive*
G04*
G01*
G75*
%ADD13R,2.5400X6.0960*%
%ADD14R,2.0320X1.5240*%
G36*
X87500Y627500D02*
Y747500D01*
X207500D01*
Y627500D01*
X87500D01*
D02*
G37*
G36*
X317500D02*
Y747500D01*
X437500D01*
Y627500D01*
X317500D01*
D02*
G37*
G36*
X105000Y1095000D02*
Y1215000D01*
X205000D01*
Y1095000D01*
X105000D01*
D02*
G37*
G36*
X335000D02*
Y1215000D01*
X435000D01*
Y1095000D01*
X335000D01*
D02*
G37*
G36*
X690000Y1090000D02*
X590000D01*
Y1210000D01*
X690000D01*
Y1090000D01*
D02*
G37*
G36*
X1078001Y1080216D02*
X958001D01*
Y1200216D01*
X1078001D01*
Y1080216D01*
D02*
G37*
G36*
X915000Y1080000D02*
X795000D01*
Y1200000D01*
X915000D01*
Y1080000D01*
D02*
G37*
G36*
X700458Y626476D02*
X580458D01*
Y746476D01*
X700458D01*
Y626476D01*
D02*
G37*
D13*
X973550Y745750D02*
D03*
D14*
X1040450Y768650D02*
D03*
Y745750D02*
D03*
Y722850D02*
D03*
M02*
