G04*
G04 #@! TF.GenerationSoftware,Altium Limited,Altium Designer,24.8.2 (39)*
G04*
G04 Layer_Physical_Order=2*
G04 Layer_Color=16711680*
%FSLAX44Y44*%
%MOMM*%
G71*
G04*
G04 #@! TF.SameCoordinates,2ADF9C04-DE7E-4385-BC50-A77D5B0DFB63*
G04*
G04*
G04 #@! TF.FilePolarity,Positive*
G04*
G01*
G75*
%ADD12C,0.2540*%
%ADD17C,1.2000*%
%ADD18R,1.2000X1.2000*%
%ADD21C,2.0000*%
%ADD22R,2.0000X2.0000*%
%ADD23C,2.4500*%
%ADD24R,2.4500X2.4500*%
%ADD26C,1.5700*%
%ADD27R,1.5700X1.5700*%
%ADD28C,1.4000*%
%ADD29R,1.4000X1.4000*%
%ADD33R,1.2000X1.2000*%
%ADD36C,1.5500*%
%ADD37R,1.5500X1.5500*%
%ADD42C,1.0000*%
%ADD44C,0.5000*%
%ADD45C,3.0000*%
%ADD46O,2.0000X2.0000*%
%ADD47R,1.3500X1.3500*%
%ADD48C,1.3500*%
%ADD49R,1.3500X1.3500*%
%ADD50C,1.2100*%
G04:AMPARAMS|DCode=51|XSize=1.95mm|YSize=1.95mm|CornerRadius=0.4875mm|HoleSize=0mm|Usage=FLASHONLY|Rotation=90.000|XOffset=0mm|YOffset=0mm|HoleType=Round|Shape=RoundedRectangle|*
%AMROUNDEDRECTD51*
21,1,1.9500,0.9750,0,0,90.0*
21,1,0.9750,1.9500,0,0,90.0*
1,1,0.9750,0.4875,0.4875*
1,1,0.9750,0.4875,-0.4875*
1,1,0.9750,-0.4875,-0.4875*
1,1,0.9750,-0.4875,0.4875*
%
%ADD51ROUNDEDRECTD51*%
%ADD52C,1.9500*%
%ADD53O,2.4000X1.6000*%
%ADD54C,4.0000*%
%ADD55C,6.0000*%
%ADD56C,1.2700*%
%ADD57C,0.7500*%
G04:AMPARAMS|DCode=58|XSize=1.4946mm|YSize=0.5449mm|CornerRadius=0.2725mm|HoleSize=0mm|Usage=FLASHONLY|Rotation=180.000|XOffset=0mm|YOffset=0mm|HoleType=Round|Shape=RoundedRectangle|*
%AMROUNDEDRECTD58*
21,1,1.4946,0.0000,0,0,180.0*
21,1,0.9497,0.5449,0,0,180.0*
1,1,0.5449,-0.4749,0.0000*
1,1,0.5449,0.4749,0.0000*
1,1,0.5449,0.4749,0.0000*
1,1,0.5449,-0.4749,0.0000*
%
%ADD58ROUNDEDRECTD58*%
%ADD59R,1.4946X0.5449*%
%ADD60C,6.0000*%
G36*
X1117831Y1220966D02*
X1127453Y1219416D01*
X1136920Y1217104D01*
X1146172Y1214043D01*
X1155150Y1210254D01*
X1163798Y1205760D01*
X1172059Y1200591D01*
X1179882Y1194779D01*
X1187216Y1188362D01*
X1194015Y1181379D01*
X1200235Y1173877D01*
X1205836Y1165902D01*
X1210783Y1157506D01*
X1215045Y1148742D01*
X1218593Y1139665D01*
X1220000Y1135000D01*
X1220000D01*
X1220000Y1135000D01*
X1220000Y410718D01*
Y406497D01*
X1219338Y398082D01*
X1218017Y389745D01*
X1216047Y381537D01*
X1213438Y373509D01*
X1210208Y365710D01*
X1206376Y358189D01*
X1201965Y350992D01*
X1197003Y344162D01*
X1191521Y337744D01*
X1185552Y331775D01*
X1179134Y326293D01*
X1172305Y321331D01*
X1165107Y316921D01*
X1157586Y313088D01*
X1149787Y309858D01*
X1141759Y307250D01*
X1133551Y305279D01*
X1125214Y303958D01*
X1116799Y303296D01*
X1112578D01*
X251126Y303296D01*
X106710Y303301D01*
X101548Y303643D01*
X91328Y305255D01*
X81295Y307783D01*
X71530Y311206D01*
X62115Y315495D01*
X53124Y320616D01*
X44632Y326527D01*
X36708Y333179D01*
X29416Y340520D01*
X22815Y348488D01*
X16961Y357019D01*
X11899Y366043D01*
X7672Y375487D01*
X4315Y385274D01*
X1853Y395323D01*
X308Y405554D01*
X200Y407362D01*
X192Y407497D01*
X163Y408024D01*
X55Y410003D01*
X55Y413143D01*
X0Y1114423D01*
Y1118640D01*
X662Y1127047D01*
X1981Y1135376D01*
X3950Y1143576D01*
X6556Y1151597D01*
X9783Y1159388D01*
X13611Y1166902D01*
X18018Y1174092D01*
X22975Y1180915D01*
X28451Y1187327D01*
X34415Y1193291D01*
X40827Y1198767D01*
X47650Y1203724D01*
X54840Y1208131D01*
X62354Y1211959D01*
X70145Y1215186D01*
X78166Y1217792D01*
X86366Y1219761D01*
X94695Y1221080D01*
X103102Y1221742D01*
X107319D01*
X107319Y1221742D01*
X1103244Y1221744D01*
X1108117Y1221744D01*
X1117831Y1220966D01*
D02*
G37*
%LPC*%
G36*
X1147331Y1186010D02*
X1142209D01*
X1137151Y1185209D01*
X1132279Y1183626D01*
X1127716Y1181301D01*
X1123572Y1178290D01*
X1119950Y1174669D01*
X1116940Y1170525D01*
X1114614Y1165961D01*
X1113032Y1161090D01*
X1112230Y1156031D01*
Y1150909D01*
X1113032Y1145851D01*
X1114614Y1140979D01*
X1116940Y1136416D01*
X1119950Y1132272D01*
X1123572Y1128650D01*
X1127716Y1125640D01*
X1132279Y1123314D01*
X1137151Y1121732D01*
X1142209Y1120930D01*
X1147331D01*
X1152390Y1121732D01*
X1157261Y1123314D01*
X1161825Y1125640D01*
X1165969Y1128650D01*
X1169591Y1132272D01*
X1172601Y1136416D01*
X1174926Y1140979D01*
X1176509Y1145851D01*
X1177310Y1150909D01*
Y1156031D01*
X1176509Y1161090D01*
X1174926Y1165961D01*
X1172601Y1170525D01*
X1169591Y1174669D01*
X1165969Y1178290D01*
X1161825Y1181301D01*
X1157261Y1183626D01*
X1152390Y1185209D01*
X1147331Y1186010D01*
D02*
G37*
G36*
X50061Y1186010D02*
X44939D01*
X39880Y1185209D01*
X35009Y1183626D01*
X30445Y1181301D01*
X26302Y1178290D01*
X22680Y1174668D01*
X19669Y1170525D01*
X17344Y1165961D01*
X15761Y1161090D01*
X14960Y1156031D01*
Y1150909D01*
X15761Y1145850D01*
X17344Y1140979D01*
X19669Y1136415D01*
X22680Y1132271D01*
X26302Y1128650D01*
X30445Y1125639D01*
X35009Y1123314D01*
X39880Y1121731D01*
X44939Y1120930D01*
X50061D01*
X55120Y1121731D01*
X59991Y1123314D01*
X64555Y1125639D01*
X68698Y1128650D01*
X72320Y1132271D01*
X75331Y1136415D01*
X77656Y1140979D01*
X79239Y1145850D01*
X80040Y1150909D01*
Y1156031D01*
X79239Y1161090D01*
X77656Y1165961D01*
X75331Y1170525D01*
X72320Y1174668D01*
X68698Y1178290D01*
X64555Y1181301D01*
X59991Y1183626D01*
X55120Y1185209D01*
X50061Y1186010D01*
D02*
G37*
G36*
X644060Y1088660D02*
X639620D01*
X635266Y1087794D01*
X631163Y1086095D01*
X627472Y1083628D01*
X624332Y1080488D01*
X621866Y1076796D01*
X620166Y1072694D01*
X619300Y1068340D01*
Y1063900D01*
X620166Y1059545D01*
X621866Y1055443D01*
X624332Y1051751D01*
X627472Y1048612D01*
X631163Y1046145D01*
X635266Y1044446D01*
X639620Y1043580D01*
X644060D01*
X648415Y1044446D01*
X652517Y1046145D01*
X656209Y1048612D01*
X659348Y1051751D01*
X661815Y1055443D01*
X663514Y1059545D01*
X664380Y1063900D01*
Y1068340D01*
X663514Y1072694D01*
X661815Y1076796D01*
X659348Y1080488D01*
X656209Y1083628D01*
X652517Y1086095D01*
X648415Y1087794D01*
X644060Y1088660D01*
D02*
G37*
G36*
X385760D02*
X381320D01*
X376965Y1087794D01*
X372863Y1086095D01*
X369172Y1083628D01*
X366032Y1080488D01*
X363565Y1076796D01*
X361866Y1072694D01*
X361000Y1068340D01*
Y1063900D01*
X361866Y1059545D01*
X363565Y1055443D01*
X366032Y1051751D01*
X369172Y1048612D01*
X372863Y1046145D01*
X376965Y1044446D01*
X381320Y1043580D01*
X385760D01*
X390115Y1044446D01*
X394217Y1046145D01*
X397908Y1048612D01*
X401048Y1051751D01*
X403515Y1055443D01*
X405214Y1059545D01*
X406080Y1063900D01*
Y1068340D01*
X405214Y1072694D01*
X403515Y1076796D01*
X401048Y1080488D01*
X397908Y1083628D01*
X394217Y1086095D01*
X390115Y1087794D01*
X385760Y1088660D01*
D02*
G37*
G36*
X155890D02*
X151450D01*
X147095Y1087794D01*
X142993Y1086095D01*
X139302Y1083628D01*
X136162Y1080488D01*
X133695Y1076796D01*
X131996Y1072694D01*
X131130Y1068340D01*
Y1063900D01*
X131996Y1059545D01*
X133695Y1055443D01*
X136162Y1051751D01*
X139302Y1048612D01*
X142993Y1046145D01*
X147095Y1044446D01*
X151450Y1043580D01*
X155890D01*
X160245Y1044446D01*
X164347Y1046145D01*
X168038Y1048612D01*
X171178Y1051751D01*
X173645Y1055443D01*
X175344Y1059545D01*
X176210Y1063900D01*
Y1068340D01*
X175344Y1072694D01*
X173645Y1076796D01*
X171178Y1080488D01*
X168038Y1083628D01*
X164347Y1086095D01*
X160245Y1087794D01*
X155890Y1088660D01*
D02*
G37*
G36*
X316973Y1042290D02*
X314527D01*
X312164Y1041657D01*
X310046Y1040434D01*
X308316Y1038704D01*
X307266Y1036885D01*
X295191D01*
X294141Y1038704D01*
X292411Y1040434D01*
X290293Y1041657D01*
X287930Y1042290D01*
X285484D01*
X283121Y1041657D01*
X281003Y1040434D01*
X279273Y1038704D01*
X278050Y1036586D01*
X277417Y1034223D01*
Y1031777D01*
X278050Y1029414D01*
X279273Y1027296D01*
X281003Y1025566D01*
X283121Y1024343D01*
X285484Y1023710D01*
X287930D01*
X290293Y1024343D01*
X292411Y1025566D01*
X294141Y1027296D01*
X295191Y1029116D01*
X307266D01*
X308316Y1027296D01*
X310046Y1025566D01*
X312164Y1024343D01*
X314527Y1023710D01*
X316973D01*
X319336Y1024343D01*
X321454Y1025566D01*
X323184Y1027296D01*
X324234Y1029116D01*
X340391D01*
X353615Y1015891D01*
Y912100D01*
X344330D01*
Y887020D01*
X369410D01*
Y891674D01*
X371950Y892355D01*
X372235Y891860D01*
X374570Y889525D01*
X377430Y887874D01*
X380619Y887020D01*
X383921D01*
X387110Y887874D01*
X389970Y889525D01*
X392304Y891860D01*
X393955Y894719D01*
X394810Y897909D01*
Y901211D01*
X393955Y904400D01*
X392304Y907260D01*
X389970Y909594D01*
X387110Y911245D01*
X383921Y912100D01*
X380619D01*
X377430Y911245D01*
X374570Y909594D01*
X372235Y907260D01*
X371950Y906765D01*
X369410Y907446D01*
Y912100D01*
X361385D01*
Y1017500D01*
X361089Y1018987D01*
X360247Y1020247D01*
X344747Y1035747D01*
X343486Y1036589D01*
X342000Y1036885D01*
X324234D01*
X323184Y1038704D01*
X321454Y1040434D01*
X319336Y1041657D01*
X316973Y1042290D01*
D02*
G37*
G36*
X68723D02*
X66277D01*
X63914Y1041657D01*
X61796Y1040434D01*
X60066Y1038704D01*
X59016Y1036885D01*
X45484D01*
X44434Y1038704D01*
X42704Y1040434D01*
X40586Y1041657D01*
X38223Y1042290D01*
X35777D01*
X33414Y1041657D01*
X31296Y1040434D01*
X29566Y1038704D01*
X28343Y1036586D01*
X27710Y1034223D01*
Y1031777D01*
X28343Y1029414D01*
X29566Y1027296D01*
X31296Y1025566D01*
X33414Y1024343D01*
X35777Y1023710D01*
X38223D01*
X40586Y1024343D01*
X42704Y1025566D01*
X44434Y1027296D01*
X45484Y1029116D01*
X59016D01*
X60066Y1027296D01*
X61796Y1025566D01*
X63914Y1024343D01*
X66277Y1023710D01*
X68723D01*
X71086Y1024343D01*
X73204Y1025566D01*
X74934Y1027296D01*
X75984Y1029116D01*
X117891D01*
X124385Y1022621D01*
Y912100D01*
X115730D01*
Y887020D01*
X140810D01*
Y891674D01*
X143350Y892355D01*
X143636Y891861D01*
X145970Y889526D01*
X148830Y887875D01*
X152019Y887020D01*
X155321D01*
X158510Y887875D01*
X161370Y889526D01*
X163704Y891861D01*
X165355Y894720D01*
X166210Y897909D01*
Y901211D01*
X165355Y904401D01*
X163704Y907260D01*
X161370Y909595D01*
X158510Y911246D01*
X155321Y912100D01*
X152019D01*
X148830Y911246D01*
X145970Y909595D01*
X143636Y907260D01*
X143350Y906766D01*
X140810Y907446D01*
Y912100D01*
X132155D01*
Y1024230D01*
X131859Y1025717D01*
X131017Y1026977D01*
X122247Y1035747D01*
X120986Y1036589D01*
X119500Y1036885D01*
X75984D01*
X74934Y1038704D01*
X73204Y1040434D01*
X71086Y1041657D01*
X68723Y1042290D01*
D02*
G37*
G36*
X533723Y1042540D02*
X531277D01*
X528914Y1041907D01*
X526796Y1040684D01*
X525066Y1038954D01*
X523843Y1036836D01*
X523210Y1034473D01*
Y1032027D01*
X523843Y1029664D01*
X525066Y1027546D01*
X526796Y1025816D01*
X528914Y1024593D01*
X531277Y1023960D01*
X533723D01*
X536086Y1024593D01*
X538204Y1025816D01*
X539934Y1027546D01*
X540912Y1029240D01*
X554444D01*
X555566Y1027296D01*
X557296Y1025566D01*
X559414Y1024343D01*
X561777Y1023710D01*
X564223D01*
X566586Y1024343D01*
X568704Y1025566D01*
X570434Y1027296D01*
X571484Y1029116D01*
X607891D01*
X613615Y1023391D01*
Y912100D01*
X603899D01*
Y887020D01*
X628979D01*
Y891674D01*
X631519Y892355D01*
X631805Y891860D01*
X634140Y889525D01*
X636999Y887874D01*
X640188Y887020D01*
X643490D01*
X646680Y887874D01*
X649539Y889525D01*
X651874Y891860D01*
X653525Y894719D01*
X654379Y897909D01*
Y901211D01*
X653525Y904400D01*
X651874Y907260D01*
X649539Y909594D01*
X646680Y911245D01*
X643490Y912100D01*
X640188D01*
X636999Y911245D01*
X634140Y909594D01*
X631805Y907260D01*
X631519Y906765D01*
X628979Y907446D01*
Y912100D01*
X621385D01*
Y1025000D01*
X621089Y1026487D01*
X620247Y1027747D01*
X612247Y1035747D01*
X610986Y1036589D01*
X609500Y1036885D01*
X571484D01*
X570434Y1038704D01*
X568704Y1040434D01*
X566586Y1041657D01*
X564223Y1042290D01*
X561777D01*
X559414Y1041657D01*
X557296Y1040434D01*
X555566Y1038704D01*
X554588Y1037010D01*
X541056D01*
X539934Y1038954D01*
X538204Y1040684D01*
X536086Y1041907D01*
X533723Y1042540D01*
D02*
G37*
G36*
X474227Y892090D02*
X470772D01*
X467384Y891416D01*
X464192Y890094D01*
X461319Y888174D01*
X458876Y885731D01*
X456956Y882858D01*
X455634Y879666D01*
X454960Y876277D01*
Y872822D01*
X455634Y869434D01*
X456956Y866242D01*
X458876Y863369D01*
X461319Y860926D01*
X464192Y859006D01*
X467384Y857684D01*
X470772Y857010D01*
X474227D01*
X477616Y857684D01*
X480808Y859006D01*
X483681Y860926D01*
X486124Y863369D01*
X488044Y866242D01*
X489366Y869434D01*
X490040Y872822D01*
Y876277D01*
X489366Y879666D01*
X488044Y882858D01*
X486124Y885731D01*
X483681Y888174D01*
X480808Y890094D01*
X477616Y891416D01*
X474227Y892090D01*
D02*
G37*
G36*
X738998Y891340D02*
X735543D01*
X732154Y890666D01*
X728962Y889343D01*
X726089Y887424D01*
X723646Y884981D01*
X721726Y882108D01*
X720404Y878916D01*
X719730Y875527D01*
Y872072D01*
X720404Y868683D01*
X721726Y865491D01*
X723646Y862618D01*
X726089Y860175D01*
X728962Y858256D01*
X732154Y856934D01*
X735543Y856260D01*
X738998D01*
X742386Y856934D01*
X745578Y858256D01*
X748451Y860175D01*
X750894Y862618D01*
X752814Y865491D01*
X754136Y868683D01*
X754810Y872072D01*
Y875527D01*
X754136Y878916D01*
X752814Y882108D01*
X750894Y884981D01*
X748451Y887424D01*
X745578Y889343D01*
X742386Y890666D01*
X738998Y891340D01*
D02*
G37*
G36*
X244978D02*
X241523D01*
X238134Y890666D01*
X234942Y889343D01*
X232069Y887424D01*
X229626Y884981D01*
X227707Y882108D01*
X226384Y878916D01*
X225710Y875527D01*
Y872072D01*
X226384Y868683D01*
X227707Y865491D01*
X229626Y862618D01*
X232069Y860175D01*
X234942Y858256D01*
X238134Y856934D01*
X241523Y856260D01*
X244978D01*
X248366Y856934D01*
X251558Y858256D01*
X254431Y860175D01*
X256874Y862618D01*
X258794Y865491D01*
X260116Y868683D01*
X260790Y872072D01*
Y875527D01*
X260116Y878916D01*
X258794Y882108D01*
X256874Y884981D01*
X254431Y887424D01*
X251558Y889343D01*
X248366Y890666D01*
X244978Y891340D01*
D02*
G37*
G36*
X920480Y1204186D02*
X785250D01*
X784259Y1203988D01*
X783419Y1203427D01*
X782857Y1202587D01*
X782660Y1201596D01*
Y813404D01*
X782857Y812413D01*
X783419Y811573D01*
X784259Y811012D01*
X785250Y810814D01*
X920480D01*
X921471Y811012D01*
X922311Y811573D01*
X922872Y812413D01*
X923070Y813404D01*
Y968552D01*
X1133807D01*
X1138913Y968954D01*
X1143894Y970149D01*
X1148626Y972109D01*
X1152993Y974786D01*
X1156888Y978112D01*
X1160214Y982007D01*
X1162890Y986374D01*
X1164850Y991106D01*
X1166046Y996086D01*
X1166448Y1001192D01*
X1166046Y1006298D01*
X1164850Y1011279D01*
X1162890Y1016011D01*
X1160214Y1020378D01*
X1156888Y1024273D01*
X1152993Y1027599D01*
X1148626Y1030275D01*
X1143894Y1032235D01*
X1138913Y1033431D01*
X1133807Y1033833D01*
X923070D01*
Y1201596D01*
X922872Y1202587D01*
X922311Y1203427D01*
X921471Y1203988D01*
X920480Y1204186D01*
D02*
G37*
G36*
X541790Y952540D02*
X523210D01*
Y933960D01*
X528615D01*
Y887500D01*
X528911Y886014D01*
X529753Y884753D01*
X542588Y871918D01*
X541829Y869085D01*
X541164Y868907D01*
X539046Y867684D01*
X537316Y865955D01*
X536093Y863836D01*
X535460Y861473D01*
Y859027D01*
X536093Y856665D01*
X537316Y854546D01*
X539046Y852816D01*
X541164Y851593D01*
X543527Y850960D01*
X545973D01*
X548336Y851593D01*
X550454Y852816D01*
X552184Y854546D01*
X553235Y856366D01*
X661392D01*
X663355Y854403D01*
Y843640D01*
X654699D01*
Y838986D01*
X652159Y838305D01*
X651874Y838800D01*
X649539Y841135D01*
X646680Y842786D01*
X643490Y843640D01*
X640188D01*
X636999Y842786D01*
X634140Y841135D01*
X631805Y838800D01*
X630553Y836631D01*
X629799Y836417D01*
X628479D01*
X627726Y836631D01*
X626474Y838800D01*
X624139Y841135D01*
X621279Y842786D01*
X618090Y843640D01*
X614788D01*
X611599Y842786D01*
X608740Y841135D01*
X606405Y838800D01*
X604754Y835940D01*
X603899Y832751D01*
Y829449D01*
X604754Y826260D01*
X606405Y823400D01*
X608740Y821066D01*
X611599Y819415D01*
X614788Y818560D01*
X618090D01*
X621279Y819415D01*
X624139Y821066D01*
X626474Y823400D01*
X627726Y825569D01*
X628479Y825784D01*
X629799D01*
X630553Y825569D01*
X631805Y823400D01*
X634140Y821066D01*
X636999Y819415D01*
X640188Y818560D01*
X643490D01*
X646680Y819415D01*
X649539Y821066D01*
X651874Y823400D01*
X652159Y823895D01*
X654699Y823214D01*
Y818560D01*
X679779D01*
Y843640D01*
X671124D01*
Y856012D01*
X670828Y857499D01*
X669986Y858759D01*
X665748Y862997D01*
X664883Y863575D01*
X665012Y865299D01*
X665305Y866115D01*
X688391D01*
X692878Y861628D01*
X692878Y861628D01*
X696115Y858391D01*
Y732859D01*
X674913Y711657D01*
X674071Y710397D01*
X673775Y708910D01*
Y587389D01*
X671235Y586337D01*
X670459Y587114D01*
X668431Y588284D01*
X666170Y588890D01*
X663830D01*
X663600Y588829D01*
X661652Y590646D01*
X662017Y593103D01*
X662476Y593368D01*
X664131Y595024D01*
X665302Y597051D01*
X665908Y599312D01*
Y601653D01*
X665302Y603914D01*
X664131Y605941D01*
X662476Y607596D01*
X660449Y608766D01*
X658188Y609372D01*
X655847D01*
X653586Y608766D01*
X651559Y607596D01*
X649904Y605941D01*
X649467Y605184D01*
X642071D01*
Y606564D01*
X622044D01*
Y596035D01*
X624624D01*
X625198Y593686D01*
X625159Y593495D01*
X623513Y592395D01*
X622350Y590654D01*
X621941Y588600D01*
X622350Y586546D01*
X623513Y584804D01*
X625255Y583641D01*
X627309Y583232D01*
X636806D01*
X638860Y583641D01*
X640469Y584715D01*
X654524D01*
X654913Y584487D01*
X656448Y582433D01*
X656110Y581170D01*
Y578830D01*
X656716Y576569D01*
X657886Y574541D01*
X659541Y572886D01*
X661569Y571716D01*
X663830Y571110D01*
X664142D01*
X665135Y568823D01*
X663743Y567084D01*
X640469D01*
X638860Y568159D01*
X636806Y568568D01*
X627309D01*
X625255Y568159D01*
X623513Y566995D01*
X622350Y565254D01*
X621941Y563200D01*
X622350Y561146D01*
X623513Y559404D01*
X625255Y558241D01*
X627309Y557832D01*
X636806D01*
X638860Y558241D01*
X640469Y559315D01*
X660241D01*
X661213Y556968D01*
X656850Y552605D01*
X571385D01*
Y558355D01*
X573925Y559053D01*
X575140Y558241D01*
X577194Y557832D01*
X586691D01*
X588745Y558241D01*
X590487Y559404D01*
X591650Y561146D01*
X592059Y563200D01*
X591650Y565254D01*
X590487Y566995D01*
X588745Y568159D01*
X588263Y568255D01*
Y570845D01*
X588745Y570941D01*
X590487Y572104D01*
X591650Y573846D01*
X592059Y575900D01*
X591650Y577954D01*
X590487Y579695D01*
X588745Y580859D01*
X588263Y580955D01*
Y583545D01*
X588745Y583641D01*
X590487Y584804D01*
X591650Y586546D01*
X592059Y588600D01*
X591650Y590654D01*
X590487Y592395D01*
X588745Y593559D01*
X588263Y593655D01*
Y596245D01*
X588745Y596341D01*
X590487Y597504D01*
X591650Y599246D01*
X592059Y601300D01*
X591650Y603354D01*
X590487Y605095D01*
X588745Y606259D01*
X586691Y606668D01*
X577194D01*
X575140Y606259D01*
X573532Y605184D01*
X565309D01*
X559497Y610997D01*
X558236Y611839D01*
X556750Y612135D01*
X551118D01*
X550334Y613494D01*
X548744Y615084D01*
X546796Y616208D01*
X544624Y616790D01*
X542376D01*
X540204Y616208D01*
X538256Y615084D01*
X536666Y613494D01*
X535542Y611547D01*
X534960Y609375D01*
Y607126D01*
X535542Y604954D01*
X536666Y603007D01*
X538256Y601417D01*
X540204Y600292D01*
X542376Y599710D01*
X544624D01*
X546796Y600292D01*
X548744Y601417D01*
X550334Y603007D01*
X551118Y604366D01*
X555141D01*
X560953Y598553D01*
X562214Y597711D01*
X563700Y597415D01*
X573532D01*
X575140Y596341D01*
X575622Y596245D01*
Y593655D01*
X575140Y593559D01*
X573532Y592484D01*
X540509D01*
X521385Y611609D01*
Y755891D01*
X531859Y766365D01*
X535460D01*
Y760960D01*
X554040D01*
Y779540D01*
X535460D01*
Y774135D01*
X530250D01*
X528763Y773839D01*
X527503Y772997D01*
X518651Y764145D01*
X516305Y765117D01*
Y780898D01*
X536522Y801115D01*
X569478D01*
X570386Y799541D01*
X572041Y797886D01*
X574069Y796716D01*
X576330Y796110D01*
X578670D01*
X580931Y796716D01*
X582959Y797886D01*
X584614Y799541D01*
X585784Y801569D01*
X586390Y803830D01*
Y806170D01*
X585784Y808431D01*
X584614Y810459D01*
X582959Y812114D01*
X580931Y813284D01*
X578670Y813890D01*
X576330D01*
X574069Y813284D01*
X572041Y812114D01*
X570386Y810459D01*
X569478Y808885D01*
X534913D01*
X533427Y808589D01*
X532166Y807747D01*
X509673Y785254D01*
X508831Y783993D01*
X508535Y782507D01*
Y575080D01*
X508831Y573594D01*
X509673Y572333D01*
X526503Y555503D01*
X527764Y554661D01*
X529250Y554365D01*
X534960D01*
Y549710D01*
X533909Y547605D01*
X507508D01*
X506105Y549008D01*
Y556500D01*
X506040Y556994D01*
Y566040D01*
X488960D01*
Y548960D01*
X490895D01*
Y545858D01*
X491154Y543890D01*
X491914Y542056D01*
X493122Y540480D01*
X497178Y536425D01*
X496126Y533885D01*
X472500D01*
X471013Y533589D01*
X469753Y532747D01*
X461095Y524089D01*
X460253Y522828D01*
X459957Y521342D01*
Y514748D01*
X457518Y513737D01*
X454898Y511727D01*
X452888Y509108D01*
X452516Y508210D01*
X449767D01*
X449395Y509108D01*
X447385Y511727D01*
X444766Y513737D01*
X441715Y515001D01*
X438442Y515432D01*
X435168Y515001D01*
X432118Y513737D01*
X429498Y511727D01*
X427488Y509108D01*
X427116Y508210D01*
X424367D01*
X423995Y509108D01*
X421985Y511727D01*
X419366Y513737D01*
X416315Y515001D01*
X413042Y515432D01*
X409768Y515001D01*
X406717Y513737D01*
X404098Y511727D01*
X402088Y509108D01*
X401716Y508210D01*
X398967D01*
X398595Y509108D01*
X396585Y511727D01*
X393966Y513737D01*
X391526Y514748D01*
Y527358D01*
X391231Y528845D01*
X390388Y530105D01*
X387078Y533415D01*
X387431Y534993D01*
X388048Y535955D01*
X427024D01*
X428511Y536251D01*
X429771Y537093D01*
X448575Y555897D01*
X451115Y554845D01*
Y542783D01*
X449541Y541874D01*
X447886Y540219D01*
X446716Y538191D01*
X446110Y535930D01*
Y533590D01*
X446716Y531329D01*
X447886Y529301D01*
X449541Y527646D01*
X451569Y526476D01*
X453830Y525870D01*
X456170D01*
X458431Y526476D01*
X460459Y527646D01*
X462114Y529301D01*
X463284Y531329D01*
X463890Y533590D01*
Y535930D01*
X463284Y538191D01*
X462114Y540219D01*
X460459Y541874D01*
X458885Y542783D01*
Y556016D01*
X480247Y577378D01*
X481089Y578638D01*
X481385Y580125D01*
Y600000D01*
X481089Y601487D01*
X480247Y602747D01*
X478283Y604711D01*
X477023Y605553D01*
X475536Y605849D01*
X474894D01*
X473890Y606853D01*
Y608670D01*
X473284Y610931D01*
X472114Y612959D01*
X470459Y614614D01*
X468431Y615784D01*
X466170Y616390D01*
X463830D01*
X461569Y615784D01*
X459541Y614614D01*
X459085Y614157D01*
X456545Y615209D01*
Y628755D01*
X458206Y629528D01*
X459085Y629630D01*
X461319Y627396D01*
X464192Y625476D01*
X467384Y624154D01*
X470772Y623480D01*
X474227D01*
X477616Y624154D01*
X480808Y625476D01*
X483681Y627396D01*
X486124Y629839D01*
X488044Y632711D01*
X489366Y635904D01*
X490040Y639292D01*
Y642747D01*
X489366Y646136D01*
X488044Y649328D01*
X486124Y652201D01*
X483681Y654644D01*
X480808Y656563D01*
X477616Y657886D01*
X474227Y658560D01*
X470772D01*
X467384Y657886D01*
X464192Y656563D01*
X461319Y654644D01*
X459085Y652410D01*
X458206Y652512D01*
X456545Y653284D01*
Y763656D01*
X458206Y764428D01*
X459085Y764530D01*
X461319Y762296D01*
X464192Y760377D01*
X467384Y759054D01*
X470772Y758380D01*
X474227D01*
X477616Y759054D01*
X480808Y760377D01*
X483681Y762296D01*
X486124Y764739D01*
X488044Y767612D01*
X489366Y770804D01*
X490040Y774193D01*
Y777648D01*
X489366Y781036D01*
X488044Y784229D01*
X486124Y787101D01*
X483681Y789544D01*
X480808Y791464D01*
X477616Y792786D01*
X474227Y793460D01*
X470772D01*
X467384Y792786D01*
X464192Y791464D01*
X461319Y789544D01*
X459085Y787310D01*
X458206Y787412D01*
X456545Y788185D01*
Y839840D01*
X456249Y841327D01*
X455407Y842587D01*
X417747Y880247D01*
X416487Y881089D01*
X415000Y881385D01*
X295597D01*
X290592Y886390D01*
Y933710D01*
X295997D01*
Y952290D01*
X277417D01*
Y933710D01*
X282822D01*
Y884781D01*
X283118Y883294D01*
X283960Y882034D01*
X291241Y874753D01*
X292501Y873911D01*
X293988Y873615D01*
X413391D01*
X448775Y838231D01*
Y617075D01*
X446235Y615609D01*
X445931Y615784D01*
X443670Y616390D01*
X441330D01*
X439069Y615784D01*
X437041Y614614D01*
X435386Y612959D01*
X434216Y610931D01*
X433610Y608670D01*
Y607935D01*
X430321D01*
Y609315D01*
X410294D01*
Y598786D01*
X412874D01*
X413448Y596437D01*
X413409Y596245D01*
X411763Y595146D01*
X410600Y593404D01*
X410191Y591350D01*
X410600Y589296D01*
X411763Y587555D01*
X413505Y586391D01*
X415559Y585982D01*
X425056D01*
X427110Y586391D01*
X427885Y586909D01*
X434125D01*
X434216Y586569D01*
X435386Y584541D01*
X437041Y582886D01*
X439069Y581716D01*
X441330Y581110D01*
X443670D01*
X445931Y581716D01*
X446235Y581891D01*
X448775Y580425D01*
Y574269D01*
X444341Y569835D01*
X428718D01*
X427110Y570909D01*
X425056Y571318D01*
X415559D01*
X413505Y570909D01*
X411763Y569746D01*
X410600Y568004D01*
X410191Y565950D01*
X410600Y563896D01*
X411763Y562155D01*
X413033Y561306D01*
X413057Y559425D01*
X412827Y558621D01*
X411569Y558284D01*
X409541Y557114D01*
X409294Y556867D01*
X358885D01*
Y560891D01*
X360059Y562065D01*
X361781D01*
X363390Y560991D01*
X365444Y560582D01*
X374941D01*
X376995Y560991D01*
X378736Y562155D01*
X379900Y563896D01*
X380309Y565950D01*
X379900Y568004D01*
X378736Y569746D01*
X376995Y570909D01*
X376513Y571005D01*
Y573595D01*
X376995Y573691D01*
X378736Y574855D01*
X379900Y576596D01*
X380309Y578650D01*
X379900Y580704D01*
X378736Y582446D01*
X376995Y583609D01*
X376513Y583705D01*
Y586295D01*
X376995Y586391D01*
X378736Y587555D01*
X379900Y589296D01*
X380309Y591350D01*
X379900Y593404D01*
X378736Y595146D01*
X376995Y596309D01*
X376513Y596405D01*
Y598995D01*
X376995Y599091D01*
X378736Y600255D01*
X379900Y601996D01*
X380309Y604050D01*
X379900Y606104D01*
X378736Y607846D01*
X376995Y609009D01*
X374941Y609418D01*
X365444D01*
X363390Y609009D01*
X361781Y607935D01*
X351559D01*
X348747Y610747D01*
X347487Y611589D01*
X346000Y611884D01*
X332868D01*
X332084Y613243D01*
X330494Y614833D01*
X328546Y615958D01*
X326374Y616540D01*
X324126D01*
X321954Y615958D01*
X320006Y614833D01*
X318416Y613243D01*
X317292Y611296D01*
X316710Y609124D01*
Y606875D01*
X317292Y604703D01*
X318416Y602756D01*
X320006Y601166D01*
X321954Y600042D01*
X324126Y599460D01*
X326374D01*
X328546Y600042D01*
X330494Y601166D01*
X332084Y602756D01*
X332868Y604115D01*
X344391D01*
X347203Y601303D01*
X348463Y600461D01*
X349950Y600165D01*
X361781D01*
X363390Y599091D01*
X363872Y598995D01*
Y596405D01*
X363390Y596309D01*
X361781Y595235D01*
X315259D01*
X308635Y601859D01*
Y760960D01*
X314040D01*
Y779540D01*
X296385D01*
Y815891D01*
X307709Y827215D01*
X344929D01*
X345185Y826260D01*
X346836Y823400D01*
X349170Y821066D01*
X352030Y819415D01*
X355219Y818560D01*
X358521D01*
X361710Y819415D01*
X364570Y821066D01*
X366904Y823400D01*
X368157Y825569D01*
X368910Y825784D01*
X370230D01*
X370983Y825569D01*
X372235Y823400D01*
X374570Y821066D01*
X377430Y819415D01*
X380619Y818560D01*
X383921D01*
X387110Y819415D01*
X389970Y821066D01*
X392304Y823400D01*
X392590Y823895D01*
X395130Y823214D01*
Y818560D01*
X420210D01*
Y843640D01*
X411555D01*
Y847330D01*
X411259Y848816D01*
X410417Y850077D01*
X397496Y862997D01*
X396236Y863839D01*
X394749Y864135D01*
X313235D01*
X312184Y865955D01*
X310454Y867684D01*
X308336Y868907D01*
X305973Y869540D01*
X303527D01*
X301164Y868907D01*
X299046Y867684D01*
X297316Y865955D01*
X296093Y863836D01*
X295460Y861473D01*
Y859027D01*
X296093Y856665D01*
X297316Y854546D01*
X299046Y852816D01*
X301164Y851593D01*
X303527Y850960D01*
X305973D01*
X308336Y851593D01*
X310454Y852816D01*
X312184Y854546D01*
X313235Y856366D01*
X393140D01*
X403326Y846180D01*
X402676Y843640D01*
X395130D01*
Y838986D01*
X392590Y838305D01*
X392304Y838800D01*
X389970Y841135D01*
X387110Y842786D01*
X383921Y843640D01*
X380619D01*
X377430Y842786D01*
X374570Y841135D01*
X372235Y838800D01*
X370983Y836631D01*
X370230Y836417D01*
X368910D01*
X368157Y836631D01*
X366904Y838800D01*
X364570Y841135D01*
X361710Y842786D01*
X358521Y843640D01*
X355219D01*
X352030Y842786D01*
X349170Y841135D01*
X346836Y838800D01*
X345185Y835940D01*
X344929Y834985D01*
X306100D01*
X304614Y834689D01*
X303353Y833847D01*
X289753Y820247D01*
X288911Y818987D01*
X288615Y817500D01*
Y568250D01*
X288911Y566763D01*
X289753Y565503D01*
X291507Y563750D01*
X290038Y561676D01*
X288071Y562067D01*
X286040D01*
Y566540D01*
X268960D01*
Y563139D01*
X228000D01*
X226033Y562747D01*
X224366Y561633D01*
X210371Y547639D01*
X113327D01*
X113135Y547737D01*
X111385Y550000D01*
Y555350D01*
X113251Y556882D01*
X122748D01*
X124802Y557291D01*
X126544Y558454D01*
X127708Y560196D01*
X128116Y562250D01*
X127708Y564304D01*
X126544Y566045D01*
X124802Y567209D01*
X124320Y567305D01*
Y569895D01*
X124802Y569991D01*
X126544Y571154D01*
X127708Y572896D01*
X128116Y574950D01*
X127708Y577004D01*
X126544Y578745D01*
X124802Y579909D01*
X124320Y580005D01*
Y582595D01*
X124802Y582691D01*
X126544Y583854D01*
X127708Y585596D01*
X128116Y587650D01*
X127708Y589704D01*
X126544Y591445D01*
X124802Y592609D01*
X124320Y592705D01*
Y595295D01*
X124802Y595391D01*
X126544Y596554D01*
X127708Y598296D01*
X128116Y600350D01*
X127708Y602404D01*
X126544Y604145D01*
X124802Y605309D01*
X122748Y605718D01*
X113251D01*
X111197Y605309D01*
X109589Y604235D01*
X104459D01*
X97696Y610997D01*
X96436Y611839D01*
X94949Y612135D01*
X89685D01*
X89334Y612744D01*
X87744Y614334D01*
X85796Y615458D01*
X83624Y616040D01*
X81376D01*
X79204Y615458D01*
X77256Y614334D01*
X75666Y612744D01*
X74542Y610797D01*
X73960Y608625D01*
Y606376D01*
X74052Y606034D01*
X71775Y604719D01*
X68725Y607769D01*
Y720425D01*
X71265Y721891D01*
X71569Y721716D01*
X73830Y721110D01*
X76170D01*
X78431Y721716D01*
X80459Y722886D01*
X82114Y724541D01*
X83022Y726115D01*
X98391D01*
X196275Y628231D01*
Y609575D01*
X193735Y608109D01*
X193431Y608284D01*
X191170Y608890D01*
X188830D01*
X186569Y608284D01*
X184541Y607114D01*
X182886Y605459D01*
X182078Y604060D01*
X178129D01*
Y605615D01*
X158102D01*
Y595085D01*
X160682D01*
X161256Y592736D01*
X161217Y592545D01*
X159571Y591445D01*
X158408Y589704D01*
X157999Y587650D01*
X158408Y585596D01*
X159571Y583854D01*
X161313Y582691D01*
X163367Y582282D01*
X172864D01*
X174918Y582691D01*
X176526Y583765D01*
X181037D01*
X181110Y583670D01*
Y581330D01*
X181716Y579069D01*
X182886Y577041D01*
X184541Y575386D01*
X186569Y574216D01*
X188830Y573610D01*
X191170D01*
X192337Y573923D01*
X193652Y571645D01*
X188141Y566134D01*
X176526D01*
X174918Y567209D01*
X172864Y567618D01*
X163367D01*
X161313Y567209D01*
X159571Y566045D01*
X158408Y564304D01*
X157999Y562250D01*
X158408Y560196D01*
X159571Y558454D01*
X161313Y557291D01*
X163367Y556882D01*
X172864D01*
X174918Y557291D01*
X176526Y558365D01*
X189750D01*
X191236Y558661D01*
X192497Y559503D01*
X202907Y569913D01*
X203749Y571173D01*
X204045Y572660D01*
Y629840D01*
X203749Y631327D01*
X202907Y632587D01*
X102747Y732747D01*
X101487Y733589D01*
X100000Y733885D01*
X83022D01*
X82114Y735459D01*
X80459Y737114D01*
X78431Y738284D01*
X76170Y738890D01*
X73830D01*
X73342Y738759D01*
X70579Y740451D01*
X70549Y740517D01*
X70415Y741532D01*
X71497Y742614D01*
X72339Y743874D01*
X72635Y745361D01*
Y757210D01*
X78040D01*
Y775790D01*
X63864D01*
X62811Y778330D01*
X68097Y783615D01*
X117500D01*
X118987Y783911D01*
X120247Y784753D01*
X130554Y795060D01*
X131396Y796320D01*
X131692Y797807D01*
Y819159D01*
X132647Y819415D01*
X135507Y821066D01*
X137841Y823401D01*
X139094Y825570D01*
X139847Y825784D01*
X141167D01*
X141920Y825570D01*
X143172Y823401D01*
X145507Y821066D01*
X148367Y819415D01*
X151556Y818561D01*
X154858D01*
X158047Y819415D01*
X160907Y821066D01*
X163241Y823401D01*
X163527Y823895D01*
X166067Y823215D01*
Y818561D01*
X191147D01*
Y843641D01*
X182492D01*
Y846393D01*
X182196Y847880D01*
X181354Y849140D01*
X171247Y859247D01*
X169986Y860089D01*
X168500Y860385D01*
X77235D01*
X76184Y862204D01*
X74454Y863934D01*
X72336Y865157D01*
X69973Y865790D01*
X67527D01*
X65164Y865157D01*
X63046Y863934D01*
X61316Y862204D01*
X60093Y860086D01*
X59460Y857723D01*
Y855277D01*
X60093Y852914D01*
X61316Y850796D01*
X63046Y849066D01*
X65164Y847843D01*
X67527Y847210D01*
X69973D01*
X72336Y847843D01*
X74454Y849066D01*
X76184Y850796D01*
X77235Y852616D01*
X166891D01*
X173326Y846181D01*
X172274Y843641D01*
X166067D01*
Y838986D01*
X163527Y838306D01*
X163241Y838800D01*
X160907Y841135D01*
X158047Y842786D01*
X154858Y843641D01*
X151556D01*
X148367Y842786D01*
X145507Y841135D01*
X143172Y838800D01*
X141920Y836631D01*
X141167Y836417D01*
X139847D01*
X139094Y836631D01*
X137841Y838800D01*
X135507Y841135D01*
X132647Y842786D01*
X129458Y843641D01*
X126156D01*
X122967Y842786D01*
X120107Y841135D01*
X117772Y838800D01*
X116122Y835941D01*
X115267Y832751D01*
Y829450D01*
X116122Y826260D01*
X117772Y823401D01*
X120107Y821066D01*
X122967Y819415D01*
X123922Y819159D01*
Y799416D01*
X115891Y791385D01*
X66488D01*
X65001Y791089D01*
X63741Y790247D01*
X54753Y781259D01*
X53911Y779999D01*
X53615Y778512D01*
Y737549D01*
X51075Y736497D01*
X50459Y737114D01*
X48431Y738284D01*
X46170Y738890D01*
X43830D01*
X41569Y738284D01*
X39541Y737114D01*
X37886Y735459D01*
X36978Y733885D01*
X24109D01*
X21385Y736609D01*
Y935891D01*
X24609Y939115D01*
X27710D01*
Y933710D01*
X46290D01*
Y952290D01*
X27710D01*
Y946885D01*
X23000D01*
X21513Y946589D01*
X20253Y945747D01*
X14753Y940247D01*
X13911Y938987D01*
X13615Y937500D01*
Y735000D01*
X13911Y733513D01*
X14753Y732253D01*
X19753Y727253D01*
X21013Y726411D01*
X22500Y726115D01*
X36978D01*
X37886Y724541D01*
X39541Y722886D01*
X41569Y721716D01*
X43830Y721110D01*
X46170D01*
X48431Y721716D01*
X50459Y722886D01*
X51075Y723503D01*
X53615Y722451D01*
Y565000D01*
X53911Y563513D01*
X54753Y562253D01*
X61503Y555503D01*
X62764Y554661D01*
X64250Y554365D01*
X73960D01*
X73960Y548960D01*
X71967Y547639D01*
X38033D01*
X36040Y548960D01*
Y566040D01*
X18960D01*
Y548960D01*
X22361D01*
Y547090D01*
X22752Y545124D01*
X23866Y543457D01*
X28457Y538866D01*
X30124Y537752D01*
X32090Y537361D01*
X212500D01*
X214466Y537752D01*
X216134Y538866D01*
X230128Y552861D01*
X249196D01*
X250152Y550932D01*
X250307Y550321D01*
X249216Y548431D01*
X248610Y546170D01*
Y543830D01*
X249216Y541569D01*
X250386Y539541D01*
X252041Y537886D01*
X254069Y536716D01*
X255186Y536416D01*
Y514097D01*
X254317Y513737D01*
X251698Y511727D01*
X249688Y509108D01*
X249316Y508210D01*
X246567D01*
X246195Y509108D01*
X244185Y511727D01*
X241566Y513737D01*
X238515Y515001D01*
X235242Y515432D01*
X231968Y515001D01*
X228918Y513737D01*
X226298Y511727D01*
X224288Y509108D01*
X223916Y508210D01*
X221167D01*
X220795Y509108D01*
X218785Y511727D01*
X216166Y513737D01*
X213115Y515001D01*
X209842Y515432D01*
X206568Y515001D01*
X203517Y513737D01*
X200898Y511727D01*
X198888Y509108D01*
X198516Y508210D01*
X195767D01*
X195395Y509108D01*
X193385Y511727D01*
X190766Y513737D01*
X187715Y515001D01*
X184442Y515432D01*
X181168Y515001D01*
X178118Y513737D01*
X175498Y511727D01*
X173488Y509108D01*
X172224Y506057D01*
X171793Y502783D01*
X172224Y499510D01*
X173488Y496459D01*
X175498Y493840D01*
X178118Y491830D01*
X181168Y490566D01*
X184442Y490135D01*
X187715Y490566D01*
X190766Y491830D01*
X193385Y493840D01*
X195395Y496459D01*
X195767Y497357D01*
X198516D01*
X198888Y496459D01*
X200898Y493840D01*
X203517Y491830D01*
X206568Y490566D01*
X209842Y490135D01*
X213115Y490566D01*
X216166Y491830D01*
X218785Y493840D01*
X220795Y496459D01*
X221167Y497357D01*
X223916D01*
X224288Y496459D01*
X226298Y493840D01*
X228918Y491830D01*
X231968Y490566D01*
X235242Y490135D01*
X238515Y490566D01*
X241566Y491830D01*
X244185Y493840D01*
X246195Y496459D01*
X246567Y497357D01*
X249316D01*
X249688Y496459D01*
X251698Y493840D01*
X254317Y491830D01*
X257368Y490566D01*
X260642Y490135D01*
X263915Y490566D01*
X266966Y491830D01*
X269585Y493840D01*
X271595Y496459D01*
X271967Y497357D01*
X274716D01*
X275088Y496459D01*
X277098Y493840D01*
X279718Y491830D01*
X282768Y490566D01*
X286042Y490135D01*
X289315Y490566D01*
X292366Y491830D01*
X294985Y493840D01*
X296995Y496459D01*
X297367Y497357D01*
X300116D01*
X300488Y496459D01*
X302498Y493840D01*
X305117Y491830D01*
X308168Y490566D01*
X311442Y490135D01*
X314715Y490566D01*
X317766Y491830D01*
X320385Y493840D01*
X322395Y496459D01*
X322767Y497357D01*
X325516D01*
X325888Y496459D01*
X327898Y493840D01*
X330518Y491830D01*
X333568Y490566D01*
X336842Y490135D01*
X340115Y490566D01*
X343166Y491830D01*
X345785Y493840D01*
X347795Y496459D01*
X348167Y497357D01*
X350916D01*
X351288Y496459D01*
X353298Y493840D01*
X355918Y491830D01*
X358968Y490566D01*
X362242Y490135D01*
X365515Y490566D01*
X368566Y491830D01*
X371185Y493840D01*
X373195Y496459D01*
X373567Y497357D01*
X376316D01*
X376688Y496459D01*
X378698Y493840D01*
X381317Y491830D01*
X384368Y490566D01*
X387642Y490135D01*
X390915Y490566D01*
X393966Y491830D01*
X396585Y493840D01*
X398595Y496459D01*
X398967Y497357D01*
X401716D01*
X402088Y496459D01*
X404098Y493840D01*
X406717Y491830D01*
X409768Y490566D01*
X413042Y490135D01*
X416315Y490566D01*
X419366Y491830D01*
X421985Y493840D01*
X423995Y496459D01*
X424367Y497357D01*
X427116D01*
X427488Y496459D01*
X429498Y493840D01*
X432118Y491830D01*
X435168Y490566D01*
X438442Y490135D01*
X441715Y490566D01*
X444766Y491830D01*
X447385Y493840D01*
X449395Y496459D01*
X449767Y497357D01*
X452516D01*
X452888Y496459D01*
X454898Y493840D01*
X457518Y491830D01*
X460568Y490566D01*
X463842Y490135D01*
X467115Y490566D01*
X470166Y491830D01*
X472785Y493840D01*
X474795Y496459D01*
X475167Y497357D01*
X477916D01*
X478288Y496459D01*
X480298Y493840D01*
X482918Y491830D01*
X485968Y490566D01*
X489242Y490135D01*
X492515Y490566D01*
X495566Y491830D01*
X498185Y493840D01*
X500195Y496459D01*
X500567Y497357D01*
X503316D01*
X503688Y496459D01*
X505698Y493840D01*
X508317Y491830D01*
X511368Y490566D01*
X514642Y490135D01*
X517915Y490566D01*
X520966Y491830D01*
X523585Y493840D01*
X525595Y496459D01*
X525967Y497357D01*
X528716D01*
X529088Y496459D01*
X531098Y493840D01*
X533717Y491830D01*
X536768Y490566D01*
X540042Y490135D01*
X543315Y490566D01*
X546366Y491830D01*
X548985Y493840D01*
X550995Y496459D01*
X551367Y497357D01*
X554116D01*
X554488Y496459D01*
X556498Y493840D01*
X559118Y491830D01*
X562168Y490566D01*
X565442Y490135D01*
X568715Y490566D01*
X571766Y491830D01*
X574385Y493840D01*
X576395Y496459D01*
X576767Y497357D01*
X579516D01*
X579888Y496459D01*
X581898Y493840D01*
X584518Y491830D01*
X587568Y490566D01*
X590842Y490135D01*
X594115Y490566D01*
X597166Y491830D01*
X599785Y493840D01*
X601795Y496459D01*
X602294Y497663D01*
X605043D01*
X605542Y496459D01*
X607552Y493840D01*
X610172Y491830D01*
X613222Y490566D01*
X616496Y490135D01*
X619769Y490566D01*
X622820Y491830D01*
X625439Y493840D01*
X627449Y496459D01*
X628713Y499510D01*
X629144Y502783D01*
X628713Y506057D01*
X627449Y509108D01*
X625439Y511727D01*
X622820Y513737D01*
X619769Y515001D01*
X616496Y515432D01*
X613222Y515001D01*
X610172Y513737D01*
X607552Y511727D01*
X605542Y509108D01*
X605043Y507904D01*
X602294D01*
X601795Y509108D01*
X599785Y511727D01*
X597166Y513737D01*
X594115Y515001D01*
X590842Y515432D01*
X587568Y515001D01*
X584518Y513737D01*
X581898Y511727D01*
X579888Y509108D01*
X579516Y508210D01*
X576767D01*
X576395Y509108D01*
X574385Y511727D01*
X571766Y513737D01*
X568715Y515001D01*
X565442Y515432D01*
X562168Y515001D01*
X559118Y513737D01*
X556498Y511727D01*
X554488Y509108D01*
X554116Y508210D01*
X551367D01*
X550995Y509108D01*
X548985Y511727D01*
X546366Y513737D01*
X543315Y515001D01*
X540042Y515432D01*
X536768Y515001D01*
X533717Y513737D01*
X531098Y511727D01*
X529088Y509108D01*
X528716Y508210D01*
X525967D01*
X525595Y509108D01*
X523585Y511727D01*
X520966Y513737D01*
X517915Y515001D01*
X514642Y515432D01*
X511368Y515001D01*
X508317Y513737D01*
X505698Y511727D01*
X503688Y509108D01*
X503316Y508210D01*
X500567D01*
X500195Y509108D01*
X498185Y511727D01*
X495566Y513737D01*
X492515Y515001D01*
X489242Y515432D01*
X485968Y515001D01*
X482918Y513737D01*
X480298Y511727D01*
X478288Y509108D01*
X477916Y508210D01*
X475167D01*
X474795Y509108D01*
X472785Y511727D01*
X470166Y513737D01*
X467726Y514748D01*
Y519733D01*
X474109Y526115D01*
X640891D01*
X644753Y522253D01*
X646013Y521411D01*
X647500Y521115D01*
X773391D01*
X784896Y509610D01*
X784216Y508431D01*
X783610Y506170D01*
Y503830D01*
X784216Y501569D01*
X785386Y499541D01*
X787041Y497886D01*
X789069Y496716D01*
X789699Y496547D01*
X790459Y493714D01*
X781872Y485127D01*
X780663Y483552D01*
X779904Y481718D01*
X777540Y482317D01*
Y495540D01*
X758960D01*
Y476960D01*
X764365D01*
Y452359D01*
X759753Y447747D01*
X758911Y446487D01*
X758615Y445000D01*
Y426902D01*
X758568Y426889D01*
X756392Y425634D01*
X754616Y423857D01*
X753360Y421682D01*
X752710Y419256D01*
Y416744D01*
X753360Y414317D01*
X754616Y412142D01*
X756392Y410366D01*
X758365Y409227D01*
Y400250D01*
X758661Y398764D01*
X759503Y397503D01*
X771907Y385099D01*
X771726Y382089D01*
X770126Y380489D01*
X768996Y378531D01*
X768410Y376346D01*
Y374084D01*
X768996Y371899D01*
X770126Y369940D01*
X771726Y368341D01*
X773685Y367210D01*
X775869Y366625D01*
X778131D01*
X780316Y367210D01*
X782275Y368341D01*
X783874Y369940D01*
X785005Y371899D01*
X785590Y374084D01*
Y376346D01*
X785005Y378531D01*
X783874Y380489D01*
X782275Y382089D01*
X780885Y382891D01*
Y385500D01*
X780589Y386986D01*
X779747Y388247D01*
X766135Y401859D01*
Y409227D01*
X768108Y410366D01*
X769884Y412142D01*
X771140Y414317D01*
X771790Y416744D01*
Y419256D01*
X771140Y421682D01*
X769884Y423857D01*
X768108Y425634D01*
X766385Y426628D01*
Y443391D01*
X770997Y448003D01*
X771839Y449263D01*
X772135Y450750D01*
Y476960D01*
X777104D01*
X777540Y476960D01*
X779645Y475909D01*
Y423886D01*
X779616Y423857D01*
X778360Y421682D01*
X777710Y419256D01*
Y416744D01*
X778360Y414317D01*
X779616Y412142D01*
X781392Y410366D01*
X783567Y409110D01*
X785994Y408460D01*
X788506D01*
X790932Y409110D01*
X793107Y410366D01*
X794883Y412142D01*
X796140Y414317D01*
X796790Y416744D01*
Y419256D01*
X796140Y421682D01*
X794883Y423857D01*
X794855Y423886D01*
Y476600D01*
X848650Y530395D01*
X888710D01*
Y527610D01*
X909490D01*
Y548390D01*
X906705D01*
Y565900D01*
X906446Y567868D01*
X905686Y569702D01*
X904478Y571278D01*
X894127Y581628D01*
X893180Y582355D01*
X893937Y584895D01*
X1025000D01*
X1026968Y585154D01*
X1028802Y585914D01*
X1030378Y587122D01*
X1073150Y629895D01*
X1126910D01*
Y627110D01*
X1147690D01*
Y647890D01*
X1126910D01*
Y645105D01*
X1070000D01*
X1068032Y644846D01*
X1066198Y644086D01*
X1064623Y642878D01*
X1021850Y600105D01*
X702747D01*
X700779Y599846D01*
X698945Y599086D01*
X697370Y597878D01*
X684085Y584593D01*
X681545Y585645D01*
Y707301D01*
X702747Y728503D01*
X703589Y729763D01*
X703885Y731250D01*
Y860000D01*
X703589Y861487D01*
X702747Y862747D01*
X698372Y867122D01*
X698372Y867122D01*
X692747Y872747D01*
X691487Y873589D01*
X690000Y873885D01*
X551609D01*
X536385Y889109D01*
Y933960D01*
X541790D01*
Y952540D01*
D02*
G37*
G36*
X938540Y783540D02*
X921460D01*
Y766460D01*
X938540D01*
Y783540D01*
D02*
G37*
G36*
X1096040Y783540D02*
X1078960D01*
Y766460D01*
X1096040D01*
Y783540D01*
D02*
G37*
G36*
X244978Y792490D02*
X241523D01*
X238134Y791816D01*
X234942Y790494D01*
X232069Y788575D01*
X229626Y786132D01*
X227707Y783259D01*
X226384Y780067D01*
X225710Y776678D01*
Y773223D01*
X226384Y769834D01*
X227707Y766642D01*
X229626Y763769D01*
X232069Y761326D01*
X234942Y759407D01*
X238134Y758084D01*
X241523Y757410D01*
X244978D01*
X248366Y758084D01*
X251558Y759407D01*
X254431Y761326D01*
X256874Y763769D01*
X258794Y766642D01*
X260116Y769834D01*
X260790Y773223D01*
Y776678D01*
X260116Y780067D01*
X258794Y783259D01*
X256874Y786132D01*
X254431Y788575D01*
X251558Y790494D01*
X248366Y791816D01*
X244978Y792490D01*
D02*
G37*
G36*
X738998Y791460D02*
X735543D01*
X732154Y790786D01*
X728962Y789464D01*
X726089Y787544D01*
X723646Y785101D01*
X721726Y782228D01*
X720404Y779036D01*
X719730Y775648D01*
Y772193D01*
X720404Y768804D01*
X721726Y765612D01*
X723646Y762739D01*
X726089Y760296D01*
X728962Y758376D01*
X732154Y757054D01*
X735543Y756380D01*
X738998D01*
X742386Y757054D01*
X745578Y758376D01*
X748451Y760296D01*
X750894Y762739D01*
X752814Y765612D01*
X754136Y768804D01*
X754810Y772193D01*
Y775648D01*
X754136Y779036D01*
X752814Y782228D01*
X750894Y785101D01*
X748451Y787544D01*
X745578Y789464D01*
X742386Y790786D01*
X738998Y791460D01*
D02*
G37*
G36*
X898641Y752590D02*
X755000D01*
X754009Y752393D01*
X753169Y751831D01*
X752607Y750991D01*
X752410Y750000D01*
Y652277D01*
X749870Y651225D01*
X748451Y652644D01*
X745578Y654564D01*
X742386Y655886D01*
X738998Y656560D01*
X735543D01*
X732154Y655886D01*
X728962Y654564D01*
X726089Y652644D01*
X723646Y650201D01*
X721726Y647328D01*
X720404Y644136D01*
X719730Y640747D01*
Y637292D01*
X720404Y633904D01*
X721726Y630712D01*
X723646Y627839D01*
X726089Y625396D01*
X728962Y623476D01*
X732154Y622154D01*
X735543Y621480D01*
X738998D01*
X742386Y622154D01*
X745578Y623476D01*
X748451Y625396D01*
X749870Y626815D01*
X752410Y625763D01*
Y612500D01*
X752607Y611509D01*
X753169Y610669D01*
X754009Y610107D01*
X755000Y609910D01*
X898641D01*
X899632Y610107D01*
X900472Y610669D01*
X901033Y611509D01*
X901231Y612500D01*
Y750000D01*
X901033Y750991D01*
X900472Y751831D01*
X899632Y752393D01*
X898641Y752590D01*
D02*
G37*
G36*
X1179875Y757354D02*
X1170125D01*
X1168189Y757099D01*
X1166385Y756352D01*
X1164837Y755163D01*
X1163648Y753614D01*
X1162901Y751811D01*
X1162646Y749875D01*
Y740125D01*
X1162901Y738189D01*
X1163648Y736385D01*
X1164837Y734836D01*
X1166385Y733648D01*
X1167270Y733281D01*
Y685540D01*
X1166210D01*
Y668460D01*
X1167145D01*
Y662900D01*
X1158380Y654135D01*
X1157171Y652560D01*
X1156412Y650726D01*
X1156153Y648758D01*
Y645646D01*
X1154386Y643880D01*
X1153018Y641511D01*
X1152310Y638868D01*
Y636132D01*
X1153018Y633490D01*
X1154386Y631121D01*
X1156321Y629186D01*
X1158690Y627818D01*
X1161332Y627110D01*
X1164068D01*
X1166711Y627818D01*
X1169080Y629186D01*
X1171014Y631121D01*
X1172382Y633490D01*
X1173090Y636132D01*
Y638868D01*
X1172382Y641511D01*
X1171363Y643277D01*
Y645608D01*
X1180128Y654372D01*
X1181336Y655947D01*
X1182096Y657782D01*
X1182355Y659750D01*
Y668460D01*
X1183290D01*
Y685540D01*
X1182480D01*
Y733178D01*
X1183614Y733648D01*
X1185163Y734836D01*
X1186352Y736385D01*
X1187099Y738189D01*
X1187354Y740125D01*
Y749875D01*
X1187099Y751811D01*
X1186352Y753614D01*
X1185163Y755163D01*
X1183614Y756352D01*
X1181811Y757099D01*
X1179875Y757354D01*
D02*
G37*
G36*
X244978Y657590D02*
X241523D01*
X238134Y656916D01*
X234942Y655594D01*
X232069Y653674D01*
X229626Y651231D01*
X227707Y648358D01*
X226384Y645166D01*
X225710Y641778D01*
Y638322D01*
X226384Y634934D01*
X227707Y631742D01*
X229626Y628869D01*
X232069Y626426D01*
X234942Y624506D01*
X238134Y623184D01*
X241523Y622510D01*
X244978D01*
X248366Y623184D01*
X251558Y624506D01*
X254431Y626426D01*
X256874Y628869D01*
X258794Y631742D01*
X260116Y634934D01*
X260790Y638322D01*
Y641778D01*
X260116Y645166D01*
X258794Y648358D01*
X256874Y651231D01*
X254431Y653674D01*
X251558Y655594D01*
X248366Y656916D01*
X244978Y657590D01*
D02*
G37*
G36*
X925868Y548390D02*
X923132D01*
X920490Y547682D01*
X918120Y546314D01*
X916186Y544380D01*
X914818Y542010D01*
X914110Y539368D01*
Y536632D01*
X914818Y533990D01*
X916186Y531620D01*
X918120Y529686D01*
X920490Y528318D01*
X923132Y527610D01*
X925868D01*
X928510Y528318D01*
X930880Y529686D01*
X932814Y531620D01*
X934182Y533990D01*
X934890Y536632D01*
Y539368D01*
X934182Y542010D01*
X932814Y544380D01*
X930880Y546314D01*
X928510Y547682D01*
X925868Y548390D01*
D02*
G37*
G36*
X133642Y515432D02*
X130368Y515001D01*
X127317Y513737D01*
X124698Y511727D01*
X122688Y509108D01*
X121424Y506057D01*
X120993Y502783D01*
X121424Y499510D01*
X122688Y496459D01*
X124698Y493840D01*
X127317Y491830D01*
X130368Y490566D01*
X133642Y490135D01*
X136915Y490566D01*
X139966Y491830D01*
X142585Y493840D01*
X144595Y496459D01*
X145859Y499510D01*
X146290Y502783D01*
X145859Y506057D01*
X144595Y509108D01*
X142585Y511727D01*
X139966Y513737D01*
X136915Y515001D01*
X133642Y515432D01*
D02*
G37*
G36*
X1089290Y492790D02*
X1068710D01*
Y472210D01*
X1089290D01*
Y492790D01*
D02*
G37*
G36*
X1009973Y495040D02*
X1007527D01*
X1005164Y494407D01*
X1003046Y493184D01*
X1001317Y491454D01*
X1000093Y489336D01*
X999460Y486973D01*
Y484527D01*
X1000093Y482164D01*
X1001317Y480046D01*
X1003046Y478316D01*
X1005164Y477093D01*
X1007527Y476460D01*
X1009973D01*
X1012336Y477093D01*
X1014454Y478316D01*
X1016184Y480046D01*
X1017235Y481866D01*
X1030141D01*
X1032253Y479753D01*
X1033513Y478911D01*
X1035000Y478615D01*
X1044388D01*
X1044412Y478528D01*
X1045766Y476182D01*
X1047682Y474266D01*
X1050029Y472911D01*
X1052646Y472210D01*
X1055355D01*
X1057972Y472911D01*
X1060319Y474266D01*
X1062234Y476182D01*
X1063589Y478528D01*
X1064290Y481145D01*
Y483855D01*
X1063589Y486472D01*
X1062234Y488818D01*
X1060319Y490734D01*
X1057972Y492089D01*
X1055355Y492790D01*
X1052646D01*
X1050029Y492089D01*
X1047682Y490734D01*
X1045766Y488818D01*
X1044412Y486472D01*
X1044388Y486385D01*
X1036609D01*
X1034497Y488497D01*
X1033236Y489339D01*
X1031750Y489635D01*
X1017235D01*
X1016184Y491454D01*
X1014454Y493184D01*
X1012336Y494407D01*
X1009973Y495040D01*
D02*
G37*
G36*
X1030586Y427540D02*
X1028074D01*
X1025648Y426890D01*
X1023472Y425634D01*
X1021696Y423858D01*
X1020440Y421683D01*
X1019790Y419256D01*
Y416744D01*
X1020440Y414318D01*
X1021696Y412142D01*
X1023472Y410366D01*
X1025648Y409110D01*
X1028074Y408460D01*
X1030586D01*
X1033012Y409110D01*
X1035188Y410366D01*
X1036964Y412142D01*
X1038220Y414318D01*
X1038870Y416744D01*
Y419256D01*
X1038220Y421683D01*
X1036964Y423858D01*
X1035188Y425634D01*
X1033012Y426890D01*
X1030586Y427540D01*
D02*
G37*
G36*
X977332D02*
X958252D01*
Y408460D01*
X977332D01*
Y427540D01*
D02*
G37*
G36*
X944048D02*
X941536D01*
X939110Y426890D01*
X936934Y425634D01*
X935158Y423858D01*
X933902Y421683D01*
X933252Y419256D01*
Y416744D01*
X933902Y414318D01*
X935158Y412142D01*
X936934Y410366D01*
X939110Y409110D01*
X941536Y408460D01*
X944048D01*
X946474Y409110D01*
X948650Y410366D01*
X950426Y412142D01*
X951682Y414318D01*
X952332Y416744D01*
Y419256D01*
X951682Y421683D01*
X950426Y423858D01*
X948650Y425634D01*
X946474Y426890D01*
X944048Y427540D01*
D02*
G37*
G36*
X919048D02*
X916536D01*
X914110Y426890D01*
X911934Y425634D01*
X910158Y423858D01*
X908902Y421683D01*
X908252Y419256D01*
Y416744D01*
X908902Y414318D01*
X910158Y412142D01*
X911934Y410366D01*
X914110Y409110D01*
X916536Y408460D01*
X919048D01*
X921474Y409110D01*
X923650Y410366D01*
X925426Y412142D01*
X926682Y414318D01*
X927332Y416744D01*
Y419256D01*
X926682Y421683D01*
X925426Y423858D01*
X923650Y425634D01*
X921474Y426890D01*
X919048Y427540D01*
D02*
G37*
G36*
X813506Y427540D02*
X810994D01*
X808568Y426889D01*
X806392Y425634D01*
X804616Y423857D01*
X803360Y421682D01*
X802710Y419256D01*
Y416744D01*
X803360Y414317D01*
X804616Y412142D01*
X806392Y410366D01*
X808568Y409110D01*
X810994Y408460D01*
X813506D01*
X815932Y409110D01*
X818108Y410366D01*
X819884Y412142D01*
X821140Y414317D01*
X821790Y416744D01*
Y419256D01*
X821140Y421682D01*
X819884Y423857D01*
X818108Y425634D01*
X815932Y426889D01*
X813506Y427540D01*
D02*
G37*
G36*
X747747Y495540D02*
X729167D01*
Y476960D01*
X734572D01*
Y450066D01*
X734503Y449997D01*
X733661Y448736D01*
X733365Y447250D01*
Y426773D01*
X731392Y425634D01*
X729616Y423857D01*
X728360Y421682D01*
X727710Y419256D01*
Y416744D01*
X728360Y414317D01*
X729616Y412142D01*
X731392Y410366D01*
X733365Y409227D01*
Y400250D01*
X733661Y398764D01*
X734503Y397503D01*
X736523Y395484D01*
Y382891D01*
X735133Y382089D01*
X733534Y380489D01*
X732403Y378531D01*
X731817Y376346D01*
Y374084D01*
X732403Y371899D01*
X733534Y369940D01*
X735133Y368341D01*
X737092Y367210D01*
X739277Y366625D01*
X741538D01*
X743723Y367210D01*
X745682Y368341D01*
X747281Y369940D01*
X748412Y371899D01*
X748997Y374084D01*
Y376346D01*
X748412Y378531D01*
X747281Y380489D01*
X745682Y382089D01*
X744292Y382891D01*
Y397093D01*
X743996Y398579D01*
X743154Y399839D01*
X741134Y401859D01*
Y409227D01*
X743107Y410366D01*
X744884Y412142D01*
X746140Y414317D01*
X746790Y416744D01*
Y419256D01*
X746140Y421682D01*
X744884Y423857D01*
X743107Y425634D01*
X741134Y426773D01*
Y445641D01*
X741204Y445710D01*
X742046Y446970D01*
X742341Y448457D01*
Y476960D01*
X747747D01*
Y495540D01*
D02*
G37*
G36*
X96170Y533890D02*
X93830D01*
X91569Y533284D01*
X89541Y532114D01*
X87886Y530459D01*
X86716Y528431D01*
X86110Y526170D01*
Y523830D01*
X86716Y521569D01*
X87886Y519541D01*
X89541Y517886D01*
X91115Y516978D01*
Y465000D01*
X91411Y463513D01*
X92253Y462253D01*
X108615Y445891D01*
Y381488D01*
X108911Y380001D01*
X109753Y378741D01*
X122327Y366167D01*
X123587Y365325D01*
X125074Y365029D01*
X129090D01*
X129595Y362490D01*
X127426Y361591D01*
X124806Y359581D01*
X122796Y356962D01*
X121533Y353911D01*
X121102Y350637D01*
X121533Y347364D01*
X122796Y344313D01*
X124806Y341694D01*
X127426Y339684D01*
X130476Y338420D01*
X133750Y337989D01*
X137023Y338420D01*
X140074Y339684D01*
X142693Y341694D01*
X144703Y344313D01*
X145075Y345211D01*
X147824D01*
X148196Y344313D01*
X150206Y341694D01*
X152826Y339684D01*
X155876Y338420D01*
X159150Y337989D01*
X162423Y338420D01*
X165474Y339684D01*
X168093Y341694D01*
X170103Y344313D01*
X170475Y345211D01*
X173224D01*
X173596Y344313D01*
X175606Y341694D01*
X178226Y339684D01*
X181276Y338420D01*
X184550Y337989D01*
X187823Y338420D01*
X190874Y339684D01*
X193493Y341694D01*
X195503Y344313D01*
X195875Y345211D01*
X198624D01*
X198996Y344313D01*
X201006Y341694D01*
X203626Y339684D01*
X206676Y338420D01*
X209950Y337989D01*
X213223Y338420D01*
X216274Y339684D01*
X218893Y341694D01*
X220903Y344313D01*
X221275Y345211D01*
X224024D01*
X224396Y344313D01*
X226406Y341694D01*
X229026Y339684D01*
X231465Y338673D01*
Y327150D01*
X231761Y325664D01*
X232603Y324403D01*
X247493Y309513D01*
X248753Y308671D01*
X250240Y308375D01*
X669760D01*
X671247Y308671D01*
X672507Y309513D01*
X682747Y319753D01*
X683589Y321013D01*
X683885Y322500D01*
Y364411D01*
X690804Y371330D01*
X696389D01*
X697191Y369940D01*
X698791Y368341D01*
X700750Y367210D01*
X702934Y366625D01*
X705196D01*
X707381Y367210D01*
X709340Y368341D01*
X710939Y369940D01*
X712070Y371899D01*
X712655Y374084D01*
Y376346D01*
X712070Y378531D01*
X710939Y380489D01*
X709340Y382089D01*
X708885Y382351D01*
Y398391D01*
X714997Y404503D01*
X715839Y405763D01*
X716135Y407250D01*
Y408460D01*
X721790D01*
Y427540D01*
X716135D01*
Y445492D01*
X715839Y446978D01*
X714997Y448239D01*
X713091Y450144D01*
Y476960D01*
X718497D01*
Y495540D01*
X699917D01*
Y476960D01*
X705322D01*
Y448535D01*
X705618Y447049D01*
X706460Y445788D01*
X708365Y443883D01*
Y427540D01*
X702710D01*
Y408460D01*
X704647D01*
X705619Y406113D01*
X702253Y402747D01*
X701411Y401487D01*
X701115Y400000D01*
Y383317D01*
X700750Y383219D01*
X698791Y382089D01*
X697191Y380489D01*
X696389Y379100D01*
X689194D01*
X687708Y378804D01*
X686448Y377962D01*
X683514Y375028D01*
X680681Y375787D01*
X680590Y376126D01*
X679419Y378153D01*
X677764Y379808D01*
X675737Y380979D01*
X673476Y381585D01*
X673425D01*
X673090Y384124D01*
X673431Y384216D01*
X675459Y385386D01*
X677114Y387041D01*
X678284Y389069D01*
X678890Y391330D01*
Y393670D01*
X678284Y395931D01*
X677114Y397959D01*
X675459Y399614D01*
X673431Y400784D01*
X671170Y401390D01*
X668830D01*
X666569Y400784D01*
X664541Y399614D01*
X662886Y397959D01*
X661716Y395931D01*
X661110Y393670D01*
Y391330D01*
X661580Y389574D01*
X652253Y380247D01*
X651411Y378987D01*
X651115Y377500D01*
Y364109D01*
X623471Y336465D01*
X570740D01*
X570235Y339005D01*
X571874Y339684D01*
X574493Y341694D01*
X576503Y344313D01*
X577767Y347364D01*
X578198Y350637D01*
X577767Y353911D01*
X576503Y356962D01*
X574493Y359581D01*
X571874Y361591D01*
X568823Y362855D01*
X565550Y363286D01*
X562276Y362855D01*
X559226Y361591D01*
X556606Y359581D01*
X554596Y356962D01*
X554224Y356064D01*
X551475D01*
X551103Y356962D01*
X549093Y359581D01*
X546474Y361591D01*
X543423Y362855D01*
X540150Y363286D01*
X536876Y362855D01*
X533826Y361591D01*
X531206Y359581D01*
X529196Y356962D01*
X528824Y356064D01*
X526075D01*
X525703Y356962D01*
X523693Y359581D01*
X521074Y361591D01*
X518425Y362688D01*
Y362959D01*
X518130Y364446D01*
X517287Y365706D01*
X511333Y371661D01*
X510072Y372503D01*
X508586Y372799D01*
X126683D01*
X116385Y383097D01*
Y447500D01*
X116089Y448987D01*
X115247Y450247D01*
X98885Y466609D01*
Y516978D01*
X100459Y517886D01*
X102114Y519541D01*
X103284Y521569D01*
X103890Y523830D01*
Y526170D01*
X103284Y528431D01*
X102114Y530459D01*
X100459Y532114D01*
X98431Y533284D01*
X96170Y533890D01*
D02*
G37*
G36*
X1157561Y409040D02*
X1152439D01*
X1147380Y408239D01*
X1142509Y406656D01*
X1137945Y404331D01*
X1133802Y401320D01*
X1130180Y397699D01*
X1127169Y393555D01*
X1124844Y388991D01*
X1123261Y384120D01*
X1122460Y379061D01*
Y373939D01*
X1123261Y368880D01*
X1124844Y364009D01*
X1127169Y359445D01*
X1130180Y355302D01*
X1133802Y351680D01*
X1137945Y348670D01*
X1142509Y346344D01*
X1147380Y344761D01*
X1152439Y343960D01*
X1157561D01*
X1162620Y344761D01*
X1167491Y346344D01*
X1172055Y348670D01*
X1176198Y351680D01*
X1179820Y355302D01*
X1182831Y359445D01*
X1185156Y364009D01*
X1186739Y368880D01*
X1187540Y373939D01*
Y379061D01*
X1186739Y384120D01*
X1185156Y388991D01*
X1182831Y393555D01*
X1179820Y397699D01*
X1176198Y401320D01*
X1172055Y404331D01*
X1167491Y406656D01*
X1162620Y408239D01*
X1157561Y409040D01*
D02*
G37*
G36*
X50061D02*
X44939D01*
X39880Y408239D01*
X35009Y406656D01*
X30445Y404331D01*
X26302Y401320D01*
X22680Y397699D01*
X19669Y393555D01*
X17344Y388991D01*
X15761Y384120D01*
X14960Y379061D01*
Y373939D01*
X15761Y368880D01*
X17344Y364009D01*
X19669Y359445D01*
X22680Y355302D01*
X26302Y351680D01*
X30445Y348670D01*
X35009Y346344D01*
X39880Y344761D01*
X44939Y343960D01*
X50061D01*
X55120Y344761D01*
X59991Y346344D01*
X64555Y348670D01*
X68698Y351680D01*
X72320Y355302D01*
X75331Y359445D01*
X77656Y364009D01*
X79239Y368880D01*
X80040Y373939D01*
Y379061D01*
X79239Y384120D01*
X77656Y388991D01*
X75331Y393555D01*
X72320Y397699D01*
X68698Y401320D01*
X64555Y404331D01*
X59991Y406656D01*
X55120Y408239D01*
X50061Y409040D01*
D02*
G37*
G36*
X1055586Y427540D02*
X1053074D01*
X1050648Y426890D01*
X1048472Y425634D01*
X1046696Y423858D01*
X1045440Y421683D01*
X1044790Y419256D01*
Y416744D01*
X1045440Y414318D01*
X1046696Y412142D01*
X1048472Y410366D01*
X1050445Y409227D01*
Y330939D01*
X1045891Y326385D01*
X946390D01*
Y328670D01*
X945784Y330931D01*
X944614Y332959D01*
X942959Y334614D01*
X940931Y335784D01*
X938670Y336390D01*
X936330D01*
X934069Y335784D01*
X932041Y334614D01*
X930386Y332959D01*
X929216Y330931D01*
X928610Y328670D01*
Y326330D01*
X929216Y324069D01*
X930386Y322041D01*
X932041Y320386D01*
X934069Y319216D01*
X936330Y318610D01*
X938670D01*
X939248Y318765D01*
X940000Y318615D01*
X1047500D01*
X1048987Y318911D01*
X1050247Y319753D01*
X1057077Y326583D01*
X1057919Y327844D01*
X1058215Y329330D01*
Y409227D01*
X1060188Y410366D01*
X1061964Y412142D01*
X1063220Y414318D01*
X1063870Y416744D01*
Y419256D01*
X1063220Y421683D01*
X1061964Y423858D01*
X1060188Y425634D01*
X1058012Y426890D01*
X1055586Y427540D01*
D02*
G37*
%LPD*%
G36*
X920480Y813404D02*
X785250D01*
Y1201596D01*
X920480D01*
Y813404D01*
D02*
G37*
G36*
X898641Y612500D02*
X755000D01*
Y750000D01*
X898641D01*
Y612500D01*
D02*
G37*
D12*
X338038Y558038D02*
X345000Y565000D01*
X335060Y558000D02*
X335098Y558038D01*
X302750Y558000D02*
X335060D01*
X335098Y558038D02*
X338038D01*
X355000Y551728D02*
Y562500D01*
X259071Y504354D02*
Y543429D01*
X257500Y545000D02*
X259071Y543429D01*
X512420Y782507D02*
X534913Y805000D01*
X577500D01*
X275160Y317340D02*
X657091D01*
X662251Y322500D02*
X665000D01*
X657091Y317340D02*
X662251Y322500D01*
X467749Y607500D02*
X473285Y601964D01*
X475536D02*
X477500Y600000D01*
X465000Y607500D02*
X467749D01*
X473285Y601964D02*
X475536D01*
X436301Y604050D02*
X439751Y607500D01*
X420308Y604050D02*
X436301D01*
X439751Y607500D02*
X442500D01*
X420864Y590793D02*
X441707D01*
X442500Y590000D01*
X512420Y575080D02*
Y782507D01*
X530250Y770250D02*
X544750D01*
X517500Y757500D02*
X530250Y770250D01*
X64840Y606160D02*
X83350Y587650D01*
X64840Y606160D02*
Y741451D01*
X68750Y745361D01*
Y766500D01*
X75000Y730000D02*
X100000D01*
X665700Y563200D02*
X677660Y575160D01*
X632058Y563200D02*
X665700D01*
X677660Y575160D02*
Y708910D01*
X333992Y538690D02*
X339955Y544654D01*
X379343D01*
X384157Y539840D01*
X117898Y562352D02*
X118000Y562250D01*
X107500Y560864D02*
X108988Y562352D01*
X100000Y542500D02*
X107500Y550000D01*
X108988Y562352D02*
X117898D01*
X107500Y550000D02*
Y560864D01*
X311442Y502783D02*
Y536442D01*
X259071Y504354D02*
X260642Y502783D01*
X313690Y538690D02*
X333992D01*
X311442Y536442D02*
X313690Y538690D01*
X285000Y529760D02*
X285521Y529239D01*
Y503304D02*
Y529239D01*
X338579Y520932D02*
X339986Y522339D01*
Y530316D02*
X341930Y532260D01*
X339986Y522339D02*
Y530316D01*
X338579Y504521D02*
Y520932D01*
X358450Y565950D02*
X370192D01*
X355000Y562500D02*
X358450Y565950D01*
X455000Y534760D02*
Y557625D01*
X567500Y545000D02*
Y561671D01*
X568988Y563159D02*
X581902D01*
X567500Y561671D02*
X568988Y563159D01*
X581902D02*
X581942Y563200D01*
X384157Y539840D02*
X427024D01*
X464840Y577656D01*
X657435Y588600D02*
X665000Y581035D01*
Y580000D02*
Y581035D01*
X632058Y588600D02*
X657435D01*
X677660Y708910D02*
X700000Y731250D01*
X472500Y530000D02*
X642500D01*
X463842Y521342D02*
X472500Y530000D01*
X642500D02*
X647500Y525000D01*
X792500Y505000D02*
Y507500D01*
X647500Y525000D02*
X775000D01*
X792500Y507500D01*
X463842Y502783D02*
Y521342D01*
X95000Y465000D02*
Y525000D01*
X112500Y381488D02*
Y447500D01*
X95000Y465000D02*
X112500Y447500D01*
X514541Y350847D02*
Y362959D01*
X508586Y368914D02*
X514541Y362959D01*
X125074Y368914D02*
X508586D01*
X514541Y350847D02*
X514750Y350637D01*
X112500Y381488D02*
X125074Y368914D01*
X200160Y572660D02*
Y629840D01*
X168116Y587650D02*
X184850D01*
X190000Y582500D01*
X189825Y600175D02*
X190000Y600000D01*
X168116Y600350D02*
X168290Y600175D01*
X189825D01*
X372500Y530000D02*
X373570Y531070D01*
X383930D01*
X387642Y527358D01*
X336842Y502783D02*
X338579Y504521D01*
X189750Y562250D02*
X200160Y572660D01*
X100000Y730000D02*
X200160Y629840D01*
X387642Y502783D02*
Y527358D01*
X285521Y503304D02*
X286042Y502783D01*
X445950Y565950D02*
X452660Y572660D01*
X420308Y591350D02*
X420864Y590793D01*
X452660Y572660D02*
Y839840D01*
X464840Y589600D02*
X465000Y589760D01*
X464840Y577656D02*
Y589600D01*
X455000Y557625D02*
X477500Y580125D01*
Y600000D01*
X420308Y565950D02*
X445950D01*
X415000Y877500D02*
X452660Y839840D01*
X293988Y877500D02*
X415000D01*
X632058Y601300D02*
X656200D01*
X657018Y600482D01*
X1054330Y329330D02*
Y418000D01*
X940000Y322500D02*
X1047500D01*
X1054330Y329330D01*
X937500Y325000D02*
X940000Y322500D01*
X937500Y325000D02*
Y327500D01*
X655000Y377500D02*
X670000Y392500D01*
X657660Y342660D02*
X672306Y357306D01*
X317500Y327500D02*
X627184D01*
X642344Y342660D01*
X655000Y362500D02*
Y377500D01*
X625080Y332580D02*
X655000Y362500D01*
X417500Y332580D02*
X625080D01*
X642344Y342660D02*
X657660D01*
X680000Y322500D02*
Y366021D01*
X672306Y357306D02*
Y372695D01*
X680000Y366021D02*
X689194Y375215D01*
X704065D01*
X413150Y336930D02*
Y350637D01*
Y336930D02*
X417500Y332580D01*
X639920Y322420D02*
X650000Y332500D01*
X235350Y327150D02*
X250240Y312260D01*
X669760D01*
X260750Y331750D02*
X275160Y317340D01*
X311550Y333450D02*
X317500Y327500D01*
X300080Y322420D02*
X639920D01*
X286150Y336350D02*
X300080Y322420D01*
X669760Y312260D02*
X680000Y322500D01*
X311550Y333450D02*
Y350637D01*
X260750Y331750D02*
Y350637D01*
X286150Y336350D02*
Y350637D01*
X1035000Y482500D02*
X1054000D01*
X1054000Y482500D01*
X1008750Y485750D02*
X1031750D01*
X1035000Y482500D01*
X740407Y375215D02*
Y397093D01*
X762500Y418250D02*
Y445000D01*
X762250Y418000D02*
X762500Y418250D01*
Y445000D02*
X768250Y450750D01*
Y486250D01*
X762250Y400250D02*
X777000Y385500D01*
Y375215D02*
Y385500D01*
X762250Y400250D02*
Y418000D01*
X235350Y327150D02*
Y350637D01*
X704065Y375215D02*
X705000Y376150D01*
X737250Y400250D02*
Y418000D01*
Y400250D02*
X740407Y397093D01*
X705000Y376150D02*
Y400000D01*
X712250Y407250D01*
Y418000D01*
X737250D02*
Y447250D01*
X738457Y448457D01*
Y486250D01*
X709207Y448535D02*
X712250Y445492D01*
X709207Y448535D02*
Y486250D01*
X712250Y418000D02*
Y445492D01*
X529250Y558250D02*
X543500D01*
X512420Y575080D02*
X529250Y558250D01*
X543500D02*
X553250D01*
X517500Y610000D02*
Y757500D01*
Y610000D02*
X538900Y588600D01*
X609500Y1033000D02*
X617500Y1025000D01*
X563000Y1033000D02*
X609500D01*
X617500Y900621D02*
Y1025000D01*
X616439Y899560D02*
X617500Y900621D01*
X532625Y1033125D02*
X562875D01*
X532500Y1033250D02*
X532625Y1033125D01*
X562875D02*
X563000Y1033000D01*
X550000Y870000D02*
X690000D01*
X532500Y887500D02*
Y943250D01*
Y887500D02*
X550000Y870000D01*
X690000D02*
X695625Y864375D01*
X700000Y860000D01*
Y731250D02*
Y860000D01*
X544750Y860250D02*
X663001D01*
X667239Y831100D02*
Y856012D01*
X663001Y860250D02*
X667239Y856012D01*
X538900Y588600D02*
X581942D01*
X556750Y608250D02*
X563700Y601300D01*
X581942D01*
X543500Y608250D02*
X556750D01*
X570900Y575900D02*
X581942D01*
X553250Y558250D02*
X570900Y575900D01*
X286707Y884781D02*
Y943000D01*
Y884781D02*
X293988Y877500D01*
X292500Y568250D02*
Y817500D01*
Y568250D02*
X302750Y558000D01*
X306100Y831100D02*
X356870D01*
X292500Y817500D02*
X306100Y831100D01*
X57500Y565000D02*
Y778512D01*
X66488Y787500D01*
X57500Y565000D02*
X64250Y558250D01*
X17500Y735000D02*
X22500Y730000D01*
X45000D01*
X17500Y735000D02*
Y937500D01*
X23000Y943000D01*
X37000D01*
X168116Y562250D02*
X189750D01*
X66488Y787500D02*
X117500D01*
X98246Y604954D02*
X102850Y600350D01*
X128270Y899560D02*
Y1024230D01*
X67500Y1033000D02*
X119500D01*
X128270Y1024230D01*
X127807Y797807D02*
Y831101D01*
X117500Y787500D02*
X127807Y797807D01*
X64250Y558250D02*
X82750D01*
X357500Y900190D02*
Y1017500D01*
X356870Y899560D02*
X357500Y900190D01*
X342000Y1033000D02*
X357500Y1017500D01*
X315750Y1033000D02*
X342000D01*
X286707D02*
X315750D01*
X37000D02*
X67500D01*
X168500Y856500D02*
X178607Y846393D01*
Y831101D02*
Y846393D01*
X68750Y856500D02*
X168500D01*
X82750Y558250D02*
Y573462D01*
X84238Y574950D01*
X118000D01*
X83350Y587650D02*
X118000D01*
X82750Y608250D02*
X94949D01*
X102850Y600350D01*
X118000D01*
X394749Y860250D02*
X407670Y847330D01*
Y831100D02*
Y847330D01*
X304750Y860250D02*
X394749D01*
X304750Y600250D02*
X313650Y591350D01*
X370192D01*
X348650Y578650D02*
X370192D01*
X345000Y575000D02*
X348650Y578650D01*
X345000Y565000D02*
Y575000D01*
X304750Y600250D02*
Y770250D01*
X346000Y608000D02*
X349950Y604050D01*
X370192D01*
X325250Y608000D02*
X346000D01*
D17*
X1087500Y725000D02*
D03*
X930000Y725000D02*
D03*
X27500Y607500D02*
D03*
X325250Y608000D02*
D03*
X497500Y607500D02*
D03*
X277500Y608000D02*
D03*
X543500Y608250D02*
D03*
X82500Y607500D02*
D03*
X1124750Y677000D02*
D03*
D18*
X1087500Y775000D02*
D03*
X930000Y775000D02*
D03*
X27500Y557500D02*
D03*
X325250Y558000D02*
D03*
X497500Y557500D02*
D03*
X277500Y558000D02*
D03*
X543500Y558250D02*
D03*
X82500Y557500D02*
D03*
D21*
X382270Y831100D02*
D03*
X356870D02*
D03*
X382270Y899560D02*
D03*
X407670D02*
D03*
X641839D02*
D03*
X667239D02*
D03*
X641839Y831100D02*
D03*
X616439D02*
D03*
X179070Y899560D02*
D03*
X153670D02*
D03*
X127807Y831101D02*
D03*
X153207D02*
D03*
D22*
X407670Y831100D02*
D03*
X356870Y899560D02*
D03*
X616439D02*
D03*
X667239Y831100D02*
D03*
X128270Y899560D02*
D03*
X178607Y831101D02*
D03*
D23*
X823250Y732150D02*
D03*
Y831350D02*
D03*
X857250Y732150D02*
D03*
D24*
Y831350D02*
D03*
D26*
X924500Y538000D02*
D03*
X1162700Y637500D02*
D03*
D27*
X899100Y538000D02*
D03*
X1137300Y637500D02*
D03*
D28*
X1029330Y418000D02*
D03*
X1054330D02*
D03*
X917792D02*
D03*
X892792D02*
D03*
X942792D02*
D03*
X737250Y418000D02*
D03*
X762250D02*
D03*
X787250D02*
D03*
X812250D02*
D03*
X837250D02*
D03*
D29*
X1079330Y418000D02*
D03*
X967792D02*
D03*
X712250Y418000D02*
D03*
D33*
X1174750Y677000D02*
D03*
D36*
X1054000Y482500D02*
D03*
D37*
X1079000D02*
D03*
D42*
X702747Y592500D02*
X1025000D01*
X567500Y545000D02*
X660000D01*
X687500Y577253D02*
X702747Y592500D01*
X660000Y545000D02*
X687500Y572500D01*
Y577253D01*
X1025000Y592500D02*
X1070000Y637500D01*
X1137300D01*
X497500Y557500D02*
X498500Y556500D01*
X504358Y540000D02*
X557500D01*
X498500Y545858D02*
Y556500D01*
Y545858D02*
X504358Y540000D01*
X562500Y545000D02*
X567500D01*
X557500Y540000D02*
X562500Y545000D01*
X787250Y418000D02*
Y479750D01*
X845500Y538000D02*
X899100D01*
X787250Y479750D02*
X845500Y538000D01*
X899100D02*
Y565900D01*
X738457Y576250D02*
X768250D01*
X888750D01*
X899100Y565900D01*
X1174750Y659750D02*
Y677000D01*
X1163758Y648758D02*
X1174750Y659750D01*
X1163758Y638558D02*
Y648758D01*
X1162700Y637500D02*
X1163758Y638558D01*
X1174875Y677125D02*
Y744875D01*
X709207Y576250D02*
X738457D01*
D44*
X338106Y551728D02*
X355000D01*
X331378Y545000D02*
X338106Y551728D01*
X355000D02*
X413272D01*
X415000Y550000D01*
X228000Y558000D02*
X277500D01*
X212500Y542500D02*
X228000Y558000D01*
X278571Y556929D02*
X288071D01*
X277500Y558000D02*
X278571Y556929D01*
X300000Y545000D02*
X331378D01*
X288071Y556929D02*
X300000Y545000D01*
X27500Y547090D02*
X32090Y542500D01*
X100000D02*
X212500D01*
X32090D02*
X100000D01*
X27500Y547090D02*
Y557500D01*
D45*
X472500Y874550D02*
D03*
Y1009450D02*
D03*
X737270Y773920D02*
D03*
Y639020D02*
D03*
X243250Y774950D02*
D03*
Y640050D02*
D03*
Y1008700D02*
D03*
Y873800D02*
D03*
X737270Y1008700D02*
D03*
Y873800D02*
D03*
X472500Y775920D02*
D03*
Y641020D02*
D03*
D46*
X209842Y502783D02*
D03*
X184442D02*
D03*
X133642D02*
D03*
X235242D02*
D03*
X159042D02*
D03*
X260642D02*
D03*
X514750Y350637D02*
D03*
X616350D02*
D03*
X540150D02*
D03*
X565550D02*
D03*
X590950D02*
D03*
X489350D02*
D03*
X463950D02*
D03*
X413150D02*
D03*
X387750D02*
D03*
X362350D02*
D03*
X438550D02*
D03*
X336950D02*
D03*
X286150D02*
D03*
X133750D02*
D03*
X159150D02*
D03*
X184550D02*
D03*
X209950D02*
D03*
X311550D02*
D03*
X235350D02*
D03*
X260750D02*
D03*
X514642Y502783D02*
D03*
X616496D02*
D03*
X540042D02*
D03*
X565442D02*
D03*
X590842D02*
D03*
X489242D02*
D03*
X362242D02*
D03*
X286042D02*
D03*
X311442D02*
D03*
X336842D02*
D03*
X387642D02*
D03*
X413042D02*
D03*
X438442D02*
D03*
X463842D02*
D03*
D47*
X304750Y770250D02*
D03*
X768250Y486250D02*
D03*
X738457D02*
D03*
X709207D02*
D03*
X563000Y943000D02*
D03*
X532500Y943250D02*
D03*
X315750Y943000D02*
D03*
X286707D02*
D03*
X68750Y766500D02*
D03*
X37000Y943000D02*
D03*
X67500D02*
D03*
X544750Y770250D02*
D03*
D48*
X304750Y860250D02*
D03*
X1008750Y485750D02*
D03*
X768250Y576250D02*
D03*
X738457D02*
D03*
X709207D02*
D03*
X563000Y1033000D02*
D03*
X532500Y1033250D02*
D03*
X315750Y1033000D02*
D03*
X286707D02*
D03*
X68750Y856500D02*
D03*
X37000Y1033000D02*
D03*
X67500D02*
D03*
X544750Y860250D02*
D03*
D49*
X918750Y485750D02*
D03*
D50*
X777000Y349815D02*
D03*
Y375215D02*
D03*
X704065Y349815D02*
D03*
Y375215D02*
D03*
X740407D02*
D03*
Y349815D02*
D03*
D51*
X1175000Y745000D02*
D03*
D52*
Y795000D02*
D03*
D53*
X944500Y1001192D02*
D03*
Y926193D02*
D03*
X1134000Y926000D02*
D03*
Y1001000D02*
D03*
D54*
X153670Y1066120D02*
D03*
X383540D02*
D03*
X641840D02*
D03*
D55*
X47500Y1153470D02*
D03*
Y376500D02*
D03*
X1155000D02*
D03*
X1144770Y1153470D02*
D03*
D56*
X257500Y545000D02*
D03*
X577500Y805000D02*
D03*
X665000Y322500D02*
D03*
X465000Y607500D02*
D03*
X442500D02*
D03*
Y590000D02*
D03*
X1057500Y722500D02*
D03*
X75000Y730000D02*
D03*
X285000Y529760D02*
D03*
X341930Y532260D02*
D03*
X455000Y534760D02*
D03*
X415000Y550000D02*
D03*
X665000Y580000D02*
D03*
X792500Y505000D02*
D03*
X95000Y525000D02*
D03*
X190000Y582500D02*
D03*
Y600000D02*
D03*
X372500Y530000D02*
D03*
X465000Y589760D02*
D03*
X657018Y600482D02*
D03*
X670000Y392500D02*
D03*
X672306Y372695D02*
D03*
X937500Y327500D02*
D03*
X650000Y332500D02*
D03*
X45000Y730000D02*
D03*
D57*
X990000Y1117500D02*
D03*
X1015000D02*
D03*
X1040000D02*
D03*
X1065000D02*
D03*
Y1092500D02*
D03*
X1040000D02*
D03*
X1015000D02*
D03*
X990000D02*
D03*
X965000Y1117500D02*
D03*
Y1092500D02*
D03*
Y1142500D02*
D03*
X990000D02*
D03*
Y1167500D02*
D03*
X965000D02*
D03*
X990000Y1192500D02*
D03*
X965000D02*
D03*
X1065000Y1142500D02*
D03*
X1040000D02*
D03*
X1015000D02*
D03*
Y1167500D02*
D03*
X1040000D02*
D03*
X1065000D02*
D03*
Y1192500D02*
D03*
X1040000D02*
D03*
X1015000D02*
D03*
X855000Y1190000D02*
D03*
X880000D02*
D03*
X905000D02*
D03*
Y1165000D02*
D03*
X880000D02*
D03*
X855000D02*
D03*
Y1140000D02*
D03*
X880000D02*
D03*
X905000D02*
D03*
X805000Y1190000D02*
D03*
X830000D02*
D03*
X805000Y1165000D02*
D03*
X830000D02*
D03*
Y1140000D02*
D03*
X805000D02*
D03*
Y1090000D02*
D03*
Y1115000D02*
D03*
X830000Y1090000D02*
D03*
X855000D02*
D03*
X880000D02*
D03*
X905000D02*
D03*
Y1115000D02*
D03*
X880000D02*
D03*
X855000D02*
D03*
X830000D02*
D03*
X795000Y670000D02*
D03*
X820000D02*
D03*
X845000D02*
D03*
X870000D02*
D03*
Y645000D02*
D03*
X845000D02*
D03*
X820000D02*
D03*
X795000D02*
D03*
Y620000D02*
D03*
X820000D02*
D03*
X845000D02*
D03*
X870000D02*
D03*
X770000Y670000D02*
D03*
Y645000D02*
D03*
Y620000D02*
D03*
Y695000D02*
D03*
X795000D02*
D03*
Y720000D02*
D03*
X770000D02*
D03*
X795000Y745000D02*
D03*
X770000D02*
D03*
D58*
X581942Y575900D02*
D03*
X632058Y588600D02*
D03*
Y575900D02*
D03*
Y563200D02*
D03*
X581942D02*
D03*
Y588600D02*
D03*
Y601300D02*
D03*
X370192Y578650D02*
D03*
Y604050D02*
D03*
Y591350D02*
D03*
Y565950D02*
D03*
X420308D02*
D03*
Y578650D02*
D03*
Y591350D02*
D03*
X168116Y587650D02*
D03*
Y574950D02*
D03*
Y562250D02*
D03*
X118000D02*
D03*
Y587650D02*
D03*
Y600350D02*
D03*
Y574950D02*
D03*
D59*
X632058Y601300D02*
D03*
X420308Y604050D02*
D03*
X168116Y600350D02*
D03*
D60*
X853035Y1001192D02*
X1133807D01*
M02*
