G04*
G04 #@! TF.GenerationSoftware,Altium Limited,Altium Designer,24.8.2 (39)*
G04*
G04 Layer_Color=16711935*
%FSLAX44Y44*%
%MOMM*%
G71*
G04*
G04 #@! TF.SameCoordinates,2ADF9C04-DE7E-4385-BC50-A77D5B0DFB63*
G04*
G04*
G04 #@! TF.FilePolarity,Positive*
G04*
G01*
G75*
%ADD11C,0.2000*%
%ADD62C,0.1000*%
D11*
X1024525Y713225D02*
Y778275D01*
X989475D02*
X1024525D01*
X989475Y713225D02*
Y778275D01*
Y713225D02*
X1024525D01*
X1067500Y777500D02*
X1107500D01*
X1067500Y722500D02*
Y777500D01*
Y722500D02*
X1107500D01*
Y777500D01*
X950001Y722500D02*
Y777500D01*
X910000Y722500D02*
X950001D01*
X910000D02*
Y777500D01*
X950001D01*
X328520Y849150D02*
X436020D01*
X328520Y800850D02*
Y849150D01*
Y800850D02*
X436020D01*
Y849150D01*
X805950Y862400D02*
X874550D01*
X805950Y701100D02*
Y862400D01*
Y701100D02*
X874550D01*
Y862400D01*
X7500Y555000D02*
X47500D01*
Y610000D01*
X7500D02*
X47500D01*
X7500Y555000D02*
Y610000D01*
X305250Y555500D02*
Y610500D01*
X345250D01*
Y555500D02*
Y610500D01*
X305250Y555500D02*
X345250D01*
X477500Y555000D02*
X517500D01*
Y610000D01*
X477500D02*
X517500D01*
X477500Y555000D02*
Y610000D01*
X257500Y555500D02*
Y610500D01*
X297500D01*
Y555500D02*
Y610500D01*
X257500Y555500D02*
X297500D01*
X523500Y555750D02*
Y610750D01*
X563500D01*
Y555750D02*
Y610750D01*
X523500Y555750D02*
X563500D01*
X62500Y555000D02*
Y610000D01*
X102500D01*
Y555000D02*
Y610000D01*
X62500Y555000D02*
X102500D01*
X883900Y524800D02*
Y551200D01*
Y524800D02*
X939700D01*
Y551200D01*
X883900D02*
X939700D01*
X1103830Y394501D02*
Y452001D01*
X1004830D02*
X1103830D01*
X1004830Y394501D02*
Y452001D01*
Y394501D02*
X1103830D01*
X868292Y394500D02*
Y452000D01*
Y394500D02*
X992292D01*
Y452000D01*
X868292D02*
X992292D01*
X687750Y452000D02*
X861750D01*
Y394500D02*
Y452000D01*
X687750Y394500D02*
X861750D01*
X687750D02*
Y452000D01*
X761100Y387915D02*
X792900D01*
X761100Y337115D02*
Y387915D01*
Y337115D02*
X792900D01*
Y387915D01*
X688165D02*
X719965D01*
X688165Y337115D02*
Y387915D01*
Y337115D02*
X719965D01*
Y387915D01*
X756307Y337115D02*
Y387915D01*
X724508Y337115D02*
X756307D01*
X724508D02*
Y387915D01*
X756307D01*
X328520Y881510D02*
X436020D01*
Y929810D01*
X328520D02*
X436020D01*
X328520Y881510D02*
Y929810D01*
X588089Y881510D02*
Y929810D01*
X695589D01*
Y881510D02*
Y929810D01*
X588089Y881510D02*
X695589D01*
Y800850D02*
Y849150D01*
X588089Y800850D02*
X695589D01*
X588089D02*
Y849150D01*
X695589D01*
X99920Y881511D02*
X207420D01*
Y929810D01*
X99920D02*
X207420D01*
X99920Y881511D02*
Y929810D01*
X99457Y849150D02*
X206957D01*
X99457Y800851D02*
Y849150D01*
Y800851D02*
X206957D01*
Y849150D01*
X1122250Y657000D02*
X1177250D01*
X1122250D02*
Y697000D01*
X1177250D01*
Y657000D02*
Y697000D01*
X1122100Y624300D02*
Y650700D01*
Y624300D02*
X1177900D01*
Y650700D01*
X1122100D02*
X1177900D01*
X1103501Y459000D02*
Y516500D01*
X1029500D02*
X1103501D01*
X1029500Y459000D02*
Y516500D01*
Y459000D02*
X1103501D01*
D62*
X1034500Y963692D02*
G03*
X1034500Y963692I-90000J0D01*
G01*
X1224000Y963500D02*
G03*
X1224000Y963500I-90000J0D01*
G01*
X292750Y783750D02*
X316750D01*
X292750D02*
Y846750D01*
X316750Y783750D02*
Y846750D01*
X292750D02*
X316750D01*
X995250Y473750D02*
Y497750D01*
X932250Y473750D02*
X995250D01*
X932250Y497750D02*
X995250D01*
X932250Y473750D02*
Y497750D01*
X756250Y499750D02*
X780250D01*
X756250D02*
Y562750D01*
X780250Y499750D02*
Y562750D01*
X756250D02*
X780250D01*
X726457D02*
X750457D01*
Y499750D02*
Y562750D01*
X726457Y499750D02*
Y562750D01*
Y499750D02*
X750457D01*
X697207Y562750D02*
X721207D01*
Y499750D02*
Y562750D01*
X697207Y499750D02*
Y562750D01*
Y499750D02*
X721207D01*
X551000Y1019500D02*
X575000D01*
Y956500D02*
Y1019500D01*
X551000Y956500D02*
Y1019500D01*
Y956500D02*
X575000D01*
X520500Y1019750D02*
X544500D01*
Y956750D02*
Y1019750D01*
X520500Y956750D02*
Y1019750D01*
Y956750D02*
X544500D01*
X303750Y1019500D02*
X327750D01*
Y956500D02*
Y1019500D01*
X303750Y956500D02*
Y1019500D01*
Y956500D02*
X327750D01*
X274707Y1019500D02*
X298707D01*
Y956500D02*
Y1019500D01*
X274707Y956500D02*
Y1019500D01*
Y956500D02*
X298707D01*
X56750Y780000D02*
X80750D01*
X56750D02*
Y843000D01*
X80750Y780000D02*
Y843000D01*
X56750D02*
X80750D01*
X1208001Y720001D02*
Y820002D01*
X1183250Y714001D02*
X1191751D01*
X1183250D02*
X1184001Y720001D01*
X1191000D02*
X1191751Y714001D01*
X1191000Y720001D02*
X1208001D01*
X1133000D02*
Y820002D01*
Y720001D02*
X1184001D01*
X1142001Y826002D02*
X1151501D01*
X1142001D02*
X1142501Y820002D01*
X1151001D02*
X1151501Y826002D01*
X1133000Y820002D02*
X1142501D01*
X1151001D02*
X1208001D01*
X25000Y956500D02*
X49000D01*
X25000D02*
Y1019500D01*
X49000Y956500D02*
Y1019500D01*
X25000D02*
X49000D01*
X55500D02*
X79500D01*
Y956500D02*
Y1019500D01*
X55500Y956500D02*
Y1019500D01*
Y956500D02*
X79500D01*
X532750Y783750D02*
X556750D01*
X532750D02*
Y846750D01*
X556750Y783750D02*
Y846750D01*
X532750D02*
X556750D01*
X906464Y882125D02*
X982535D01*
X1095964Y881933D02*
X1172036D01*
M02*
