G04*
G04 #@! TF.GenerationSoftware,Altium Limited,Altium Designer,24.8.2 (39)*
G04*
G04 Layer_Color=128*
%FSLAX44Y44*%
%MOMM*%
G71*
G04*
G04 #@! TF.SameCoordinates,2ADF9C04-DE7E-4385-BC50-A77D5B0DFB63*
G04*
G04*
G04 #@! TF.FilePolarity,Positive*
G04*
G01*
G75*
%ADD64C,0.1270*%
D64*
X464750Y874550D02*
X480250D01*
X472500Y866800D02*
Y882300D01*
X464750Y1009450D02*
X480250D01*
X472500Y1001700D02*
Y1017200D01*
X729520Y773920D02*
X745020D01*
X737270Y766170D02*
Y781670D01*
X729520Y639020D02*
X745020D01*
X737270Y631270D02*
Y646770D01*
X204842Y502783D02*
X214842D01*
X209842Y497783D02*
Y507783D01*
X179442Y502783D02*
X189442D01*
X184442Y497783D02*
Y507783D01*
X128642Y502783D02*
X138642D01*
X133642Y497783D02*
Y507783D01*
X230242Y502783D02*
X240242D01*
X235242Y497783D02*
Y507783D01*
X154042Y502783D02*
X164042D01*
X159042Y497783D02*
Y507783D01*
X255642Y502783D02*
X265642D01*
X260642Y497783D02*
Y507783D01*
X509750Y350637D02*
X519750D01*
X514750Y345637D02*
Y355637D01*
X611350Y350637D02*
X621350D01*
X616350Y345637D02*
Y355637D01*
X535150Y350637D02*
X545150D01*
X540150Y345637D02*
Y355637D01*
X560550Y350637D02*
X570550D01*
X565550Y345637D02*
Y355637D01*
X585950Y350637D02*
X595950D01*
X590950Y345637D02*
Y355637D01*
X484350Y350637D02*
X494350D01*
X489350Y345637D02*
Y355637D01*
X458950Y350637D02*
X468950D01*
X463950Y345637D02*
Y355637D01*
X408150Y350637D02*
X418150D01*
X413150Y345637D02*
Y355637D01*
X382750Y350637D02*
X392750D01*
X387750Y345637D02*
Y355637D01*
X357350Y350637D02*
X367350D01*
X362350Y345637D02*
Y355637D01*
X433550Y350637D02*
X443550D01*
X438550Y345637D02*
Y355637D01*
X331950Y350637D02*
X341950D01*
X336950Y345637D02*
Y355637D01*
X281150Y350637D02*
X291150D01*
X286150Y345637D02*
Y355637D01*
X128750Y350637D02*
X138750D01*
X133750Y345637D02*
Y355637D01*
X154150Y350637D02*
X164150D01*
X159150Y345637D02*
Y355637D01*
X179550Y350637D02*
X189550D01*
X184550Y345637D02*
Y355637D01*
X204950Y350637D02*
X214950D01*
X209950Y345637D02*
Y355637D01*
X306550Y350637D02*
X316550D01*
X311550Y345637D02*
Y355637D01*
X230350Y350637D02*
X240350D01*
X235350Y345637D02*
Y355637D01*
X255750Y350637D02*
X265750D01*
X260750Y345637D02*
Y355637D01*
X509642Y502783D02*
X519642D01*
X514642Y497783D02*
Y507783D01*
X611496Y502783D02*
X621496D01*
X616496Y497783D02*
Y507783D01*
X535042Y502783D02*
X545042D01*
X540042Y497783D02*
Y507783D01*
X560442Y502783D02*
X570442D01*
X565442Y497783D02*
Y507783D01*
X585842Y502783D02*
X595842D01*
X590842Y497783D02*
Y507783D01*
X484242Y502783D02*
X494242D01*
X489242Y497783D02*
Y507783D01*
X357242Y502783D02*
X367242D01*
X362242Y497783D02*
Y507783D01*
X281042Y502783D02*
X291042D01*
X286042Y497783D02*
Y507783D01*
X306442Y502783D02*
X316442D01*
X311442Y497783D02*
Y507783D01*
X331842Y502783D02*
X341842D01*
X336842Y497783D02*
Y507783D01*
X382642Y502783D02*
X392642D01*
X387642Y497783D02*
Y507783D01*
X408042Y502783D02*
X418042D01*
X413042Y497783D02*
Y507783D01*
X433442Y502783D02*
X443442D01*
X438442Y497783D02*
Y507783D01*
X458842Y502783D02*
X468842D01*
X463842Y497783D02*
Y507783D01*
X1084000Y725000D02*
X1091000D01*
X1087500Y721500D02*
Y728500D01*
X1084000Y775000D02*
X1091000D01*
X1087500Y771500D02*
Y778500D01*
X926500Y775000D02*
X933500D01*
X930000Y771500D02*
Y778500D01*
X926500Y725000D02*
X933500D01*
X930000Y721500D02*
Y728500D01*
X300500Y770250D02*
X309000D01*
X304750Y766000D02*
Y774500D01*
X300500Y860250D02*
X309000D01*
X304750Y856000D02*
Y864500D01*
X375770Y831100D02*
X388770D01*
X382270Y824600D02*
Y837600D01*
X401170Y831100D02*
X414170D01*
X407670Y824600D02*
Y837600D01*
X350370Y831100D02*
X363370D01*
X356870Y824600D02*
Y837600D01*
X815250Y732150D02*
X831250D01*
X823250Y724150D02*
Y740150D01*
X815250Y831350D02*
X831250D01*
X823250Y823350D02*
Y839350D01*
X849250Y732150D02*
X865250D01*
X857250Y724150D02*
Y740150D01*
X849250Y831350D02*
X865250D01*
X857250Y823350D02*
Y839350D01*
X24000Y607500D02*
X31000D01*
X27500Y604000D02*
Y611000D01*
X24000Y557500D02*
X31000D01*
X27500Y554000D02*
Y561000D01*
X321750Y558000D02*
X328750D01*
X325250Y554500D02*
Y561500D01*
X321750Y608000D02*
X328750D01*
X325250Y604500D02*
Y611500D01*
X494000Y607500D02*
X501000D01*
X497500Y604000D02*
Y611000D01*
X494000Y557500D02*
X501000D01*
X497500Y554000D02*
Y561000D01*
X274000Y558000D02*
X281000D01*
X277500Y554500D02*
Y561500D01*
X274000Y608000D02*
X281000D01*
X277500Y604500D02*
Y611500D01*
X540000Y558250D02*
X547000D01*
X543500Y554750D02*
Y561750D01*
X540000Y608250D02*
X547000D01*
X543500Y604750D02*
Y611750D01*
X235500Y774950D02*
X251000D01*
X243250Y767200D02*
Y782700D01*
X235500Y640050D02*
X251000D01*
X243250Y632300D02*
Y647800D01*
X1004500Y485750D02*
X1013000D01*
X1008750Y481500D02*
Y490000D01*
X914500Y485750D02*
X923000D01*
X918750Y481500D02*
Y490000D01*
X79000Y557500D02*
X86000D01*
X82500Y554000D02*
Y561000D01*
X79000Y607500D02*
X86000D01*
X82500Y604000D02*
Y611000D01*
X919400Y538000D02*
X929600D01*
X924500Y532900D02*
Y543100D01*
X894000Y538000D02*
X904200D01*
X899100Y532900D02*
Y543100D01*
X764000Y486250D02*
X772500D01*
X768250Y482000D02*
Y490500D01*
X764000Y576250D02*
X772500D01*
X768250Y572000D02*
Y580500D01*
X734207Y576250D02*
X742707D01*
X738457Y572000D02*
Y580500D01*
X734207Y486250D02*
X742707D01*
X738457Y482000D02*
Y490500D01*
X704957Y576250D02*
X713457D01*
X709207Y572000D02*
Y580500D01*
X704957Y486250D02*
X713457D01*
X709207Y482000D02*
Y490500D01*
X1024830Y418000D02*
X1033830D01*
X1029330Y413500D02*
Y422500D01*
X1049830Y418000D02*
X1058830D01*
X1054330Y413500D02*
Y422500D01*
X1074830Y418000D02*
X1083830D01*
X1079330Y413500D02*
Y422500D01*
X963292Y418000D02*
X972292D01*
X967792Y413500D02*
Y422500D01*
X913292Y418000D02*
X922292D01*
X917792Y413500D02*
Y422500D01*
X888292Y418000D02*
X897292D01*
X892792Y413500D02*
Y422500D01*
X938292Y418000D02*
X947292D01*
X942792Y413500D02*
Y422500D01*
X707750Y418000D02*
X716750D01*
X712250Y413500D02*
Y422500D01*
X732750Y418000D02*
X741750D01*
X737250Y413500D02*
Y422500D01*
X757750Y418000D02*
X766750D01*
X762250Y413500D02*
Y422500D01*
X782750Y418000D02*
X791750D01*
X787250Y413500D02*
Y422500D01*
X807750Y418000D02*
X816750D01*
X812250Y413500D02*
Y422500D01*
X832750Y418000D02*
X841750D01*
X837250Y413500D02*
Y422500D01*
X773450Y349815D02*
X780550D01*
X777000Y346265D02*
Y353365D01*
X773450Y375215D02*
X780550D01*
X777000Y371665D02*
Y378765D01*
X700515Y349815D02*
X707615D01*
X704065Y346265D02*
Y353365D01*
X700515Y375215D02*
X707615D01*
X704065Y371665D02*
Y378765D01*
X736858Y375215D02*
X743958D01*
X740407Y371665D02*
Y378765D01*
X736858Y349815D02*
X743958D01*
X740407Y346265D02*
Y353365D01*
X375770Y899560D02*
X388770D01*
X382270Y893060D02*
Y906060D01*
X401170Y899560D02*
X414170D01*
X407670Y893060D02*
Y906060D01*
X350370Y899560D02*
X363370D01*
X356870Y893060D02*
Y906060D01*
X635339Y899560D02*
X648339D01*
X641839Y893060D02*
Y906060D01*
X609939Y899560D02*
X622939D01*
X616439Y893060D02*
Y906060D01*
X660739Y899560D02*
X673739D01*
X667239Y893060D02*
Y906060D01*
X660739Y831100D02*
X673739D01*
X667239Y824600D02*
Y837600D01*
X635339Y831100D02*
X648339D01*
X641839Y824600D02*
Y837600D01*
X609939Y831100D02*
X622939D01*
X616439Y824600D02*
Y837600D01*
X558750Y1033000D02*
X567250D01*
X563000Y1028750D02*
Y1037250D01*
X558750Y943000D02*
X567250D01*
X563000Y938750D02*
Y947250D01*
X528250Y1033250D02*
X536750D01*
X532500Y1029000D02*
Y1037500D01*
X528250Y943250D02*
X536750D01*
X532500Y939000D02*
Y947500D01*
X311500Y1033000D02*
X320000D01*
X315750Y1028750D02*
Y1037250D01*
X311500Y943000D02*
X320000D01*
X315750Y938750D02*
Y947250D01*
X282457Y1033000D02*
X290957D01*
X286707Y1028750D02*
Y1037250D01*
X282457Y943000D02*
X290957D01*
X286707Y938750D02*
Y947250D01*
X235500Y1008700D02*
X251000D01*
X243250Y1000950D02*
Y1016450D01*
X235500Y873800D02*
X251000D01*
X243250Y866050D02*
Y881550D01*
X172570Y899560D02*
X185570D01*
X179070Y893060D02*
Y906060D01*
X121770Y899560D02*
X134770D01*
X128270Y893060D02*
Y906060D01*
X147170Y899560D02*
X160170D01*
X153670Y893060D02*
Y906060D01*
X729520Y1008700D02*
X745020D01*
X737270Y1000950D02*
Y1016450D01*
X729520Y873800D02*
X745020D01*
X737270Y866050D02*
Y881550D01*
X64500Y766500D02*
X73000D01*
X68750Y762250D02*
Y770750D01*
X64500Y856500D02*
X73000D01*
X68750Y852250D02*
Y860750D01*
X1168500Y745000D02*
X1181500D01*
X1175000Y738500D02*
Y751500D01*
X1168500Y795000D02*
X1181500D01*
X1175000Y788500D02*
Y801500D01*
X32750Y943000D02*
X41250D01*
X37000Y938750D02*
Y947250D01*
X32750Y1033000D02*
X41250D01*
X37000Y1028750D02*
Y1037250D01*
X63250Y1033000D02*
X71750D01*
X67500Y1028750D02*
Y1037250D01*
X63250Y943000D02*
X71750D01*
X67500Y938750D02*
Y947250D01*
X540500Y770250D02*
X549000D01*
X544750Y766000D02*
Y774500D01*
X540500Y860250D02*
X549000D01*
X544750Y856000D02*
Y864500D01*
X464750Y775920D02*
X480250D01*
X472500Y768170D02*
Y783670D01*
X464750Y641020D02*
X480250D01*
X472500Y633270D02*
Y648770D01*
X121307Y831101D02*
X134307D01*
X127807Y824601D02*
Y837601D01*
X146707Y831101D02*
X159707D01*
X153207Y824601D02*
Y837601D01*
X172107Y831101D02*
X185107D01*
X178607Y824601D02*
Y837601D01*
X1171250Y677000D02*
X1178250D01*
X1174750Y673500D02*
Y680500D01*
X1121250Y677000D02*
X1128250D01*
X1124750Y673500D02*
Y680500D01*
X1157600Y637500D02*
X1167800D01*
X1162700Y632400D02*
Y642600D01*
X1132200Y637500D02*
X1142400D01*
X1137300Y632400D02*
Y642600D01*
X939500Y1001192D02*
X949500D01*
X944500Y996192D02*
Y1006192D01*
X939500Y926193D02*
X949500D01*
X944500Y921193D02*
Y931193D01*
X1129000Y926000D02*
X1139000D01*
X1134000Y921000D02*
Y931000D01*
X1129000Y1001000D02*
X1139000D01*
X1134000Y996000D02*
Y1006000D01*
X136170Y1066120D02*
X171170D01*
X153670Y1048620D02*
Y1083620D01*
X1049000Y482500D02*
X1059000D01*
X1054000Y477500D02*
Y487500D01*
X1074000Y482500D02*
X1084000D01*
X1079000Y477500D02*
Y487500D01*
X32500Y1153470D02*
X62500D01*
X47500Y1138470D02*
Y1168470D01*
X366040Y1066120D02*
X401040D01*
X383540Y1048620D02*
Y1083620D01*
X624340Y1066120D02*
X659340D01*
X641840Y1048620D02*
Y1083620D01*
X32500Y376500D02*
X62500D01*
X47500Y361500D02*
Y391500D01*
X1140000Y376500D02*
X1170000D01*
X1155000Y361500D02*
Y391500D01*
X1129770Y1153470D02*
X1159770D01*
X1144770Y1138470D02*
Y1168470D01*
X253944Y545000D02*
X261056D01*
X257500Y541444D02*
Y548556D01*
X573944Y805000D02*
X581056D01*
X577500Y801444D02*
Y808556D01*
X661444Y322500D02*
X668556D01*
X665000Y318944D02*
Y326056D01*
X461444Y607500D02*
X468556D01*
X465000Y603944D02*
Y611056D01*
X438944Y607500D02*
X446056D01*
X442500Y603944D02*
Y611056D01*
X438944Y590000D02*
X446056D01*
X442500Y586444D02*
Y593556D01*
X1053944Y722500D02*
X1061056D01*
X1057500Y718944D02*
Y726056D01*
X71444Y730000D02*
X78556D01*
X75000Y726444D02*
Y733556D01*
X987500Y1117500D02*
X992500D01*
X990000Y1115000D02*
Y1120000D01*
X1012500Y1117500D02*
X1017500D01*
X1015000Y1115000D02*
Y1120000D01*
X1037500Y1117500D02*
X1042500D01*
X1040000Y1115000D02*
Y1120000D01*
X1062500Y1117500D02*
X1067500D01*
X1065000Y1115000D02*
Y1120000D01*
X1062500Y1092500D02*
X1067500D01*
X1065000Y1090000D02*
Y1095000D01*
X1037500Y1092500D02*
X1042500D01*
X1040000Y1090000D02*
Y1095000D01*
X1012500Y1092500D02*
X1017500D01*
X1015000Y1090000D02*
Y1095000D01*
X987500Y1092500D02*
X992500D01*
X990000Y1090000D02*
Y1095000D01*
X962500Y1117500D02*
X967500D01*
X965000Y1115000D02*
Y1120000D01*
X962500Y1092500D02*
X967500D01*
X965000Y1090000D02*
Y1095000D01*
X962500Y1142500D02*
X967500D01*
X965000Y1140000D02*
Y1145000D01*
X987500Y1142500D02*
X992500D01*
X990000Y1140000D02*
Y1145000D01*
X987500Y1167500D02*
X992500D01*
X990000Y1165000D02*
Y1170000D01*
X962500Y1167500D02*
X967500D01*
X965000Y1165000D02*
Y1170000D01*
X987500Y1192500D02*
X992500D01*
X990000Y1190000D02*
Y1195000D01*
X962500Y1192500D02*
X967500D01*
X965000Y1190000D02*
Y1195000D01*
X1062500Y1142500D02*
X1067500D01*
X1065000Y1140000D02*
Y1145000D01*
X1037500Y1142500D02*
X1042500D01*
X1040000Y1140000D02*
Y1145000D01*
X1012500Y1142500D02*
X1017500D01*
X1015000Y1140000D02*
Y1145000D01*
X1012500Y1167500D02*
X1017500D01*
X1015000Y1165000D02*
Y1170000D01*
X1037500Y1167500D02*
X1042500D01*
X1040000Y1165000D02*
Y1170000D01*
X1062500Y1167500D02*
X1067500D01*
X1065000Y1165000D02*
Y1170000D01*
X1062500Y1192500D02*
X1067500D01*
X1065000Y1190000D02*
Y1195000D01*
X1037500Y1192500D02*
X1042500D01*
X1040000Y1190000D02*
Y1195000D01*
X1012500Y1192500D02*
X1017500D01*
X1015000Y1190000D02*
Y1195000D01*
X852500Y1190000D02*
X857500D01*
X855000Y1187500D02*
Y1192500D01*
X877500Y1190000D02*
X882500D01*
X880000Y1187500D02*
Y1192500D01*
X902500Y1190000D02*
X907500D01*
X905000Y1187500D02*
Y1192500D01*
X902500Y1165000D02*
X907500D01*
X905000Y1162500D02*
Y1167500D01*
X877500Y1165000D02*
X882500D01*
X880000Y1162500D02*
Y1167500D01*
X852500Y1165000D02*
X857500D01*
X855000Y1162500D02*
Y1167500D01*
X852500Y1140000D02*
X857500D01*
X855000Y1137500D02*
Y1142500D01*
X877500Y1140000D02*
X882500D01*
X880000Y1137500D02*
Y1142500D01*
X902500Y1140000D02*
X907500D01*
X905000Y1137500D02*
Y1142500D01*
X802500Y1190000D02*
X807500D01*
X805000Y1187500D02*
Y1192500D01*
X827500Y1190000D02*
X832500D01*
X830000Y1187500D02*
Y1192500D01*
X802500Y1165000D02*
X807500D01*
X805000Y1162500D02*
Y1167500D01*
X827500Y1165000D02*
X832500D01*
X830000Y1162500D02*
Y1167500D01*
X827500Y1140000D02*
X832500D01*
X830000Y1137500D02*
Y1142500D01*
X802500Y1140000D02*
X807500D01*
X805000Y1137500D02*
Y1142500D01*
X802500Y1090000D02*
X807500D01*
X805000Y1087500D02*
Y1092500D01*
X802500Y1115000D02*
X807500D01*
X805000Y1112500D02*
Y1117500D01*
X827500Y1090000D02*
X832500D01*
X830000Y1087500D02*
Y1092500D01*
X852500Y1090000D02*
X857500D01*
X855000Y1087500D02*
Y1092500D01*
X877500Y1090000D02*
X882500D01*
X880000Y1087500D02*
Y1092500D01*
X902500Y1090000D02*
X907500D01*
X905000Y1087500D02*
Y1092500D01*
X902500Y1115000D02*
X907500D01*
X905000Y1112500D02*
Y1117500D01*
X877500Y1115000D02*
X882500D01*
X880000Y1112500D02*
Y1117500D01*
X852500Y1115000D02*
X857500D01*
X855000Y1112500D02*
Y1117500D01*
X827500Y1115000D02*
X832500D01*
X830000Y1112500D02*
Y1117500D01*
X281444Y529760D02*
X288556D01*
X285000Y526204D02*
Y533316D01*
X338374Y532260D02*
X345486D01*
X341930Y528704D02*
Y535816D01*
X451444Y534760D02*
X458556D01*
X455000Y531204D02*
Y538316D01*
X411444Y550000D02*
X418556D01*
X415000Y546444D02*
Y553556D01*
X661444Y580000D02*
X668556D01*
X665000Y576444D02*
Y583556D01*
X788944Y505000D02*
X796056D01*
X792500Y501444D02*
Y508556D01*
X91444Y525000D02*
X98556D01*
X95000Y521444D02*
Y528556D01*
X186444Y582500D02*
X193556D01*
X190000Y578944D02*
Y586056D01*
X186444Y600000D02*
X193556D01*
X190000Y596444D02*
Y603556D01*
X368944Y530000D02*
X376056D01*
X372500Y526444D02*
Y533556D01*
X461444Y589760D02*
X468556D01*
X465000Y586204D02*
Y593316D01*
X653462Y600482D02*
X660574D01*
X657018Y596926D02*
Y604038D01*
X666444Y392500D02*
X673556D01*
X670000Y388944D02*
Y396056D01*
X668750Y372695D02*
X675862D01*
X672306Y369138D02*
Y376250D01*
X933944Y327500D02*
X941056D01*
X937500Y323944D02*
Y331056D01*
X646444Y332500D02*
X653556D01*
X650000Y328944D02*
Y336056D01*
X792500Y670000D02*
X797500D01*
X795000Y667500D02*
Y672500D01*
X817500Y670000D02*
X822500D01*
X820000Y667500D02*
Y672500D01*
X842500Y670000D02*
X847500D01*
X845000Y667500D02*
Y672500D01*
X867500Y670000D02*
X872500D01*
X870000Y667500D02*
Y672500D01*
X867500Y645000D02*
X872500D01*
X870000Y642500D02*
Y647500D01*
X842500Y645000D02*
X847500D01*
X845000Y642500D02*
Y647500D01*
X817500Y645000D02*
X822500D01*
X820000Y642500D02*
Y647500D01*
X792500Y645000D02*
X797500D01*
X795000Y642500D02*
Y647500D01*
X792500Y620000D02*
X797500D01*
X795000Y617500D02*
Y622500D01*
X817500Y620000D02*
X822500D01*
X820000Y617500D02*
Y622500D01*
X842500Y620000D02*
X847500D01*
X845000Y617500D02*
Y622500D01*
X867500Y620000D02*
X872500D01*
X870000Y617500D02*
Y622500D01*
X767500Y670000D02*
X772500D01*
X770000Y667500D02*
Y672500D01*
X767500Y645000D02*
X772500D01*
X770000Y642500D02*
Y647500D01*
X767500Y620000D02*
X772500D01*
X770000Y617500D02*
Y622500D01*
X767500Y695000D02*
X772500D01*
X770000Y692500D02*
Y697500D01*
X792500Y695000D02*
X797500D01*
X795000Y692500D02*
Y697500D01*
X792500Y720000D02*
X797500D01*
X795000Y717500D02*
Y722500D01*
X767500Y720000D02*
X772500D01*
X770000Y717500D02*
Y722500D01*
X792500Y745000D02*
X797500D01*
X795000Y742500D02*
Y747500D01*
X767500Y745000D02*
X772500D01*
X770000Y742500D02*
Y747500D01*
X41444Y730000D02*
X48556D01*
X45000Y726444D02*
Y733556D01*
M02*
