G04*
G04 #@! TF.GenerationSoftware,Altium Limited,Altium Designer,24.8.2 (39)*
G04*
G04 Layer_Color=8388736*
%FSLAX44Y44*%
%MOMM*%
G71*
G04*
G04 #@! TF.SameCoordinates,2ADF9C04-DE7E-4385-BC50-A77D5B0DFB63*
G04*
G04*
G04 #@! TF.FilePolarity,Negative*
G04*
G01*
G75*
%ADD13R,2.5400X6.0960*%
%ADD14R,2.0320X1.5240*%
%ADD15C,3.2032*%
%ADD16O,2.2032X2.2032*%
%ADD17C,1.2000*%
%ADD18R,1.2000X1.2000*%
%ADD19R,1.5532X1.5532*%
%ADD20C,1.5532*%
%ADD21C,2.0000*%
%ADD22R,2.0000X2.0000*%
%ADD23C,2.4500*%
%ADD24R,2.4500X2.4500*%
%ADD25R,1.5532X1.5532*%
%ADD26C,1.5700*%
%ADD27R,1.5700X1.5700*%
%ADD28C,1.4000*%
%ADD29R,1.4000X1.4000*%
%ADD30C,1.4132*%
G04:AMPARAMS|DCode=31|XSize=2.1532mm|YSize=2.1532mm|CornerRadius=0.5891mm|HoleSize=0mm|Usage=FLASHONLY|Rotation=90.000|XOffset=0mm|YOffset=0mm|HoleType=Round|Shape=RoundedRectangle|*
%AMROUNDEDRECTD31*
21,1,2.1532,0.9750,0,0,90.0*
21,1,0.9750,2.1532,0,0,90.0*
1,1,1.1782,0.4875,0.4875*
1,1,1.1782,0.4875,-0.4875*
1,1,1.1782,-0.4875,-0.4875*
1,1,1.1782,-0.4875,0.4875*
%
%ADD31ROUNDEDRECTD31*%
%ADD32C,2.1532*%
%ADD33R,1.2000X1.2000*%
%ADD34O,2.6032X1.8032*%
%ADD35C,4.2032*%
%ADD36C,1.5500*%
%ADD37R,1.5500X1.5500*%
%ADD38C,6.2032*%
%ADD39C,1.4732*%
%ADD40C,0.9532*%
G36*
X87500Y627500D02*
Y747500D01*
X207500D01*
Y627500D01*
X87500D01*
D02*
G37*
G36*
X317500D02*
Y747500D01*
X437500D01*
Y627500D01*
X317500D01*
D02*
G37*
G36*
X105000Y1095000D02*
Y1215000D01*
X205000D01*
Y1095000D01*
X105000D01*
D02*
G37*
G36*
X335000D02*
Y1215000D01*
X435000D01*
Y1095000D01*
X335000D01*
D02*
G37*
G36*
X690000Y1090000D02*
X590000D01*
Y1210000D01*
X690000D01*
Y1090000D01*
D02*
G37*
G36*
X1078001Y1080216D02*
X958001D01*
Y1200216D01*
X1078001D01*
Y1080216D01*
D02*
G37*
G36*
X915000Y1080000D02*
X795000D01*
Y1200000D01*
X915000D01*
Y1080000D01*
D02*
G37*
G36*
X700458Y626476D02*
X580458D01*
Y746476D01*
X700458D01*
Y626476D01*
D02*
G37*
D13*
X973550Y745750D02*
D03*
D14*
X1040450Y768650D02*
D03*
Y745750D02*
D03*
Y722850D02*
D03*
D15*
X472500Y874550D02*
D03*
Y1009450D02*
D03*
X737270Y773920D02*
D03*
Y639020D02*
D03*
X243250Y774950D02*
D03*
Y640050D02*
D03*
Y1008700D02*
D03*
Y873800D02*
D03*
X737270Y1008700D02*
D03*
Y873800D02*
D03*
X472500Y775920D02*
D03*
Y641020D02*
D03*
D16*
X209842Y502783D02*
D03*
X184442D02*
D03*
X133642D02*
D03*
X235242D02*
D03*
X159042D02*
D03*
X260642D02*
D03*
X514750Y350637D02*
D03*
X616350D02*
D03*
X540150D02*
D03*
X565550D02*
D03*
X590950D02*
D03*
X489350D02*
D03*
X463950D02*
D03*
X413150D02*
D03*
X387750D02*
D03*
X362350D02*
D03*
X438550D02*
D03*
X336950D02*
D03*
X286150D02*
D03*
X133750D02*
D03*
X159150D02*
D03*
X184550D02*
D03*
X209950D02*
D03*
X311550D02*
D03*
X235350D02*
D03*
X260750D02*
D03*
X514642Y502783D02*
D03*
X616496D02*
D03*
X540042D02*
D03*
X565442D02*
D03*
X590842D02*
D03*
X489242D02*
D03*
X362242D02*
D03*
X286042D02*
D03*
X311442D02*
D03*
X336842D02*
D03*
X387642D02*
D03*
X413042D02*
D03*
X438442D02*
D03*
X463842D02*
D03*
D17*
X1087500Y725000D02*
D03*
X930000Y725000D02*
D03*
X27500Y607500D02*
D03*
X325250Y608000D02*
D03*
X497500Y607500D02*
D03*
X277500Y608000D02*
D03*
X543500Y608250D02*
D03*
X82500Y607500D02*
D03*
X1124750Y677000D02*
D03*
D18*
X1087500Y775000D02*
D03*
X930000Y775000D02*
D03*
X27500Y557500D02*
D03*
X325250Y558000D02*
D03*
X497500Y557500D02*
D03*
X277500Y558000D02*
D03*
X543500Y558250D02*
D03*
X82500Y557500D02*
D03*
D19*
X304750Y770250D02*
D03*
X768250Y486250D02*
D03*
X738457D02*
D03*
X709207D02*
D03*
X563000Y943000D02*
D03*
X532500Y943250D02*
D03*
X315750Y943000D02*
D03*
X286707D02*
D03*
X68750Y766500D02*
D03*
X37000Y943000D02*
D03*
X67500D02*
D03*
X544750Y770250D02*
D03*
D20*
X304750Y860250D02*
D03*
X1008750Y485750D02*
D03*
X768250Y576250D02*
D03*
X738457D02*
D03*
X709207D02*
D03*
X563000Y1033000D02*
D03*
X532500Y1033250D02*
D03*
X315750Y1033000D02*
D03*
X286707D02*
D03*
X68750Y856500D02*
D03*
X37000Y1033000D02*
D03*
X67500D02*
D03*
X544750Y860250D02*
D03*
D21*
X382270Y831100D02*
D03*
X356870D02*
D03*
X382270Y899560D02*
D03*
X407670D02*
D03*
X641839D02*
D03*
X667239D02*
D03*
X641839Y831100D02*
D03*
X616439D02*
D03*
X179070Y899560D02*
D03*
X153670D02*
D03*
X127807Y831101D02*
D03*
X153207D02*
D03*
D22*
X407670Y831100D02*
D03*
X356870Y899560D02*
D03*
X616439D02*
D03*
X667239Y831100D02*
D03*
X128270Y899560D02*
D03*
X178607Y831101D02*
D03*
D23*
X823250Y732150D02*
D03*
Y831350D02*
D03*
X857250Y732150D02*
D03*
D24*
Y831350D02*
D03*
D25*
X918750Y485750D02*
D03*
D26*
X924500Y538000D02*
D03*
X1162700Y637500D02*
D03*
D27*
X899100Y538000D02*
D03*
X1137300Y637500D02*
D03*
D28*
X1029330Y418000D02*
D03*
X1054330D02*
D03*
X917792D02*
D03*
X892792D02*
D03*
X942792D02*
D03*
X737250Y418000D02*
D03*
X762250D02*
D03*
X787250D02*
D03*
X812250D02*
D03*
X837250D02*
D03*
D29*
X1079330Y418000D02*
D03*
X967792D02*
D03*
X712250Y418000D02*
D03*
D30*
X777000Y349815D02*
D03*
Y375215D02*
D03*
X704065Y349815D02*
D03*
Y375215D02*
D03*
X740407D02*
D03*
Y349815D02*
D03*
D31*
X1175000Y745000D02*
D03*
D32*
Y795000D02*
D03*
D33*
X1174750Y677000D02*
D03*
D34*
X944500Y1001192D02*
D03*
Y926193D02*
D03*
X1134000Y926000D02*
D03*
Y1001000D02*
D03*
D35*
X153670Y1066120D02*
D03*
X383540D02*
D03*
X641840D02*
D03*
D36*
X1054000Y482500D02*
D03*
D37*
X1079000D02*
D03*
D38*
X47500Y1153470D02*
D03*
Y376500D02*
D03*
X1155000D02*
D03*
X1144770Y1153470D02*
D03*
D39*
X257500Y545000D02*
D03*
X577500Y805000D02*
D03*
X665000Y322500D02*
D03*
X465000Y607500D02*
D03*
X442500D02*
D03*
Y590000D02*
D03*
X1057500Y722500D02*
D03*
X75000Y730000D02*
D03*
X285000Y529760D02*
D03*
X341930Y532260D02*
D03*
X455000Y534760D02*
D03*
X415000Y550000D02*
D03*
X665000Y580000D02*
D03*
X792500Y505000D02*
D03*
X95000Y525000D02*
D03*
X190000Y582500D02*
D03*
Y600000D02*
D03*
X372500Y530000D02*
D03*
X465000Y589760D02*
D03*
X657018Y600482D02*
D03*
X670000Y392500D02*
D03*
X672306Y372695D02*
D03*
X937500Y327500D02*
D03*
X650000Y332500D02*
D03*
X45000Y730000D02*
D03*
D40*
X990000Y1117500D02*
D03*
X1015000D02*
D03*
X1040000D02*
D03*
X1065000D02*
D03*
Y1092500D02*
D03*
X1040000D02*
D03*
X1015000D02*
D03*
X990000D02*
D03*
X965000Y1117500D02*
D03*
Y1092500D02*
D03*
Y1142500D02*
D03*
X990000D02*
D03*
Y1167500D02*
D03*
X965000D02*
D03*
X990000Y1192500D02*
D03*
X965000D02*
D03*
X1065000Y1142500D02*
D03*
X1040000D02*
D03*
X1015000D02*
D03*
Y1167500D02*
D03*
X1040000D02*
D03*
X1065000D02*
D03*
Y1192500D02*
D03*
X1040000D02*
D03*
X1015000D02*
D03*
X855000Y1190000D02*
D03*
X880000D02*
D03*
X905000D02*
D03*
Y1165000D02*
D03*
X880000D02*
D03*
X855000D02*
D03*
Y1140000D02*
D03*
X880000D02*
D03*
X905000D02*
D03*
X805000Y1190000D02*
D03*
X830000D02*
D03*
X805000Y1165000D02*
D03*
X830000D02*
D03*
Y1140000D02*
D03*
X805000D02*
D03*
Y1090000D02*
D03*
Y1115000D02*
D03*
X830000Y1090000D02*
D03*
X855000D02*
D03*
X880000D02*
D03*
X905000D02*
D03*
Y1115000D02*
D03*
X880000D02*
D03*
X855000D02*
D03*
X830000D02*
D03*
X795000Y670000D02*
D03*
X820000D02*
D03*
X845000D02*
D03*
X870000D02*
D03*
Y645000D02*
D03*
X845000D02*
D03*
X820000D02*
D03*
X795000D02*
D03*
Y620000D02*
D03*
X820000D02*
D03*
X845000D02*
D03*
X870000D02*
D03*
X770000Y670000D02*
D03*
Y645000D02*
D03*
Y620000D02*
D03*
Y695000D02*
D03*
X795000D02*
D03*
Y720000D02*
D03*
X770000D02*
D03*
X795000Y745000D02*
D03*
X770000D02*
D03*
M02*
