G04*
G04 #@! TF.GenerationSoftware,Altium Limited,Altium Designer,24.8.2 (39)*
G04*
G04 Layer_Color=255*
%FSLAX44Y44*%
%MOMM*%
G71*
G04*
G04 #@! TF.SameCoordinates,2ADF9C04-DE7E-4385-BC50-A77D5B0DFB63*
G04*
G04*
G04 #@! TF.FilePolarity,Positive*
G04*
G01*
G75*
%ADD17C,1.2000*%
%ADD18R,1.2000X1.2000*%
%ADD21C,2.0000*%
%ADD22R,2.0000X2.0000*%
%ADD23C,2.4500*%
%ADD24R,2.4500X2.4500*%
%ADD26C,1.5700*%
%ADD27R,1.5700X1.5700*%
%ADD28C,1.4000*%
%ADD29R,1.4000X1.4000*%
%ADD33R,1.2000X1.2000*%
%ADD36C,1.5500*%
%ADD37R,1.5500X1.5500*%
%ADD45C,3.0000*%
%ADD46O,2.0000X2.0000*%
%ADD47R,1.3500X1.3500*%
%ADD48C,1.3500*%
%ADD49R,1.3500X1.3500*%
%ADD50C,1.2100*%
G04:AMPARAMS|DCode=51|XSize=1.95mm|YSize=1.95mm|CornerRadius=0.4875mm|HoleSize=0mm|Usage=FLASHONLY|Rotation=90.000|XOffset=0mm|YOffset=0mm|HoleType=Round|Shape=RoundedRectangle|*
%AMROUNDEDRECTD51*
21,1,1.9500,0.9750,0,0,90.0*
21,1,0.9750,1.9500,0,0,90.0*
1,1,0.9750,0.4875,0.4875*
1,1,0.9750,0.4875,-0.4875*
1,1,0.9750,-0.4875,-0.4875*
1,1,0.9750,-0.4875,0.4875*
%
%ADD51ROUNDEDRECTD51*%
%ADD52C,1.9500*%
%ADD53O,2.4000X1.6000*%
%ADD54C,4.0000*%
%ADD55C,6.0000*%
G04:AMPARAMS|DCode=58|XSize=1.4946mm|YSize=0.5449mm|CornerRadius=0.2725mm|HoleSize=0mm|Usage=FLASHONLY|Rotation=180.000|XOffset=0mm|YOffset=0mm|HoleType=Round|Shape=RoundedRectangle|*
%AMROUNDEDRECTD58*
21,1,1.4946,0.0000,0,0,180.0*
21,1,0.9497,0.5449,0,0,180.0*
1,1,0.5449,-0.4749,0.0000*
1,1,0.5449,0.4749,0.0000*
1,1,0.5449,0.4749,0.0000*
1,1,0.5449,-0.4749,0.0000*
%
%ADD58ROUNDEDRECTD58*%
%ADD59R,1.4946X0.5449*%
D17*
X1087500Y725000D02*
D03*
X930000Y725000D02*
D03*
X27500Y607500D02*
D03*
X325250Y608000D02*
D03*
X497500Y607500D02*
D03*
X277500Y608000D02*
D03*
X543500Y608250D02*
D03*
X82500Y607500D02*
D03*
X1124750Y677000D02*
D03*
D18*
X1087500Y775000D02*
D03*
X930000Y775000D02*
D03*
X27500Y557500D02*
D03*
X325250Y558000D02*
D03*
X497500Y557500D02*
D03*
X277500Y558000D02*
D03*
X543500Y558250D02*
D03*
X82500Y557500D02*
D03*
D21*
X382270Y831100D02*
D03*
X356870D02*
D03*
X382270Y899560D02*
D03*
X407670D02*
D03*
X641839D02*
D03*
X667239D02*
D03*
X641839Y831100D02*
D03*
X616439D02*
D03*
X179070Y899560D02*
D03*
X153670D02*
D03*
X127807Y831101D02*
D03*
X153207D02*
D03*
D22*
X407670Y831100D02*
D03*
X356870Y899560D02*
D03*
X616439D02*
D03*
X667239Y831100D02*
D03*
X128270Y899560D02*
D03*
X178607Y831101D02*
D03*
D23*
X823250Y732150D02*
D03*
Y831350D02*
D03*
X857250Y732150D02*
D03*
D24*
Y831350D02*
D03*
D26*
X924500Y538000D02*
D03*
X1162700Y637500D02*
D03*
D27*
X899100Y538000D02*
D03*
X1137300Y637500D02*
D03*
D28*
X1029330Y418000D02*
D03*
X1054330D02*
D03*
X917792D02*
D03*
X892792D02*
D03*
X942792D02*
D03*
X737250Y418000D02*
D03*
X762250D02*
D03*
X787250D02*
D03*
X812250D02*
D03*
X837250D02*
D03*
D29*
X1079330Y418000D02*
D03*
X967792D02*
D03*
X712250Y418000D02*
D03*
D33*
X1174750Y677000D02*
D03*
D36*
X1054000Y482500D02*
D03*
D37*
X1079000D02*
D03*
D45*
X472500Y874550D02*
D03*
Y1009450D02*
D03*
X737270Y773920D02*
D03*
Y639020D02*
D03*
X243250Y774950D02*
D03*
Y640050D02*
D03*
Y1008700D02*
D03*
Y873800D02*
D03*
X737270Y1008700D02*
D03*
Y873800D02*
D03*
X472500Y775920D02*
D03*
Y641020D02*
D03*
D46*
X209842Y502783D02*
D03*
X184442D02*
D03*
X133642D02*
D03*
X235242D02*
D03*
X159042D02*
D03*
X260642D02*
D03*
X514750Y350637D02*
D03*
X616350D02*
D03*
X540150D02*
D03*
X565550D02*
D03*
X590950D02*
D03*
X489350D02*
D03*
X463950D02*
D03*
X413150D02*
D03*
X387750D02*
D03*
X362350D02*
D03*
X438550D02*
D03*
X336950D02*
D03*
X286150D02*
D03*
X133750D02*
D03*
X159150D02*
D03*
X184550D02*
D03*
X209950D02*
D03*
X311550D02*
D03*
X235350D02*
D03*
X260750D02*
D03*
X514642Y502783D02*
D03*
X616496D02*
D03*
X540042D02*
D03*
X565442D02*
D03*
X590842D02*
D03*
X489242D02*
D03*
X362242D02*
D03*
X286042D02*
D03*
X311442D02*
D03*
X336842D02*
D03*
X387642D02*
D03*
X413042D02*
D03*
X438442D02*
D03*
X463842D02*
D03*
D47*
X304750Y770250D02*
D03*
X768250Y486250D02*
D03*
X738457D02*
D03*
X709207D02*
D03*
X563000Y943000D02*
D03*
X532500Y943250D02*
D03*
X315750Y943000D02*
D03*
X286707D02*
D03*
X68750Y766500D02*
D03*
X37000Y943000D02*
D03*
X67500D02*
D03*
X544750Y770250D02*
D03*
D48*
X304750Y860250D02*
D03*
X1008750Y485750D02*
D03*
X768250Y576250D02*
D03*
X738457D02*
D03*
X709207D02*
D03*
X563000Y1033000D02*
D03*
X532500Y1033250D02*
D03*
X315750Y1033000D02*
D03*
X286707D02*
D03*
X68750Y856500D02*
D03*
X37000Y1033000D02*
D03*
X67500D02*
D03*
X544750Y860250D02*
D03*
D49*
X918750Y485750D02*
D03*
D50*
X777000Y349815D02*
D03*
Y375215D02*
D03*
X704065Y349815D02*
D03*
Y375215D02*
D03*
X740407D02*
D03*
Y349815D02*
D03*
D51*
X1175000Y745000D02*
D03*
D52*
Y795000D02*
D03*
D53*
X944500Y1001192D02*
D03*
Y926193D02*
D03*
X1134000Y926000D02*
D03*
Y1001000D02*
D03*
D54*
X153670Y1066120D02*
D03*
X383540D02*
D03*
X641840D02*
D03*
D55*
X47500Y1153470D02*
D03*
Y376500D02*
D03*
X1155000D02*
D03*
X1144770Y1153470D02*
D03*
D58*
X581942Y575900D02*
D03*
X632058Y588600D02*
D03*
Y575900D02*
D03*
Y563200D02*
D03*
X581942D02*
D03*
Y588600D02*
D03*
Y601300D02*
D03*
X370192Y578650D02*
D03*
Y604050D02*
D03*
Y591350D02*
D03*
Y565950D02*
D03*
X420308D02*
D03*
Y578650D02*
D03*
Y591350D02*
D03*
X168116Y587650D02*
D03*
Y574950D02*
D03*
Y562250D02*
D03*
X118000D02*
D03*
Y587650D02*
D03*
Y600350D02*
D03*
Y574950D02*
D03*
D59*
X632058Y601300D02*
D03*
X420308Y604050D02*
D03*
X168116Y600350D02*
D03*
M02*
